<?xml version="1.0" encoding="utf-8"?>
<!-- Generator: Adobe Illustrator 28.4.1, SVG Export Plug-In . SVG Version: 6.00 Build 0)  -->
<svg version="1.1" id="Camada_1" xmlns="http://www.w3.org/2000/svg" xmlns:xlink="http://www.w3.org/1999/xlink" x="0px" y="0px"
	 viewBox="0 0 410.7 461.1" style="enable-background:new 0 0 410.7 461.1;" xml:space="preserve">
<style type="text/css">
	.st0{fill:#006400;}
</style>
<path class="st0" d="M408.1,4.4c-1.9-2.1-4.6-3.3-7.4-3.3H10c-2.8,0-5.5,1.2-7.4,3.3S-0.2,9.2,0,12l35.2,394.3
	c0.4,4.1,3.2,7.6,7.2,8.7l160.1,45.7c0.9,0.2,1.8,0.4,2.7,0.4c0.9,0,1.8-0.1,2.7-0.4L368.3,415c4-1.1,6.9-4.6,7.2-8.7L410.7,12
	C410.9,9.2,410,6.4,408.1,4.4z M75.4,271.1l70,19.4V91.1h40v260l-110-30.5V271.1z M335.9,201.1l-10.5,122.5l-100,27.5v-46l67.5-18.5
	l2.5-37.5l-70,12.1v-170h120l-3.5,40h-76.5v80L335.9,201.1z"/>
</svg>
