<?xml version="1.0" encoding="UTF-8"?>
<svg id="Camada_1" data-name="Camada 1" xmlns="http://www.w3.org/2000/svg" viewBox="0 0 479.71 128.9">
  <defs>
    <style>
      .cls-1 {
        fill: #fbfbfb;
      }

      .cls-1, .cls-2, .cls-3, .cls-4, .cls-5 {
        stroke-width: 0px;
      }

      .cls-2 {
        fill: none;
      }

      .cls-3 {
        fill: #fefefe;
      }

      .cls-4 {
        fill: #a5a5a6;
      }

      .cls-5 {
        fill: #a5a6a6;
      }
    </style>
  </defs>
  <path class="cls-4" d="M149.64,61.7c-2.54,0-5.08-.06-7.62.03-1.06.04-1.43-.38-1.66-1.33-.74-3.03-1.59-6.03-2.33-9.06-.2-.83-.58-1.09-1.41-1.09-5.86.03-11.73.03-17.59,0-.85,0-1.17.3-1.38,1.11-.75,2.97-1.64,5.92-2.36,8.9-.26,1.09-.68,1.49-1.85,1.47-5.03-.07-10.06-.06-15.1,0-1.18.01-1.49-.18-1.08-1.43,6.38-19.49,12.72-39,19.03-58.52.3-.92.73-1.17,1.65-1.17,6.45.04,12.9.05,19.35,0,1.04,0,1.41.36,1.71,1.29,6.39,19.49,12.81,38.97,19.25,58.44.37,1.1.22,1.43-1,1.39-2.54-.08-5.08-.03-7.62-.03ZM127.81,11.37c-.07,0-.14.01-.21.02-.2.95-.41,1.89-.61,2.84-1.5,7.14-3.41,14.19-5.3,21.23-.25.93-.3,1.4.94,1.37,3.46-.08,6.93-.06,10.39,0,1.14.02,1.28-.3.98-1.36-1-3.51-1.9-7.04-2.8-10.58-1.15-4.5-2.26-9.01-3.39-13.52Z"/>
  <path class="cls-5" d="M375.2,22.59c0-7.68.03-14.03-.03-20.38,0-1.11.3-1.38,1.39-1.37,4.59.06,9.18.07,13.78,0,1.13-.02,1.36.33,1.35,1.39-.04,11.33-.02,22.66-.03,33.99,0,1.76.09,3.51.48,5.23,1.13,4.99,3.88,7.23,8.94,7.31,5.61.08,8.58-2.51,9.39-8.09.21-1.46.27-2.92.27-4.38,0-10.35,0-20.71,0-31.06,0-1.07.05-2.15-.02-3.22-.06-.89.22-1.18,1.14-1.17,4.74.04,9.48.04,14.22,0,.8,0,1.1.19,1.1,1.05-.04,12.7.16,25.4-.14,38.09-.18,7.68-3.23,14.22-9.96,18.56-3.57,2.3-7.56,3.36-11.74,3.72-5.54.48-11.05.25-16.31-1.76-8.15-3.1-12.48-9.25-13.49-17.75-.85-7.15-.12-14.34-.35-20.18Z"/>
  <path class="cls-4" d="M.03,31.31c0-9.67.02-19.34-.02-29.01C0,1.16.29.83,1.46.84c7.18.07,14.37,0,21.55.08,3.48.04,6.91.61,10.16,1.91,6.33,2.53,9.87,7.24,10.74,13.97.71,5.57.1,10.94-2.96,15.78-3.19,5.05-8.1,7.4-13.8,8.45-3.06.56-6.13.47-9.2.42-1.17-.02-1.49.35-1.48,1.49.05,5.76,0,11.53.05,17.29.01,1.13-.26,1.51-1.45,1.5-4.49-.07-8.99-.07-13.49,0C.36,61.74,0,61.42,0,60.18c.05-9.62.03-19.24.03-28.87ZM19.57,14.1h0c-.73,0-1.47.03-2.2-.01-.7-.04-.95.23-.95.93.02,4.1.01,8.2,0,12.31,0,.52.14.82.74.82,1.9-.01,3.81.09,5.65-.59,3.39-1.24,5.22-4.64,4.62-8.67-.45-3-2.75-4.68-6.55-4.78-.44-.01-.88,0-1.32,0Z"/>
  <path class="cls-4" d="M272.1,31.31c0-9.67.02-19.34-.03-29.02,0-1.16.32-1.46,1.47-1.45,6.6.05,13.19.02,19.79.03,3.78,0,7.5.41,11.09,1.67,6.96,2.46,10.81,7.4,11.6,14.71.67,6.22-.2,12.11-4.32,17.11-3.75,4.54-8.9,6.29-14.54,6.96-2.34.28-4.69.19-7.03.13-1.26-.03-1.68.28-1.66,1.61.08,5.71,0,11.43.06,17.14.01,1.25-.37,1.55-1.57,1.53-4.45-.07-8.89-.07-13.34,0-1.21.02-1.57-.31-1.56-1.54.05-9.62.03-19.25.03-28.87ZM288.5,21.23c0,1.12,0,2.24,0,3.36q0,3.77,3.85,3.5c3.77-.27,6.35-2.45,7.11-6,.92-4.36-1.19-7.5-5.43-7.92-1.54-.15-3.11-.04-4.67-.09-.77-.02-.86.4-.86,1.01.02,2.04,0,4.09,0,6.13Z"/>
  <path class="cls-4" d="M437.11,51.41c0-2.05.05-4.1-.02-6.15-.03-1.06.28-1.14,1.15-.71,4.26,2.14,8.78,3.52,13.48,4.21,2.41.35,4.84.62,7.29.18,2.72-.48,4.39-2.34,4.2-4.74-.11-1.35-.89-2.24-1.88-2.99-1.6-1.22-3.44-2.02-5.25-2.86-3.84-1.79-7.8-3.36-11.28-5.85-6.14-4.38-7.96-10.53-7.01-17.64.92-6.89,5.32-10.94,11.62-13.18,4.06-1.44,8.27-1.83,12.55-1.62,5.76.28,11.27,1.59,16.58,3.84.92.39,1.13.74.74,1.68-1.42,3.42-2.79,6.86-4.1,10.32-.36.96-.73,1.09-1.68.68-4.46-1.91-9-3.51-13.96-3.4-1.14.02-2.24.2-3.29.62-2.57,1.04-3.19,3.59-1.37,5.69.84.98,1.95,1.62,3.09,2.18,3.68,1.8,7.41,3.5,11.04,5.38,3.22,1.67,6.24,3.67,8.23,6.85,4.33,6.93,3.5,19.43-6.58,25.05-4.06,2.27-8.42,3.3-13.01,3.45-6.65.22-13.16-.36-19.32-3.17-.98-.45-1.27-.97-1.23-1.97.07-1.95.02-3.91.02-5.86Z"/>
  <path class="cls-4" d="M209.03.87c5.84,0,11.41.03,16.97-.02.93,0,1.13.56,1.41,1.17,3.04,6.6,6.08,13.19,9.12,19.79.2.44.42.87.64,1.33.56-.25.61-.77.8-1.18,3.07-6.58,6.14-13.16,9.15-19.77.44-.97.94-1.36,2.05-1.35,5.37.06,10.74.03,16.12.03.11.66-.31,1.06-.55,1.51-6.13,11.38-12.26,22.75-18.41,34.11-.5.93-.76,1.84-.75,2.91.04,6.93,0,13.87.04,20.8,0,1.08-.18,1.55-1.41,1.53-4.64-.07-9.28-.06-13.92,0-1.04.01-1.31-.33-1.31-1.34.04-6.89,0-13.77.03-20.66,0-.96-.21-1.79-.67-2.64-6.12-11.43-12.22-22.88-18.32-34.32-.29-.55-.58-1.11-.98-1.89Z"/>
  <path class="cls-4" d="M192.04,38c0,7.37-.04,14.75.03,22.12.01,1.34-.4,1.62-1.65,1.6-4.4-.07-8.79-.08-13.19,0-1.28.02-1.64-.31-1.64-1.62.05-14.7,0-29.4.07-44.1,0-1.46-.41-1.77-1.79-1.74-3.91.1-7.82,0-11.72.06-1.01.01-1.35-.25-1.33-1.3.06-3.66.06-7.33,0-10.99-.02-1.01.35-1.19,1.26-1.19,14.51.02,29.02.03,43.53,0,1.01,0,1.34.24,1.32,1.29-.06,3.61-.07,7.23,0,10.84.02,1.15-.38,1.37-1.43,1.35-4.01-.06-8.01.02-12.02-.05-1.15-.02-1.48.29-1.48,1.46.05,7.42.03,14.85.03,22.27Z"/>
  <path class="cls-5" d="M325.95,31.36c0-9.67.02-19.34-.03-29,0-1.23.32-1.54,1.53-1.52,4.44.08,8.89.08,13.33,0,1.27-.02,1.62.27,1.62,1.59-.05,14.79-.02,29.59-.06,44.39,0,1.26.26,1.64,1.59,1.62,6.79-.08,13.58,0,20.37-.06,1.25-.01,1.55.37,1.52,1.56-.08,3.47-.08,6.93,0,10.4.02,1.13-.34,1.39-1.41,1.39-12.36-.03-24.72-.04-37.08,0-1.23,0-1.41-.44-1.41-1.51.04-9.62.02-19.24.02-28.86Z"/>
  <path class="cls-5" d="M53.86,31.26c0-9.62.03-19.24-.04-28.85,0-1.35.39-1.59,1.63-1.57,4.44.07,8.89.08,13.33,0,1.21-.02,1.53.29,1.53,1.52-.05,14.79-.01,29.59-.06,44.38,0,1.29.26,1.72,1.65,1.7,6.79-.08,13.58,0,20.37-.06,1.14,0,1.5.28,1.47,1.46-.08,3.51-.07,7.03,0,10.54.02,1.05-.34,1.3-1.34,1.3-12.41-.03-24.81-.04-37.22,0-1.15,0-1.35-.38-1.35-1.42.04-9.67.02-19.33.02-29Z"/>
  <path class="cls-2" d="M127.81,11.37c1.13,4.51,2.24,9.02,3.39,13.52.9,3.53,1.8,7.07,2.8,10.58.3,1.05.16,1.38-.98,1.36-3.46-.05-6.93-.07-10.39,0-1.24.03-1.19-.45-.94-1.37,1.89-7.05,3.8-14.09,5.3-21.23.2-.95.41-1.89.61-2.84.07,0,.14-.01.21-.02Z"/>
  <path class="cls-2" d="M19.57,14.1c.44,0,.88,0,1.32,0,3.8.09,6.1,1.78,6.55,4.78.6,4.03-1.23,7.43-4.62,8.67-1.84.67-3.74.57-5.65.59-.6,0-.74-.3-.74-.82,0-4.1.01-8.2,0-12.31,0-.69.25-.97.95-.93.73.04,1.46,0,2.2,0h0Z"/>
  <path class="cls-2" d="M288.5,21.23c0-2.04.01-4.09,0-6.13,0-.61.08-1.04.86-1.01,1.56.05,3.13-.07,4.67.09,4.24.42,6.35,3.56,5.43,7.92-.75,3.55-3.34,5.74-7.11,6q-3.85.27-3.85-3.5c0-1.12,0-2.24,0-3.36Z"/>
  <path class="cls-1" d="M176.58,109.3c0-6.06.03-12.11-.02-18.17,0-1.03.28-1.32,1.3-1.28,4.97.18,9.96-.31,14.93.32,8,1.01,13.78,6.9,14.74,14.92.41,3.43.36,6.83-.43,10.18-1.77,7.55-7.26,12.36-15.04,13.29-4.87.58-9.76.16-14.64.32-1.11.04-.83-.7-.83-1.27-.01-6.1,0-12.21,0-18.31ZM181.15,109.22c0,4.88.01,9.76-.01,14.64,0,.76.11,1.14,1.01,1.1,2.58-.12,5.18-.03,7.75-.22,6.16-.46,10.52-3.85,12.17-9.3,1.01-3.33,1.08-6.73.54-10.14-1.02-6.41-4.36-9.86-10.69-11.1-3.14-.61-6.32-.32-9.49-.43-1.01-.04-1.31.21-1.3,1.26.06,4.73.03,9.47.03,14.2Z"/>
  <path class="cls-3" d="M228.3,109.26c0-6.01.02-12.01-.02-18.02,0-1,.1-1.42,1.3-1.41,6.4.07,12.8.06,19.19.01,1,0,1.32.21,1.3,1.26-.06,2.83,0,2.83-2.81,2.83-4.4,0-8.79.03-13.19-.02-1.05-.01-1.3.3-1.28,1.31.06,3.32.07,6.64,0,9.96-.02,1.07.36,1.29,1.34,1.28,4.49-.05,8.99,0,13.48-.04,1.03-.01,1.46.16,1.43,1.33-.07,2.7,0,2.7-2.66,2.7-4.05,0-8.11.05-12.16-.03-1.2-.02-1.45.36-1.43,1.48.06,3.86.07,7.71,0,11.57-.02,1.14.33,1.36,1.39,1.35,4.83-.06,9.67,0,14.51-.05,1.05-.01,1.42.18,1.39,1.33-.08,2.77-.01,2.78-2.84,2.78-5.81,0-11.62-.03-17.44.03-1.17.01-1.55-.2-1.54-1.47.08-6.05.04-12.11.04-18.16Z"/>
  <path class="cls-1" d="M265.26,89.87c1.46,0,2.81.03,4.16-.01.68-.02.76.42.92.9,3.58,10.54,7.85,20.85,10.82,31.6.05.19.11.37.35.4,3.09-10.69,7.29-20.99,10.81-31.53.34-1.02.79-1.52,1.94-1.39,1.1.13,2.22.03,3.5.03-1.57,4.35-3.09,8.55-4.6,12.76-3.02,8.37-6.06,16.73-9.04,25.12-.32.91-.73,1.15-1.65,1.14-3.26-.04-3.27,0-4.37-3.06-4.15-11.53-8.29-23.06-12.43-34.6-.15-.4-.26-.82-.43-1.37Z"/>
</svg>