<?xml version="1.0" encoding="UTF-8"?>
<svg id="Camada_1" data-name="Camada 1" xmlns="http://www.w3.org/2000/svg" viewBox="0 0 594.39 521.64">
  <defs>
    <style>
      .cls-1 {
        fill: #faedde;
      }

      .cls-1, .cls-2, .cls-3, .cls-4, .cls-5, .cls-6 {
        stroke-width: 0px;
      }

      .cls-2 {
        fill: #c69686;
      }

      .cls-3 {
        fill: #2d040b;
      }

      .cls-4 {
        fill: #fcb669;
      }

      .cls-5 {
        fill: #cfd5e2;
      }

      .cls-6 {
        fill: #8f3519;
      }
    </style>
  </defs>
  <path class="cls-1" d="M538.5,429.4c.77-.24,1.53-.47,2.3-.72,24.84-8.19,42.79-23.74,51.06-49.02,8.15-24.92-3.93-49.77-28.3-59.22-14.25-5.53-28.81-5.21-43.38-1.8-17.92,4.19-33.91,12.64-48.99,22.96-4.12,2.82-8.14,5.77-12.46,8.83,0-8.99.08-17.46-.01-25.93-.46-44.34.15-88.71-3.71-132.95-1.86-21.26-6.22-42.03-14.56-61.74-25.49-60.22-69.23-99.15-133.67-113.56-13.99-3.13-28.27-4.9-42.04-9.05-8.33-2.51-16.4-6.03-25.13-7.06-5.1-.6-9.8.47-12.47,5.33-2.52,4.57-1.61,9.09,1.33,13.26.99,1.4,2.03,2.77,3.57,4.85-5.71-1.74-10.53-3.17-15.33-4.66-8.33-2.59-16.65-5.32-25.5-5.38-4.18-.03-7.72,1.55-9.44,5.65-1.73,4.14-.58,7.88,2.25,11.16,2.66,3.08,6.02,5.3,9.54,7.28,2.62,1.47,5.27,2.87,8.03,4.37-42.6,19.75-70.36,52.02-83.92,96.37-6.27,20.52-6.94,41.35-.37,62.08,3.51,11.1,8.03,21.76,14.08,31.72,1.2,1.97,1.15,2.98-1.31,3.45-3.15.61-6.24,1.58-9.41,2.04-7.73,1.13-15.46,2.09-22.65,5.51-14.99,7.15-22.75,21.08-19.48,36.11,3.02,13.89,12.71,22.2,24.97,27.92,7.21,3.36,14.87,5.48,22.69,6.84,3.18.55,1.81,2.66,1.82,4.18.02,2.54-1.81,1.38-2.96,1.15-2.55-.51-5.08-1.12-7.59-1.78-12.32-3.21-24.62-6.47-36.94-9.67-16.84-4.37-33.68-8.76-50.55-13.02-12.58-3.17-22.18,2.53-26.65,9.94-5.2,8.64-3.72,17.09.44,25.58,16.6,33.91,33.15,67.85,49.76,101.76,2.71,5.53,5.61,10.97,8.43,16.44-1.46.65-2.87,1.24-4.53,1.42-7.27.79-14.28,2.81-21.22,5-2.81.88-5.53,2.21-8.1,3.68-5.29,3.04-5.35,7.93-.16,10.97,2.06,1.21,4.33,2.15,6.62,2.85,8.54,2.64,17.26,4.61,25.97,6.63,26.65,6.18,53.29,12.44,79.94,18.61,18.4,4.26,36.8,8.57,55.26,12.6,16.33,3.56,32.66,7.15,49.19,9.71,10.35,1.6,20.75,2.18,31.15.55,14.94-2.34,29.66-5.74,44.41-9.03,17.55-3.91,35.06-8.01,52.62-11.91,23.14-5.15,46.31-10.14,69.44-15.3,19.56-4.36,39.1-8.77,58.62-13.29,15.73-3.65,31.6-6.82,46.91-12.09,4.97-1.71,9.3-4.47,12.81-8.37,3.07-3.42,3.15-6.47.44-10.17-2.41-3.28-6.01-4.86-9.62-6.29-4.35-1.72-8.79-3.21-13.18-4.8Z"/>
  <path class="cls-3" d="M61.95,448.63c-2.81-5.48-5.72-10.91-8.43-16.44-16.61-33.91-33.15-67.85-49.76-101.76-4.16-8.49-5.64-16.94-.44-25.58,4.47-7.41,14.07-13.11,26.65-9.94,16.87,4.26,33.71,8.65,50.55,13.02,12.32,3.2,24.63,6.46,36.94,9.67,2.51.65,5.04,1.26,7.59,1.78,1.16.23,2.98,1.4,2.96-1.15-.01-1.53,1.35-3.63-1.82-4.18-7.82-1.36-15.48-3.47-22.69-6.84-12.27-5.72-21.95-14.03-24.97-27.92-3.27-15.03,4.49-28.96,19.48-36.11,7.19-3.43,14.92-4.38,22.65-5.51,3.17-.46,6.26-1.43,9.41-2.04,2.47-.47,2.51-1.48,1.31-3.45-6.06-9.96-10.57-20.62-14.08-31.72-6.57-20.73-5.9-41.56.37-62.08,13.56-44.36,41.32-76.62,83.92-96.37-2.76-1.5-5.41-2.9-8.03-4.37-3.52-1.98-6.88-4.2-9.54-7.28-2.83-3.28-3.98-7.02-2.25-11.16,1.72-4.1,5.25-5.68,9.44-5.65,8.85.06,17.16,2.79,25.5,5.38,4.8,1.49,9.61,2.93,15.33,4.66-1.54-2.08-2.58-3.45-3.57-4.85-2.94-4.16-3.85-8.68-1.33-13.26,2.68-4.86,7.38-5.93,12.47-5.33,8.73,1.03,16.8,4.55,25.13,7.06,13.77,4.15,28.06,5.92,42.04,9.05,64.44,14.4,108.18,53.34,133.67,113.56,8.34,19.7,12.7,40.47,14.56,61.74,3.86,44.24,3.24,88.61,3.71,132.95.09,8.47.01,16.94.01,25.93,4.31-3.06,8.34-6.01,12.46-8.83,15.08-10.32,31.08-18.76,48.99-22.96,14.58-3.41,29.13-3.73,43.38,1.8,24.37,9.45,36.46,34.3,28.3,59.22-8.27,25.27-26.22,40.82-51.06,49.02-.76.25-1.53.48-2.3.72-11.98,3.5-24.19,4.98-36.68,4.89-23.67-.16-47.34,0-71.01-.06-2.34,0-4.13.59-5.87,2.2-6,5.56-12.76,10.1-19.95,13.98-1.69.91-1.86,1.55-1.27,3.39,2.97,9.19.42,16.29-8.4,20.75-2.54,1.29-5.28,2.26-8.02,3.08-34.08,10.25-68.2,20.34-102.24,30.7-12.06,3.67-23.84,3.53-35.9,0-54.86-16.09-109.77-32.04-164.68-47.94-8.02-2.32-15.88-4.74-21.57-11.39-.19-.23-.63-.24-.96-.36ZM133.08,208.44l.14.19c1.43,6.99,5.41,12.78,8.88,18.81,1.07,1.87,2.2.93,3.26-.19,2.57-2.72,3.12-6.31,4.23-9.65,1.38-2.99,1.27-6.24,1.61-9.41.14-1.27-.61-1.79-1.66-2.25-4.31-1.9-7.03-5.33-9.16-9.41-3.11-5.96-4.03-12.37-4.18-18.96.1-1.13.16-2.27.3-3.4.84-6.71,2.71-12.96,8.04-17.62,4.28-3.74,8.17-4.19,13.16-1.6,2.93,3.22,4.37,7.18,5.26,11.34,2.97-2.79,5.75-5.4,8.54-8.02.99.19,1.82-.29,2.58-.78,5.66-3.65,11.8-5.85,18.47-6.98,18.17-3.09,34.96-.49,49.54,11.47,9.07,7.44,14.99,16.83,17.19,28.53,1.49,7.91,1.26,15.96,2.57,23.88,1.16,7.03,1.66,7.71,8.84,6.49,14.96-2.54,25.87,6.09,31.11,18.39,5.34,12.52,2.24,24.79-4.16,35.8-6.49,11.16-16.52,19.06-28.11,24.94-7.27,3.69-14.89,6.39-22.58,8.98-11.95,4.03-24.2,6.68-36.73,8.08-6.07.68-12.11,1.6-18.53,2.46.86.91,1.38,1.68,2.09,2.17,5.5,3.8,9.99,8.59,14.13,13.81,3.3,4.16,5.88,8.86,10.77,11.8,5.41,3.25,9.1,8.56,11.38,14.28,5.32,13.36,10.01,26.97,14.92,40.5,1.3,3.57,2.18,6.77,7.33,7.09,5.28.32,10.21,3.08,15.28,4.82,7.54,2.59,15.32,4.42,23.16,6.05,8.25,1.71,16.32,4.23,24.5,6.3,1.38.35,2.96.65,3.19-1.79.5-5.35,1.57-10.62,2.69-15.88.17-.79,1.01-1.84,0-2.52-.78-.52-1.76-.17-2.64.18-6.81,2.76-13.92,4.42-21.15,5.65-10.01,1.71-19.86,1.45-29.33-2.64-19.11-8.26-21.29-31.27-11.87-45.78,3.87-5.96,8.37-11.37,13.12-16.57,4.21-4.61,8.83-8.84,13.19-13.32,4.28-4.4,9.43-7.97,14.31-11.77,4.98-3.89,9.65-8.26,15.77-10.91.79,3.39-1.1,6.51-.25,9.67-1.4,1.34-2.77,2.72-4.22,4.02-12.81,11.5-25.87,22.76-36.74,36.23-5.49,6.81-10.13,13.99-9.29,23.34-.2,5.6,4.4,12.19,10.07,14.77,7.65,3.49,15.59,3.21,23.61,2.11,8.68-1.2,16.93-4.06,24.68-7.96,4.28-2.15,8.7-4.55,11.35-9.09,8.6-14.73,20.58-24.84,38.09-26.9,8.74-1.03,17.49-.42,25.26,4.04,13.15,7.55,20.17,19.37,21.19,34.36.83,12.26-2.8,23.69-8.15,34.64-1.15,2.36-3.35,4.2-3.94,7.32,20.85-13.26,32.11-32.6,38.28-55.4,3.89-14.37,4.58-29.15,4.76-43.89.18-15.25.07-30.51-.34-45.78-.62-22.81-.25-45.65-1.46-68.47-.45-8.46-.61-16.92-1.43-25.38-1.33-13.85-3.43-27.56-6.9-41.04-2.48-9.64-5.19-19.25-9.29-28.29-8.08-17.82-18.34-34.32-31.47-48.96-9.78-10.9-20.78-20.39-32.83-28.63-9.57-6.54-19.71-12.17-30.59-16.24-5.43-2.04-10.68-4.81-16.61-5.38-4.52-1.17-8.99-2.56-13.56-3.48-16.09-3.26-32.17-6.54-47.8-11.73-3.72-1.24-7.68-1.79-11.52-2.65-1.39.16-3.09-1.72-4.06-.07-1.13,1.93,1.03,2.99,2.11,4.19,2.43,2.71,5.54,4.84,7.34,8.08.84,1.52,2.6,3.04,1.08,5.13-8.4-1.61-16.33-5.07-24.86-6.19-8.27-1.09-16.51-2.45-24.85-.78-1.29.26-2.81.15-3.17,1.93-1.43,1.23-1.38,1.16.47,2.27,9.98,5.97,20.92,9.7,31.81,13.56,2.11.75,4.21,1.49,5.51,3.5-12.17,1.13-23.61,4.74-34.42,10.35-25.87,13.44-46.02,32.81-59.87,58.52-4.89,9.08-9.41,18.39-11.33,28.67-2.58,5.36-3.34,11.18-4.17,16.96-2.48,17.28-.26,33.86,7.64,49.55-.1.36.05.53.41.55ZM448.82,401.71c-.58-.11-.63.38-.82.72-3.1,5.98-5.69,12.24-9.58,17.8-1.42,2.03-.83,3.07,1.78,3.08,10.21.04,20.42.09,30.63.4,8.82.26,17.66-.33,26.49-.36,9.87-.03,19.73-.24,29.44-2.18,17.36-3.47,32.74-10.6,43.84-24.95,7.83-10.12,13.09-21.28,11.77-34.59-.16-.89-.43-1.77-.47-2.66-.29-6.22-2.89-11.44-6.88-16.07-.52-1.86-2.01-2.85-3.45-3.88-4.79-4.42-10.22-7.7-16.61-9.24-1.27-.72-2.61-1.16-4.09-1.07-5.02-1.09-10.08-1.44-15.19-.74-2.08-.06-4.18-.38-6.21.36-8.38.83-16.14,3.69-23.71,7.19l-8.06,4.02c-1.18.03-1.73,1.08-2.61,1.6-2.67.45-4.9,1.78-6.98,3.43-3.44,1.07-6.12,3.43-9.05,5.38-1.16.9-2.32,1.8-3.48,2.69-4.82,2.84-9.26,6.24-13.64,9.69-1.84,1.45-4.07,2.57-5.1,4.89-1.07,2.05-.23,4.37-.94,6.47-1.75,8.87-3.93,17.63-7.06,26.13-.23.63-.55,1.28-.1,1.96l.07-.06ZM146.48,324.81c.85.32,1.67.8,2.54.94,7.46,1.22,14.69,3.4,22,5.25,6.09,1.54,12.19,3.05,18.3,4.51.66.16,1.59,1.02,2.06-.17.36-.92-.49-1.48-1.1-1.95-2.26-1.76-4.54-3.49-6.85-5.18-6.19-4.54-11.88-9.65-20.66-8.92-5.83.49-11.81-.79-17.72-1.28-5.39-1.6-5.66-1.39-5.22,3.27.12,1.25.61,1.84,1.72,2.14,1.64.44,3.28.92,4.92,1.38ZM398.71,424.02c2.4-3.66,3.66-7.76,4.56-12,1.32-5,1.53-10.11,1.28-15.24-.51-10.4-4.03-19.26-13.32-24.92-6.65-4.05-13.8-5.75-21.54-3.75-12.57,1.91-21.35,9.11-27.62,19.8-1.63,1.2-2.24,3.09-3.11,4.78-5.52,10.67-8.66,22.05-9.89,33.97-.86,5.06.61,9.96,1.03,14.93-9.09-2.27-18.19-4.55-27.28-6.82-.26-.03-.53-.06-.79-.08-.95-.13-1.9-.25-2.85-.38-2.39-1.42-5.17-1.52-7.76-2.25-9.29-2.63-18.9-4.04-28.09-7.06-2.11-2.69-5.39-3.66-8.09-5.48-1.05-.7-2.57-2.07-3.62-.84-.85,1.01.34,2.53,1.09,3.66.06.09.18.14.27.2,2.2,8.25,5.59,16.09,8.42,24.13.6,2.35,1.25,4.69,2.64,6.74l3.64,10.43c.44,2.2,1.06,4.32,2.35,6.19.76,2.4,1.67,4.77,2.24,7.21.85,3.64-.53,6.65-3.14,7.43-2.94.88-5.27-.55-6.69-4.32-1.9-5.08-3.65-10.21-5.51-15.3-8.68-23.71-17.36-47.43-26.07-71.13-1.4-3.82-3.21-7.51-4.54-11.31-1.78-5.04-3.38-10.14-5.56-15.03-3.37-8.96-9.51-15.23-18.73-17.79-17.8-4.94-35.68-9.59-53.56-14.21-19.34-4.99-38.74-9.77-58.09-14.72-21.04-5.38-42.02-11-63.1-16.25-11.05-2.75-18.83,5.72-15.79,16.71.93,3.36,2.47,6.39,4.26,9.34.28.74.5,1.51.84,2.22,7.82,16.09,15.64,32.18,23.49,48.26,9.17,18.77,18.39,37.51,27.53,56.3,2.82,5.81,7.09,9.59,13.4,11.41,24.62,7.1,49.18,14.41,73.78,21.58,31.68,9.22,63.42,18.22,95.03,27.65,11.72,3.49,23.04,3.8,34.8.16,33.62-10.43,67.36-20.47,101.05-30.67,2.09-.63,4.16-1.38,5.87-2.78,2.85-2.33,3.11-5.77.7-8.63-.78-1.12-2.04-1.58-3.23-1.77-3.05-.49-6.13-.75-9.2-1.1,1.2-1.51,2.38-3.04,3.6-4.53,5.65-6.91,10.89-14.08,14.34-22.4-.19-.99.83-1.47.98-2.31ZM177.94,167.33c-7.25,4.01-11.82,10.09-13.99,18.04-1.88,4.3-1.99,8.86-1.98,13.44.02,6.99.29,14.05-1.79,20.81-4.66,15.17-15.45,23.59-30.59,26.95-7.71,1.71-15.78,1.51-23.29,4.25-7.38,2.69-13.3,7.06-16.1,14.79-1.82,2.68-1.43,5.71-1.4,8.69-.31,5.44,2.33,9.75,5.62,13.63,5.84,6.89,13.65,10.71,22.13,13.27,12.66,3.82,25.59,6.02,38.79,7.22,16.09,1.46,32.05,1.06,48.05-.77,11.31-1.3,22.43-3.48,33.38-6.52,12.52-3.48,24.75-7.81,35.59-15.2,5-3.41,9.65-7.36,12.98-12.57,2.96-4.66,6.39-9.11,6.9-14.9,1.32-2.28,1.1-4.82,1.03-7.26-.29-9.46-5.53-16.98-13.39-19.47-5.26-2.61-10.69-1.97-16.13-.8-5.75,1.24-7.19.61-9.84-4.71-.76-1.52-1.36-3.16-1.79-4.81-1.97-7.58-2.21-15.39-2.74-23.15-.68-9.96-4-18.72-11.66-25.48-11.1-11.28-24.74-14.39-39.96-12.43-6.64.9-13.19,2.05-18.71,6.28-.36.24-.73.47-1.09.71Z"/>
  <path class="cls-2" d="M61.95,448.63c.32.11.76.13.96.36,5.69,6.65,13.55,9.07,21.57,11.39,54.92,15.9,109.82,31.85,164.68,47.94,12.06,3.54,23.84,3.68,35.9,0,34.04-10.36,68.17-20.45,102.24-30.7,2.74-.82,5.48-1.79,8.02-3.08,8.82-4.46,11.37-11.56,8.4-20.75-.59-1.84-.42-2.48,1.27-3.39,7.19-3.87,13.95-8.41,19.95-13.98,1.74-1.61,3.53-2.2,5.87-2.2,23.67.06,47.34-.1,71.01.06,12.49.09,24.7-1.4,36.68-4.89,4.4,1.59,8.84,3.08,13.18,4.8,3.61,1.43,7.21,3.01,9.62,6.29,2.72,3.7,2.63,6.75-.44,10.17-3.51,3.9-7.84,6.66-12.81,8.37-15.32,5.28-31.18,8.45-46.91,12.09-19.52,4.52-39.06,8.94-58.62,13.29-23.14,5.15-46.31,10.15-69.44,15.3-17.55,3.91-35.07,8-52.62,11.91-14.75,3.29-29.48,6.69-44.41,9.03-10.39,1.63-20.8,1.06-31.15-.55-16.53-2.56-32.86-6.15-49.19-9.71-18.46-4.03-36.85-8.34-55.26-12.6-26.65-6.17-53.29-12.43-79.94-18.61-8.71-2.02-17.43-3.99-25.97-6.63-2.29-.71-4.56-1.65-6.62-2.85-5.19-3.04-5.13-7.94.16-10.97,2.56-1.47,5.29-2.8,8.1-3.68,6.94-2.18,13.95-4.21,21.22-5,1.67-.18,3.08-.77,4.53-1.42Z"/>
  <path class="cls-6" d="M234.83,43.84c-1.3-2.01-3.4-2.75-5.51-3.5-10.88-3.86-21.82-7.59-31.81-13.56-1.86-1.11-1.9-1.04-.47-2.27,1.5-.29,2.95-.01,4.41.31,11.38,2.52,22.72,5.31,34.28,6.9,8.19,1.13,16.42,1.87,24.8,1.11-3.54-1.09-7.07-2.19-10.61-3.28,1.53-2.09-.23-3.62-1.08-5.13-1.8-3.24-4.9-5.37-7.34-8.08-1.08-1.2-3.24-2.26-2.11-4.19.97-1.65,2.67.23,4.06.08.19.74.77,1.05,1.39,1.4,9.23,5.17,18.78,9.56,29.25,11.57,13.16,2.52,26.65,2.74,39.78,5.49.82.17,1.85.51,2.45-.58,5.93.57,11.17,3.34,16.61,5.38,10.87,4.08,21.02,9.7,30.59,16.24,12.05,8.24,23.05,17.72,32.83,28.63,13.13,14.64,23.39,31.13,31.47,48.96,4.1,9.04,6.81,18.66,9.29,28.29,3.47,13.48,5.57,27.18,6.9,41.04.81,8.45.98,16.92,1.43,25.38,1.2,22.81.83,45.65,1.46,68.47.42,15.27.52,30.53.34,45.78-.17,14.75-.87,29.52-4.76,43.89-6.17,22.8-17.43,42.14-38.28,55.4.59-3.12,2.78-4.95,3.94-7.32,5.35-10.95,8.98-22.39,8.15-34.64-1.02-14.99-8.03-26.81-21.19-34.36-7.77-4.46-16.51-5.07-25.26-4.04-17.51,2.06-29.49,12.17-38.09,26.9-2.65,4.53-7.07,6.94-11.35,9.09-7.76,3.89-16,6.76-24.68,7.96-8.01,1.1-15.96,1.38-23.61-2.11-5.67-2.58-10.26-9.17-10.07-14.77,1.4-2.37,2.5-5.07,4.8-6.64,5.68-3.86,9.64-9.2,13.82-14.5,10.73-13.6,22.7-26.16,34.16-39.14,3.57-4.04,7.24-8.04,9.91-12.84-4.53,2.74-7.83,7.01-12.46,9.53-.85-3.15,1.03-6.28.25-9.67-6.13,2.65-10.79,7.02-15.77,10.91-4.87,3.8-10.03,7.37-14.31,11.77-4.36,4.49-8.98,8.72-13.19,13.32-4.75,5.2-9.25,10.61-13.12,16.57-9.42,14.51-7.24,37.52,11.87,45.78,9.47,4.09,19.31,4.35,29.33,2.64,7.22-1.23,14.33-2.89,21.15-5.65.88-.36,1.86-.71,2.64-.18,1.02.68.18,1.72,0,2.52-1.12,5.26-2.2,10.53-2.69,15.88-.23,2.45-1.81,2.14-3.19,1.79-8.18-2.06-16.25-4.58-24.5-6.3-7.84-1.63-15.62-3.46-23.16-6.05-5.07-1.74-10-4.5-15.28-4.82-5.16-.32-6.04-3.52-7.33-7.09-4.91-13.52-9.6-27.14-14.92-40.5-2.27-5.72-5.96-11.03-11.38-14.28-4.89-2.94-7.47-7.64-10.77-11.8-4.14-5.22-8.63-10-14.13-13.81-.71-.49-1.23-1.26-2.09-2.17,6.42-.86,12.46-1.78,18.53-2.46,12.53-1.4,24.78-4.05,36.73-8.08,7.69-2.59,15.31-5.29,22.58-8.98,11.59-5.87,21.63-13.78,28.11-24.94,6.4-11.01,9.49-23.28,4.16-35.8-5.24-12.3-16.16-20.92-31.11-18.39-7.18,1.22-7.68.54-8.84-6.49-1.31-7.92-1.08-15.98-2.57-23.88-2.2-11.7-8.12-21.09-17.19-28.53-14.59-11.97-31.38-14.56-49.54-11.47-6.67,1.13-12.81,3.33-18.47,6.98-.76.49-1.58.97-2.58.78-2.55-6.1-5.01-12.2-9.72-17.15-7.66-8.06-18.54-10.08-26.62-4.64-1.04-.48-.88-1.14-.35-1.93.77-1.14,1.53-2.28,2.19-3.49,5.65-10.36,12.16-20.08,22.1-26.82,10.92-7.4,20.54-16.14,28.86-26.32,4.44-5.45,9.29-10.43,14.91-14.68,9.58-7.24,20.07-12.84,31.03-17.64.65-.28,2.13-.39.91-1.75ZM354.95,189.37l.02-.09c1.13-2.98.84-6.12.9-9.19.54-25.89-15.88-42.92-34.55-48.44-24.1-7.13-47.47,5.71-55.34,29.77-2.93,8.95-3.18,18.07-1.25,27.27.14.45.28.89.42,1.34-.6,1.25-.81,2.4.78,3.11,4.03,16.32,15.28,26.34,30.01,32.39,8.28,3.4,17.38,3.44,26.35,1.06,15.74-4.17,30.08-19.28,32.12-34.3.49-.91.69-1.88.53-2.91Z"/>
  <path class="cls-5" d="M267.67,463.84c-1.21-3.48-2.43-6.95-3.64-10.43,13.91,3.31,27.85,6.5,41.71,9.98,5.32,1.34,10.4,1.26,15.48-.67.89-.34,2.42-.22,2.33-1.56-.08-1.21-1.49-.7-2.3-.89-1.55-.37-3.15-.54-4.71-.88-18.42-4.08-36.6-9.18-55.15-12.72-2.82-8.04-6.22-15.87-8.42-24.13,3.37,1.15,6.73,2.35,10.35,2.45,9.2,3.03,18.8,4.43,28.09,7.06,2.59.73,5.37.83,7.76,2.25-.57,1.08-1.61,1.06-2.64,1.28-2.56.53-5.23.76-7.5,2.28-.63.42-1.63.64-1.32,1.72.24.85,1.09.64,1.74.78,19.65,4.41,38.98,10.15,58.77,13.96,1.72.33,3.86.73,4.01,3.11.16,2.48-2.12,2.45-3.63,2.9-18.78,5.59-37.59,11.08-56.37,16.64-5.05,1.5-10.06,3.16-15.08,4.79-1.93.63-3.18,1.76-2.66,4.09.93,4.18,4.03,6.21,8.2,5.08,2.98-.8,5.85-1.97,8.81-2.86,29.63-8.9,59.27-17.76,88.89-26.68,4.15-1.25,8.23-2.73,11.83-5.25,2.4,2.86,2.15,6.31-.7,8.63-1.72,1.4-3.78,2.15-5.87,2.78-33.69,10.2-67.43,20.25-101.05,30.67-11.76,3.65-23.08,3.34-34.8-.16-31.61-9.43-63.36-18.43-95.03-27.65-24.6-7.16-49.16-14.48-73.78-21.58-6.31-1.82-10.57-5.6-13.4-11.41-9.13-18.79-18.36-37.53-27.53-56.3-7.85-16.08-15.67-32.17-23.49-48.26-.34-.71-.56-1.48-.84-2.22,1.42-.59.59-2.79,1.88-3.1,3.54-.86,7.2-1.63,10.82-.74,14.09,3.48,28.16,7.07,42.23,10.63,11.95,3.02,23.89,6.07,35.85,9.08,14.59,3.68,29.19,7.34,43.79,11.01,10.29,2.59,20.59,5.17,30.88,7.76,5.32,1.34,10.73,2.42,15.93,4.13,3.34,1.1,6.36,3.51,9.67.12.19-.19.9-.01,1.3.15,2.46.98,4.23-.51,5.24-2.16,1.45-2.35,2.69-1.67,4.5-.74.82.42,1.39,2.78,2.91.77,2.19,4.89,3.79,9.99,5.56,15.03,1.34,3.8,3.14,7.49,4.54,11.31,8.71,23.7,17.39,47.41,26.07,71.13,1.86,5.09,3.61,10.23,5.51,15.3,1.41,3.77,3.75,5.2,6.69,4.32,2.61-.78,3.98-3.79,3.14-7.43-.57-2.44-1.48-4.81-2.24-7.21,1.86.53,3.75.99,5.58,1.61,6.15,2.06,12.25,2.48,18.33-.25.75-.34,1.56-.57,1.59-1.55.03-1.15-.94-1.11-1.7-1.25-2.01-.37-4.02-.78-6.04-1.06-6.76-.95-13.28-3.21-20.12-3.69ZM138.87,426.58c7.68.02,9.85-2.22,10.01-8.48.31-11.83-11.7-25.05-21.48-28.07-3.7-1.14-7.26-1.2-10.74,1.36-3.46,2.55-3.02,9.75-1.4,14.08,2.05,5.49,6.05,9.59,9.94,13.85,4.18,4.58,9.38,6.36,13.68,7.25ZM284.8,441.02c.48-.16,1.4.27,1.6-.65.19-.88-.62-1.11-1.29-1.26-8.38-1.83-16.77-3.66-25.15-5.48-.66-.14-1.56-.39-1.82.37-.37,1.05.65,1.35,1.39,1.54,8.33,2.08,16.7,3.95,25.28,5.47Z"/>
  <path class="cls-4" d="M237.7,172.77c7.67,6.77,10.98,15.52,11.66,25.48.53,7.76.77,15.56,2.74,23.15.43,1.65,1.03,3.29,1.79,4.81,2.65,5.32,4.09,5.95,9.84,4.71,5.44-1.17,10.87-1.82,16.13.8.34,2.92,2.71,5.11,2.9,8.09.03.47.31,1.02.74.73.34-.24.33-.97.48-1.48,0,0,.25-.11.25-.11.4,2.86,1.9,4.66,4.87,5.05,1.08.14,1.42.76,1.96,1.8,2.15,4.13.8,8.45,1.17,12.66-.51,5.8-3.93,10.24-6.9,14.9-2.77-2.38-2.77-3.46-.19-5.83.69-.64,1.86-1.2,1.39-2.5-.25-.7-.86-1.18-1.61-1.01-4.34.97-8.87,2.18-12.14,5.03-11.85,10.34-26.27,14.75-40.97,18.45-13.46,3.39-27.24,4.86-41.1,5.74-20.81,1.32-41.51.63-62.01-3.08-14.28-2.59-28.71-5.27-39.9-15.85-.04-2.98-.42-6.01,1.39-8.69,1.49-.81,2.71-1.56,4.77-.71,2.66,1.11,11.49-2.9,11.71-5.51.41-4.62,3.46-3.51,6.06-3.83,6.89-.84,13.92-1.21,20.56-3.23,10.32-3.14,19.36-8.3,26.09-17.25,7.22-9.59,8.83-20.2,6.65-31.48-1.17-6.07-2.71-12-2.1-18.23,2.17-7.95,6.74-14.03,13.99-18.04.16,1.43-.5,2.35-1.71,3.07-.91.54-1.77,1.6-1.3,2.53.55,1.09,1.83.45,2.77.19,7.13-1.94,14.2-4.17,21.57-5.14,1.27-.17,3.13-.09,3.19-1.91.07-2.1-2.04-2.11-3.43-2.71-.4-.17-.9-.13-1.36-.13-5.06-.02-10.04.46-14.69,2.67-1.26.6-2.52,1.11-3.95.72,5.52-4.22,12.08-5.38,18.71-6.28,5.59,1.08,11.28,1.74,16.55,4.11.72.32,1.43.88,2.27.5,3.12-1.41,5.97-.43,8.93.73,4.26,1.68,7.55,4.52,10.55,7.87.9,1,1.3-.1,1.68-.79ZM226.28,281.34c2.49.03,4.73-.93,6.99-1.72,14.13-4.9,25.93-13.1,35.18-24.88,3.02-3.85,3.16-7.36.46-9.46-2.68-2.09-5.39-1.16-8.54,2.87-4.79,6.12-10.7,10.99-17.19,15.2-5.82,3.78-12.27,6.18-18.69,8.67-2.47.96-3.6,2.8-3.1,5.43.5,2.65,2.28,3.84,4.89,3.9ZM214.19,207.74c-.04,3.35,1.85,5.62,4.65,5.58,3.47-.06,6.42-3.29,6.49-7.12.05-2.89-1.95-5.03-4.8-5.14-3.38-.13-6.28,2.94-6.33,6.69ZM181.79,205.37c.05-3.81-2.41-6.76-5.7-6.83-2.61-.06-4.73,2.27-4.73,5.21,0,3.69,2.6,6.99,5.59,7.06,2.85.07,4.8-2.13,4.85-5.44ZM285.88,262.08c-.08.18-.26.41-.21.54.05.13.34.17.52.25.08-.18.26-.41.21-.54-.05-.13-.34-.17-.53-.25Z"/>
  <path class="cls-1" d="M220.74,367.58c-1.52,2-2.09-.35-2.91-.77-1.81-.93-3.05-1.61-4.5.74-1.02,1.65-2.79,3.14-5.24,2.16-.41-.16-1.11-.35-1.3-.15-3.32,3.39-6.33.98-9.67-.12-5.2-1.71-10.61-2.79-15.93-4.13-10.29-2.59-20.58-5.18-30.88-7.76-14.6-3.67-29.2-7.33-43.79-11.01-11.95-3.01-23.9-6.06-35.85-9.08-14.07-3.56-28.14-7.15-42.23-10.63-3.63-.9-7.28-.12-10.82.74-1.29.31-.47,2.51-1.88,3.1-1.79-2.95-3.33-5.98-4.26-9.34-3.04-10.99,4.74-19.47,15.79-16.71,21.07,5.25,42.06,10.86,63.1,16.25,19.35,4.95,38.75,9.73,58.09,14.72,17.88,4.62,35.76,9.27,53.56,14.21,9.23,2.56,15.36,8.83,18.73,17.79Z"/>
  <path class="cls-6" d="M455.91,373.68c.71-2.1-.12-4.43.94-6.47-.23,2.11.65,3.46,2.65,4.25,2.24.88,4.46,1.83,6.59,2.93,2.02,1.05,3.38.66,4.6-1.26,2.52-3.97,5.18-7.85,7.74-11.79,1.12-1.72,3.14-3.6,2.97-5.21-.24-2.26-3.65-1.67-5.25-3.1-.17-.15-.37-.27-.56-.4,1.16-.9,2.32-1.8,3.48-2.69,1.75.97,4,2.36,5.48.91,1.64-1.6,3.33-3.66,3.57-6.29,2.08-1.64,4.31-2.98,6.98-3.43-1.22,3.62-3.57,6.62-5.5,9.84-.93,1.54-.84,2.29.99,2.99,7.17,2.72,14.3,5.56,21.43,8.39,1.75.7,3.01.48,3.96-1.36,2.14-4.17,4.36-8.31,6.65-12.4,1-1.78.57-2.81-1.29-3.31-7.82-2.12-15.49-4.9-23.62-5.74,2.69-1.34,5.37-2.68,8.06-4.02.17.29.28.77.51.84,5.87,1.79,11.76,3.56,17.65,5.29,1.06.31,1.75-.23,2.13-1.21,1.42-3.6,2.85-7.2,4.23-10.82.25-.66-.3-1.01-.81-1.3,2.03-.73,4.13-.42,6.21-.36-.92,4.64-3.11,8.81-4.95,13.1-.59,1.37-1.18,2.43.89,3.14,4.43,1.52,8.78,3.25,13.17,4.88,1.08.4,2.18.42,2.46-.93,1.35-6.45,3.91-12.68,3.62-19.44,1.48-.09,2.82.35,4.09,1.07-.35,6.43-1.81,12.65-3.68,18.78-.5,1.63-.34,2.58,1.38,3.14,4.12,1.35,8.23,2.76,12.33,4.17.97.33,1.93.49,2.21-.73,1.24-5.44,3.97-10.47,4.37-16.13,1.44,1.03,2.94,2.03,3.45,3.88-1.31,4.23-2.58,8.47-3.94,12.68-.39,1.21-.16,2,1.02,2.47,3.37,1.35,6.54,3.28,10.27,3.59,1.33,13.31-3.94,24.48-11.77,34.59-11.1,14.35-26.48,21.47-43.84,24.95-9.72,1.95-19.57,2.16-29.44,2.18-8.83.02-17.67.62-26.49.36-10.21-.3-20.42-.35-30.63-.4-2.61-.01-3.19-1.05-1.78-3.08,3.89-5.57,6.48-11.82,9.58-17.8.27-.24.55-.48.82-.72,0,0-.07.06-.07.06,5.25-6.64,10.47-13.3,15.76-19.91,1.95-2.44,1.6-3.88-1.41-4.98-2.46-.89-5.01-1.67-7.19-3.21ZM445.46,411c10.37,1.21,20.33,1.11,30.29.92,1.76-.03,2.97-1.09,4.07-2.3,4.24-4.65,8.41-9.38,12.74-13.94,2.04-2.14,2.14-3.34-.84-4.64-6.62-2.89-13.33-5.64-19.57-9.32-1.43-.84-1.95-.1-2.73.87-6.17,7.69-11.84,15.79-18.9,22.74-1.7,1.67-3.64,3.15-5.06,5.65ZM512.23,367.67c.1-1.44-1.13-1.52-2.01-1.92-7.11-3.22-14.54-5.59-21.84-8.32-1.7-.64-2.4-.13-3.26,1.24-3.44,5.55-6.89,11.11-10.58,16.5-1.47,2.15-.92,3.09,1.07,4.18,6.35,3.47,13.06,6.17,19.56,9.33,1.65.8,2.6.54,3.66-1.02,3.72-5.51,7.62-10.89,11.4-16.36.78-1.12,1.33-2.4,1.99-3.63ZM518.01,368.72c-1.62-.24-1.84.99-2.38,1.79-4.24,6.38-8.07,13.04-12.88,19.02-1.39,1.73-.7,2.55,1.07,3.21,4.5,1.68,8.99,3.39,13.45,5.17,1.44.57,2.24.17,3.19-.98,4.97-6.01,9.24-12.51,13.33-19.13.57-.92,1.16-1.98-.11-2.66-5.06-2.72-10.61-4.25-15.67-6.43ZM532.27,403.16c4.14-1.68,8.65-2.03,11.65-5.79,3.36-4.21,6.2-8.75,8.98-13.34.74-1.22.87-1.95-.79-2.5-4.02-1.33-7.99-2.78-11.95-4.27-1.08-.4-1.75-.16-2.27.79-4.01,7.25-9.02,13.79-14.18,20.24-.43.54-.91,1.37-.04,1.72,2.85,1.15,5.78,2.13,8.6,3.15ZM529.3,347.84c-1.47-.36-2.11.42-2.62,1.63-1.92,4.55-4.18,8.95-6.76,13.15-1,1.62-.66,2.46.98,3.11,4.48,1.78,8.96,3.56,13.41,5.39,1.82.75,3.02.38,3.84-1.51,1.97-4.52,3.99-9.02,6.07-13.49.79-1.71.54-2.89-1.27-3.53-4.54-1.6-9.1-3.17-13.65-4.76ZM550.44,355c-1.56-.29-1.78.59-2.09,1.3-2.19,5.05-4.3,10.13-6.59,15.14-.72,1.57-.4,2.27,1.15,2.82,3.78,1.34,7.56,2.71,11.28,4.21,1.7.68,2.25-.33,2.92-1.46,2.79-4.76,4.96-9.82,7.07-14.91.35-.85.96-1.96-.21-2.39-4.62-1.71-9.3-3.25-13.53-4.7ZM484.32,410.65c7.69.34,14.79-.86,21.96-1.54,4.16-.4,6.54-2.66,8.91-5.55,1.5-1.82,1.21-2.71-.99-3.29-4.76-1.27-9.42-2.85-13.86-5-1.19-.58-1.99-.34-2.93.74-4.18,4.83-8.5,9.54-13.09,14.64ZM566.96,382.75c.61-.21,1.27-.25,1.65-.6,4.74-4.32,9.41-8.72,12.97-14.12.89-1.36.48-2.3-1.15-2.81-3.27-1.02-6.52-2.13-9.76-3.25-1.23-.42-2.23-.55-2.68,1.03-1.44,5.14-4.29,9.59-6.9,14.16-.54.94-1.52,2.19-.1,2.99,1.88,1.06,3.97,1.75,5.97,2.59ZM548.43,396.6c5.09-2.09,9.76-4.66,13.78-8.29.74-.67,2.24-1.22,1.75-2.25-.85-1.82-3.03-1.75-4.71-2.34-.82-.29-1.71-.84-2.34.41-2.27,4.52-5.75,8.19-8.49,12.47ZM516.87,406.75c3.54-.76,6.5-.59,9.37-1.72-5.06-3.3-5.2-3.28-9.37,1.72Z"/>
  <path class="cls-4" d="M369.69,368.11c7.75-2,14.89-.31,21.54,3.75,9.29,5.67,12.81,14.52,13.32,24.92.25,5.13.04,10.23-1.28,15.24-.82.08-.83-2.03-1.36-1.04-1.29,2.4-3.27,1.69-5.1,1.75-1.31.05-2.55.14-3.36,1.32-2.34,3.38-5.06,5.9-9.66,5.13-1.29-.22-1.16,1.13-1.21,2.01-.15,3.05-3.11,4.99-4.68,4.36-3.88-1.56-4.44,1.08-5.79,3.13-.1.16-.37.21-.56.31-1.06-.45.42-1.56-.58-2.05-1.6.34-1.11,2.32-2.4,3.02-8.01,4.37-16.06,8.14-25.66,7.2-8.68-.85-13.04-3.82-13.86-10.49,1.23-11.93,4.37-23.3,9.89-33.98.87-1.68,1.47-3.58,3.11-4.78,2.31.74.92,2.69,1.31,4.06.26.92-.31,2.19,1.02,2.63,1.18.4,1.88-.61,2.72-1.14.94-.58,1.19-1.6,1.63-2.54,2.72-5.82,7.03-9.98,12.79-12.95,5.8-2.99,11.89-2.62,18.04-2.59,1.09,0,2.87.79,3.18-.86.24-1.25-.76-2.34-2.02-3.27-3.34-2.48-7.27-2.44-11.05-3.15Z"/>
  <path class="cls-6" d="M88.81,274.3c11.19,10.58,25.61,13.26,39.9,15.85,20.5,3.71,41.2,4.4,62.01,3.08,13.86-.88,27.64-2.35,41.1-5.74,14.7-3.7,29.13-8.11,40.97-18.45,3.27-2.85,7.8-4.06,12.14-5.03.74-.17,1.36.31,1.61,1.01.47,1.31-.7,1.87-1.39,2.5-2.58,2.37-2.58,3.45.19,5.83-3.33,5.22-7.97,9.16-12.97,12.57-10.83,7.39-23.06,11.72-35.59,15.2-10.95,3.04-22.07,5.23-33.38,6.52-16,1.83-31.97,2.23-48.05.77-13.2-1.2-26.12-3.4-38.79-7.22-8.48-2.56-16.28-6.38-22.13-13.27-3.29-3.88-5.93-8.19-5.62-13.63Z"/>
  <path class="cls-1" d="M392.23,456.15c-3.6,2.52-7.68,4-11.83,5.25-29.62,8.91-59.26,17.78-88.89,26.68-2.96.89-5.83,2.05-8.81,2.86-4.18,1.13-7.27-.9-8.2-5.08-.52-2.33.73-3.46,2.66-4.09,5.01-1.64,10.02-3.29,15.08-4.79,18.78-5.57,37.59-11.06,56.37-16.64,1.5-.45,3.78-.42,3.63-2.9-.15-2.38-2.29-2.78-4.01-3.11-19.79-3.81-39.12-9.55-58.77-13.96-.64-.14-1.5.06-1.74-.78-.31-1.07.69-1.29,1.32-1.72,2.27-1.52,4.94-1.75,7.5-2.28,1.03-.21,2.07-.2,2.64-1.28.95.13,1.9.25,2.85.38.26.03.53.06.79.08,9.09,2.27,18.19,4.55,27.28,6.82,4.22.99,8.45,1.98,12.67,2.97,12.34,2.9,24.69,5.8,37.03,8.71,3.07.35,6.16.61,9.2,1.1,1.19.19,2.45.65,3.23,1.77Z"/>
  <path class="cls-2" d="M234.83,43.84c1.22,1.36-.27,1.47-.91,1.75-10.96,4.8-21.45,10.41-31.03,17.64-5.63,4.25-10.47,9.23-14.91,14.68-8.32,10.19-17.94,18.93-28.86,26.32-9.94,6.73-16.46,16.45-22.1,26.82-.66,1.2-1.42,2.35-2.19,3.49-.53.8-.69,1.45.35,1.93-1.76,1.91-3.35,4.03-5.97,4.91,1.93-10.29,6.44-19.59,11.33-28.67,13.85-25.71,34.01-45.07,59.87-58.52,10.8-5.62,22.25-9.22,34.42-10.35Z"/>
  <path class="cls-5" d="M129.2,141.38c2.61-.88,4.21-2.99,5.97-4.91,8.08-5.45,18.96-3.42,26.62,4.64,4.71,4.95,7.16,11.05,9.72,17.15-2.78,2.61-5.57,5.23-8.54,8.02-.89-4.16-2.33-8.11-5.26-11.34.93-.13,1.65-.47,1.04-1.55-2.32-4.08-8.22-7.44-12.28-6.57-10.84,2.33-17.84,8.9-19.98,19.58-1.8,8.96-3.42,7.5,6.4,10.53,1.07.33,2.22.43,3.34.63.15,6.59,1.07,13,4.18,18.96,2.13,4.08,4.85,7.51,9.16,9.41,1.05.46,1.8.98,1.66,2.25-.35,3.17-.23,6.42-1.61,9.41-6.5-1.08-11.55-4.8-16.36-8.97,0,0-.14-.19-.14-.19-.14-.18-.27-.37-.41-.55-7.9-15.69-10.12-32.27-7.64-49.55.83-5.78,1.59-11.6,4.17-16.96Z"/>
  <path class="cls-6" d="M379.79,453.27c-12.34-2.9-24.69-5.81-37.03-8.71-4.22-.99-8.45-1.98-12.67-2.97-.41-4.97-1.88-9.87-1.03-14.92.81,6.67,5.18,9.65,13.85,10.5,9.6.94,17.65-2.83,25.66-7.2,1.29-.71.8-2.69,2.4-3.02.99.49-.49,1.59.58,2.05.18-.1.45-.15.56-.31,1.34-2.06,1.91-4.69,5.79-3.13,1.57.63,4.53-1.31,4.68-4.36.04-.88-.09-2.23,1.21-2.01,4.61.77,7.33-1.75,9.66-5.13.81-1.17,2.05-1.27,3.36-1.32,1.83-.07,3.81.64,5.1-1.75.53-.98.53,1.12,1.36,1.04-.89,4.24-2.15,8.34-4.55,12-.37-.4-.9-.97-1.28-.29-.47.83-.74,1.85.3,2.61-3.45,8.32-8.69,15.49-14.34,22.4-1.22,1.49-2.4,3.02-3.6,4.53Z"/>
  <path class="cls-1" d="M163.95,185.37c-.61,6.23.93,12.16,2.1,18.23,2.18,11.27.57,21.89-6.65,31.48-6.74,8.95-15.78,14.11-26.09,17.25-6.64,2.02-13.67,2.39-20.56,3.23-2.6.32-5.65-.79-6.06,3.83-.23,2.61-9.06,6.61-11.71,5.51-2.06-.85-3.27-.11-4.77.71,2.8-7.73,8.72-12.1,16.1-14.79,7.51-2.74,15.58-2.54,23.29-4.25,15.14-3.36,25.92-11.78,30.59-26.95,2.08-6.76,1.81-13.82,1.79-20.81-.02-4.57.1-9.14,1.98-13.44Z"/>
  <path class="cls-2" d="M312.3,320.66c4.63-2.53,7.93-6.79,12.46-9.53-2.67,4.8-6.34,8.8-9.91,12.84-11.46,12.99-23.42,25.54-34.16,39.14-4.18,5.3-8.15,10.64-13.82,14.5-2.31,1.57-3.41,4.27-4.8,6.64-.84-9.35,3.79-16.54,9.29-23.34,10.87-13.47,23.93-24.72,36.74-36.23,1.44-1.3,2.81-2.68,4.22-4.02Z"/>
  <path class="cls-4" d="M497.7,339.53c8.13.84,15.8,3.61,23.62,5.74,1.86.5,2.28,1.54,1.29,3.31-2.29,4.09-4.51,8.23-6.65,12.4-.94,1.84-2.2,2.06-3.96,1.36-7.13-2.83-14.25-5.67-21.43-8.39-1.82-.69-1.91-1.44-.99-2.99,1.93-3.22,4.28-6.22,5.5-9.84.87-.53,1.43-1.57,2.61-1.6Z"/>
  <path class="cls-1" d="M136.21,177.56c-1.11-.21-2.26-.3-3.34-.63-9.82-3.03-8.19-1.56-6.4-10.53,2.14-10.68,9.14-17.25,19.98-19.58,4.07-.87,9.96,2.49,12.28,6.57.61,1.07-.1,1.42-1.04,1.55-4.99-2.59-8.88-2.15-13.16,1.6-5.32,4.66-7.19,10.91-8.04,17.62-.14,1.13-.2,2.27-.3,3.4Z"/>
  <path class="cls-1" d="M261.39,446.67c18.54,3.54,36.73,8.63,55.15,12.72,1.56.35,3.16.52,4.71.88.81.19,2.22-.32,2.3.89.09,1.34-1.44,1.22-2.33,1.56-5.08,1.93-10.16,2.01-15.48.67-13.86-3.49-27.8-6.67-41.71-9.98-1.39-2.05-2.04-4.38-2.64-6.74Z"/>
  <path class="cls-6" d="M145.06,318.02c5.91.49,11.89,1.76,17.72,1.28,8.78-.73,14.47,4.38,20.66,8.92,2.31,1.69,4.59,3.42,6.85,5.18.61.47,1.46,1.03,1.1,1.95-.47,1.19-1.4.33-2.06.17-6.11-1.47-12.21-2.98-18.3-4.51-7.31-1.85-14.54-4.03-22-5.25-.87-.14-1.7-.62-2.54-.94.17-2.4-1.33-4.45-1.42-6.79Z"/>
  <path class="cls-4" d="M571.57,339.01c-.41,5.66-3.13,10.7-4.37,16.13-.28,1.22-1.25,1.06-2.21.73-4.1-1.41-8.21-2.82-12.33-4.17-1.72-.56-1.88-1.51-1.38-3.14,1.87-6.13,3.34-12.35,3.68-18.78,6.39,1.54,11.82,4.82,16.61,9.24Z"/>
  <path class="cls-1" d="M369.69,368.11c3.77.7,7.7.67,11.05,3.15,1.25.93,2.25,2.02,2.02,3.27-.31,1.65-2.09.87-3.18.86-6.14-.03-12.23-.4-18.04,2.59-5.75,2.97-10.06,7.12-12.79,12.95-.44.93-.7,1.95-1.63,2.54-.84.53-1.54,1.53-2.72,1.14-1.34-.45-.76-1.71-1.02-2.63-.39-1.36,1-3.32-1.31-4.06,6.28-10.69,15.06-17.89,27.62-19.8Z"/>
  <path class="cls-4" d="M550.87,328.71c.29,6.75-2.27,12.98-3.62,19.44-.28,1.35-1.38,1.34-2.46.93-4.39-1.63-8.74-3.35-13.17-4.88-2.07-.71-1.48-1.76-.89-3.14,1.85-4.29,4.03-8.46,4.95-13.1,5.11-.7,10.17-.34,15.19.74Z"/>
  <path class="cls-2" d="M249.93,29.55c3.54,1.09,7.07,2.19,10.61,3.28-8.37.76-16.61.02-24.8-1.11-11.56-1.59-22.9-4.38-34.28-6.9-1.47-.32-2.91-.61-4.41-.31.36-1.79,1.89-1.68,3.17-1.93,8.35-1.67,16.58-.3,24.85.78,8.53,1.12,16.46,4.58,24.86,6.19Z"/>
  <path class="cls-4" d="M475.6,352.63c.19.13.39.25.56.4,1.6,1.44,5.01.84,5.25,3.1.17,1.62-1.85,3.5-2.97,5.21-2.56,3.94-5.22,7.82-7.74,11.79-1.22,1.92-2.57,2.31-4.6,1.26-2.13-1.1-4.36-2.05-6.59-2.93-2-.79-2.88-2.14-2.65-4.25,1.03-2.32,3.27-3.44,5.1-4.89,4.38-3.45,8.82-6.85,13.64-9.69Z"/>
  <path class="cls-2" d="M316.35,30.09c-.6,1.09-1.63.75-2.45.58-13.14-2.75-26.62-2.97-39.78-5.49-10.47-2-20.02-6.4-29.25-11.57-.62-.35-1.2-.66-1.39-1.4,3.85.87,7.8,1.42,11.52,2.65,15.62,5.2,31.7,8.47,47.8,11.73,4.57.93,9.04,2.31,13.56,3.48Z"/>
  <path class="cls-4" d="M529.47,328.32c.51.29,1.06.64.81,1.3-1.38,3.62-2.81,7.22-4.23,10.82-.38.97-1.08,1.52-2.13,1.21-5.89-1.74-11.77-3.5-17.65-5.29-.23-.07-.34-.55-.51-.84,7.57-3.5,15.33-6.35,23.71-7.19Z"/>
  <path class="cls-4" d="M455.91,373.68c2.19,1.53,4.74,2.31,7.19,3.21,3,1.09,3.36,2.54,1.41,4.98-5.29,6.6-10.51,13.27-15.76,19.91-.45-.68-.13-1.33.1-1.96,3.13-8.5,5.31-17.26,7.06-26.13Z"/>
  <path class="cls-1" d="M267.67,463.84c6.84.48,13.36,2.74,20.12,3.69,2.02.29,4.03.69,6.04,1.06.76.14,1.73.1,1.7,1.25-.03.97-.84,1.21-1.59,1.55-6.08,2.73-12.18,2.31-18.33.25-1.83-.61-3.72-1.08-5.58-1.61-1.3-1.87-1.92-3.99-2.35-6.19Z"/>
  <path class="cls-1" d="M179.03,166.62c1.43.39,2.68-.12,3.95-.72,4.65-2.21,9.63-2.69,14.69-2.67.46,0,.96-.04,1.36.13,1.39.6,3.51.61,3.43,2.71-.06,1.81-1.92,1.74-3.19,1.91-7.37.97-14.43,3.2-21.57,5.14-.95.26-2.23.91-2.77-.19-.47-.93.39-1.99,1.3-2.53,1.21-.72,1.87-1.64,1.71-3.07.36-.24.73-.48,1.09-.71Z"/>
  <path class="cls-6" d="M133.22,208.63c4.81,4.17,9.86,7.89,16.36,8.97-1.11,3.35-1.66,6.93-4.23,9.65-1.06,1.12-2.18,2.05-3.26.19-3.46-6.03-7.45-11.82-8.88-18.81Z"/>
  <path class="cls-4" d="M582.37,361.63c-3.73-.31-6.9-2.24-10.27-3.59-1.18-.47-1.41-1.26-1.02-2.47,1.36-4.21,2.63-8.45,3.94-12.68,3.99,4.63,6.59,9.85,6.88,16.07.04.89.31,1.77.47,2.66Z"/>
  <path class="cls-2" d="M237.7,172.77c-.37.69-.78,1.79-1.68.79-2.99-3.35-6.29-6.18-10.55-7.87-2.95-1.16-5.8-2.14-8.93-.73-.84.38-1.55-.18-2.27-.5-5.27-2.37-10.96-3.03-16.55-4.11,15.22-1.97,28.86,1.14,39.96,12.43Z"/>
  <path class="cls-2" d="M292.23,258.44c-.37-4.21.98-8.52-1.17-12.66-.54-1.04-.87-1.66-1.96-1.8-2.97-.38-4.47-2.19-4.87-5.05.2-.36.4-.72.6-1.09-.3-.02-.68-.17-.89-.05-.65.39-.49.84.05,1.24-.15.51-.14,1.25-.48,1.48-.43.3-.71-.26-.74-.73-.18-2.98-2.55-5.17-2.9-8.09,7.86,2.49,13.1,10.01,13.39,19.47.08,2.44.3,4.98-1.03,7.26Z"/>
  <path class="cls-2" d="M145.06,318.02c.09,2.35,1.59,4.4,1.42,6.79-1.64-.46-3.28-.94-4.92-1.38-1.11-.3-1.61-.89-1.72-2.14-.44-4.67-.17-4.87,5.22-3.27Z"/>
  <path class="cls-6" d="M263.32,424.99c-3.62-.1-6.98-1.3-10.35-2.45-.09-.07-.21-.11-.27-.2-.76-1.14-1.95-2.66-1.09-3.66,1.05-1.24,2.57.14,3.62.84,2.71,1.81,5.98,2.79,8.09,5.48Z"/>
  <path class="cls-4" d="M488.12,344.56c-.23,2.63-1.93,4.69-3.57,6.29-1.48,1.44-3.73.06-5.48-.91,2.92-1.95,5.6-4.31,9.05-5.38Z"/>
  <path class="cls-2" d="M397.74,426.33c-1.04-.76-.77-1.78-.3-2.61.38-.67.91-.11,1.28.29-.15.85-1.17,1.33-.98,2.32Z"/>
  <path class="cls-6" d="M132.67,207.89c.14.18.28.37.41.55-.36-.02-.51-.19-.41-.55Z"/>
  <path class="cls-4" d="M448.82,401.71c-.27.24-.55.48-.82.72.19-.34.24-.83.82-.72Z"/>
  <path class="cls-5" d="M302.81,434.76c-.26-.03-.53-.06-.79-.08.26.03.53.06.79.08Z"/>
  <path class="cls-1" d="M354.41,192.29c-2.04,15.02-16.38,30.14-32.12,34.3-8.97,2.38-18.07,2.34-26.35-1.06-14.73-6.05-25.98-16.07-30.01-32.39.03-1.11.5-2.33-.78-3.11-.14-.45-.28-.89-.42-1.34.57-.51.62-1.19.63-1.89.04-5.61.79-10.92,3.27-16.19,3.25-6.9,7.68-12.76,13.67-17.17,13.28-9.78,27.94-11.54,43.15-5.25,17.86,7.39,28.9,21.22,29.52,41.09,0,0-.02.09-.02.09-.84.85-.61,1.89-.53,2.91ZM274.3,182.9c-.08,8,2.2,15.18,7.62,21.16,10.37,11.44,26.57,11.8,35.95,2.8,8.27-7.95,12.06-17.5,10.2-28.81-2.68-16.3-17.33-26.6-31.49-23.88-13.2,2.54-22.14,13.96-22.28,28.73Z"/>
  <path class="cls-5" d="M354.97,189.29c-.63-19.87-11.67-33.7-29.52-41.09-15.21-6.3-29.87-4.53-43.15,5.25-5.99,4.41-10.41,10.27-13.67,17.17-2.48,5.27-3.22,10.58-3.27,16.19,0,.7-.05,1.38-.63,1.89-1.93-9.2-1.68-18.32,1.25-27.27,7.87-24.05,31.24-36.9,55.34-29.77,18.67,5.53,35.08,22.56,34.55,48.44-.06,3.07.23,6.21-.9,9.19Z"/>
  <path class="cls-5" d="M265.15,190.03c1.28.78.81,2,.78,3.11-1.59-.7-1.37-1.86-.78-3.11Z"/>
  <path class="cls-5" d="M354.41,192.29c-.08-1.02-.3-2.06.53-2.91.15,1.03-.04,2-.53,2.91Z"/>
  <path class="cls-1" d="M138.87,426.58c-4.3-.9-9.5-2.67-13.68-7.25-3.89-4.26-7.89-8.36-9.94-13.85-1.62-4.33-2.06-11.53,1.4-14.08,3.48-2.57,7.04-2.5,10.74-1.36,9.78,3.01,21.79,16.24,21.48,28.07-.16,6.26-2.33,8.49-10.01,8.48Z"/>
  <path class="cls-2" d="M284.8,441.02c-8.58-1.53-16.95-3.4-25.28-5.47-.74-.19-1.76-.48-1.39-1.54.27-.76,1.17-.51,1.82-.37,8.39,1.82,16.77,3.64,25.15,5.48.67.15,1.48.38,1.29,1.26-.2.92-1.12.49-1.6.65Z"/>
  <path class="cls-3" d="M226.28,281.34c-2.61-.06-4.39-1.25-4.89-3.9-.5-2.63.63-4.47,3.1-5.43,6.42-2.49,12.87-4.89,18.69-8.67,6.49-4.21,12.4-9.07,17.19-15.2,3.15-4.03,5.86-4.95,8.54-2.87,2.7,2.1,2.56,5.62-.46,9.46-9.25,11.79-21.06,19.99-35.18,24.88-2.27.79-4.51,1.75-6.99,1.72Z"/>
  <path class="cls-3" d="M214.19,207.74c.05-3.75,2.96-6.82,6.33-6.69,2.85.11,4.85,2.26,4.8,5.14-.06,3.83-3.01,7.06-6.49,7.12-2.8.05-4.69-2.23-4.65-5.58Z"/>
  <path class="cls-3" d="M181.79,205.37c-.04,3.31-2,5.5-4.85,5.44-2.99-.07-5.6-3.37-5.59-7.06,0-2.94,2.12-5.27,4.73-5.21,3.29.07,5.75,3.02,5.7,6.83Z"/>
  <path class="cls-6" d="M285.88,262.08c.18.08.47.12.52.25.05.13-.13.36-.21.54-.18-.08-.47-.12-.52-.25-.05-.13.13-.36.21-.54Z"/>
  <path class="cls-4" d="M445.46,411c1.43-2.51,3.36-3.98,5.06-5.65,7.06-6.96,12.73-15.05,18.9-22.74.78-.97,1.3-1.72,2.73-.87,6.24,3.68,12.95,6.43,19.57,9.32,2.98,1.3,2.88,2.49.84,4.64-4.34,4.56-8.5,9.29-12.74,13.94-1.1,1.21-2.31,2.27-4.07,2.3-9.96.19-19.92.29-30.29-.92Z"/>
  <path class="cls-4" d="M512.23,367.67c-.66,1.22-1.22,2.5-1.99,3.63-3.78,5.47-7.68,10.86-11.4,16.36-1.05,1.56-2.01,1.82-3.66,1.02-6.5-3.16-13.21-5.86-19.56-9.33-1.99-1.08-2.54-2.03-1.07-4.18,3.69-5.39,7.13-10.95,10.58-16.5.85-1.38,1.55-1.88,3.26-1.24,7.3,2.73,14.73,5.1,21.84,8.32.88.4,2.11.47,2.01,1.92Z"/>
  <path class="cls-4" d="M518.01,368.72c5.06,2.18,10.62,3.71,15.67,6.43,1.27.68.67,1.74.11,2.66-4.09,6.62-8.36,13.12-13.33,19.13-.95,1.15-1.75,1.56-3.19.98-4.46-1.78-8.95-3.49-13.45-5.17-1.77-.66-2.46-1.48-1.07-3.21,4.81-5.99,8.64-12.65,12.88-19.02.53-.8.76-2.04,2.38-1.79Z"/>
  <path class="cls-4" d="M532.27,403.16c-2.82-1.02-5.75-2-8.6-3.15-.88-.35-.39-1.18.04-1.72,5.16-6.45,10.17-12.99,14.18-20.24.53-.95,1.19-1.19,2.27-.79,3.96,1.48,7.94,2.94,11.95,4.27,1.66.55,1.53,1.28.79,2.5-2.78,4.59-5.62,9.13-8.98,13.34-3,3.76-7.5,4.11-11.65,5.79Z"/>
  <path class="cls-4" d="M529.3,347.84c4.55,1.58,9.11,3.15,13.65,4.76,1.82.64,2.07,1.82,1.27,3.53-2.08,4.47-4.11,8.97-6.07,13.49-.82,1.88-2.02,2.25-3.84,1.51-4.46-1.83-8.93-3.61-13.41-5.39-1.64-.65-1.98-1.49-.98-3.11,2.59-4.21,4.84-8.6,6.76-13.15.51-1.21,1.15-1.99,2.62-1.63Z"/>
  <path class="cls-4" d="M550.44,355c4.23,1.45,8.91,2.99,13.53,4.7,1.16.43.56,1.55.21,2.39-2.1,5.09-4.28,10.15-7.07,14.91-.66,1.13-1.22,2.15-2.92,1.46-3.72-1.5-7.5-2.86-11.28-4.21-1.55-.55-1.87-1.25-1.15-2.82,2.28-5.01,4.39-10.09,6.59-15.14.31-.72.53-1.6,2.09-1.3Z"/>
  <path class="cls-4" d="M484.32,410.65c4.59-5.11,8.91-9.82,13.09-14.64.94-1.08,1.73-1.32,2.93-.74,4.44,2.16,9.1,3.74,13.86,5,2.2.59,2.48,1.47.99,3.29-2.37,2.89-4.75,5.15-8.91,5.55-7.16.68-14.27,1.88-21.96,1.54Z"/>
  <path class="cls-4" d="M566.96,382.75c-2-.85-4.09-1.53-5.97-2.59-1.42-.8-.43-2.05.1-2.99,2.61-4.57,5.45-9.03,6.9-14.16.45-1.58,1.45-1.45,2.68-1.03,3.24,1.12,6.49,2.23,9.76,3.25,1.64.51,2.05,1.45,1.15,2.81-3.56,5.4-8.23,9.8-12.97,14.12-.38.35-1.04.39-1.65.6Z"/>
  <path class="cls-4" d="M548.43,396.6c2.74-4.27,6.22-7.95,8.49-12.47.63-1.25,1.51-.71,2.34-.41,1.68.6,3.86.53,4.71,2.34.48,1.03-1.01,1.58-1.75,2.25-4.02,3.63-8.69,6.2-13.78,8.29Z"/>
  <path class="cls-4" d="M516.87,406.75c4.17-5.01,4.3-5.03,9.37-1.72-2.87,1.13-5.83.96-9.37,1.72Z"/>
  <path class="cls-4" d="M283.98,239.05c-.53-.4-.7-.86-.05-1.24.21-.13.59.02.89.05-.2.36-.4.72-.6,1.09,0,0-.25.11-.25.11Z"/>
  <path class="cls-3" d="M274.3,182.9c.14-14.77,9.08-26.19,22.28-28.73,14.16-2.72,28.82,7.58,31.49,23.88,1.86,11.31-1.93,20.86-10.2,28.81-9.37,9.01-25.58,8.64-35.95-2.8-5.42-5.98-7.7-13.16-7.62-21.16Z"/>
</svg>