<?xml version="1.0" encoding="utf-8"?>
<!-- Generator: Adobe Illustrator 28.4.1, SVG Export Plug-In . SVG Version: 6.00 Build 0)  -->
<svg version="1.1" id="Camada_1" xmlns="http://www.w3.org/2000/svg" xmlns:xlink="http://www.w3.org/1999/xlink" x="0px" y="0px"
	 viewBox="0 0 410.7 460" style="enable-background:new 0 0 410.7 460;" xml:space="preserve">
<style type="text/css">
	.st0{fill:#006400;}
</style>
<path class="st0" d="M408.1,3.2c-1.9-2.1-4.6-3.2-7.4-3.2H10C7.2,0,4.5,1.2,2.6,3.2C0.7,5.3-0.2,8.1,0,10.9l35.2,394.3
	c0.4,4.1,3.2,7.6,7.2,8.8l160.1,45.7c0.9,0.3,1.8,0.4,2.7,0.4s1.8-0.1,2.7-0.4l160.2-45.7c4-1.2,6.8-4.6,7.2-8.8l35.2-394.3
	C410.9,8.1,410,5.3,408.1,3.2z M323.8,139.2H135.7l4.5,50.9h179.1l-13.4,150.4l-100.6,30.4l-1-0.3l-99.4-30.1l-5.4-61.3h48.7
	l2.1,23.8l55.6,11.6l54.6-11.6l5.8-64.4H95.8l-13.2-148h245.6L323.8,139.2z"/>
</svg>
