<?xml version="1.0" encoding="UTF-8"?>
<svg id="Camada_1" data-name="Camada 1" xmlns="http://www.w3.org/2000/svg" viewBox="0 0 400 453.98">
  <defs>
    <style>
      .cls-1 {
        fill: #f0652a;
      }

      .cls-1, .cls-2 {
        stroke-width: 0px;
      }

      .cls-2 {
        fill: #e34d26;
      }
    </style>
  </defs>
  <path class="cls-2" d="M198.95,453.98c-8.15-2.8-16.54-4.79-24.83-7.09-45.16-12.56-90.34-25.05-135.52-37.52-1.63-.45-2.33-1.02-2.49-2.85-2.44-27.91-5-55.82-7.49-83.73-1.93-21.69-3.79-43.38-5.72-65.07-2.11-23.7-4.3-47.39-6.41-71.09-1.75-19.58-3.42-39.17-5.16-58.76-1.92-21.6-3.92-43.19-5.84-64.78C3.92,45.52,2.41,27.94.86,10.37.62,7.63.45,4.87.07,2.14-.15.62.09-.17,1.8.04c.54.07,1.1.01,1.65.01,131.1,0,262.21,0,393.31-.05,2.65,0,3.47.28,3.18,3.37-2.45,25.79-4.61,51.61-6.91,77.42-2.67,29.92-5.41,59.84-8.08,89.76-2.49,27.91-4.91,55.83-7.38,83.74-2.56,28.92-5.14,57.83-7.73,86.75-1.94,21.69-3.97,43.37-5.81,65.06-.18,2.16-1.11,2.72-2.83,3.19-23.26,6.41-46.51,12.86-69.76,19.3-29.88,8.28-59.76,16.55-89.63,24.84-.42.12-.81.37-1.21.56h-1.65ZM200.07,314.9c-.63-.09-1.27-.1-1.88-.26-17.19-4.58-34.36-9.23-51.57-13.7-2.24-.58-2.75-1.59-2.92-3.73-.93-11.71-2.07-23.41-3.08-35.12-.12-1.33-.45-1.92-1.93-1.91-15.53.05-31.06.04-46.58,0-1.44,0-1.98.41-1.81,1.89.29,2.55.45,5.12.68,7.68,1.99,22.13,4,44.25,5.93,66.38.17,1.91.73,2.83,2.72,3.38,33.49,9.25,66.96,18.61,100.43,27.94,0,16.36.05,32.72-.07,49.08-.02,2.52.88,2.63,2.84,2.08,17.42-4.93,34.85-9.83,52.29-14.72,16.55-4.64,33.12-9.26,49.68-13.88,8.37-2.34,16.74-4.65,25.1-7.01,1.1-.31,2.41-.39,2.55-2.03.33-3.73.77-7.44,1.09-11.17.43-5,.75-10.02,1.21-15.02.66-7.08,1.44-14.15,2.09-21.24.46-5,.75-10.02,1.19-15.02.68-7.82,1.43-15.63,2.13-23.44.41-4.55.76-9.1,1.19-13.64.68-7.26,1.45-14.52,2.11-21.79.45-5,.75-10.02,1.18-15.02.68-7.82,1.43-15.63,2.14-23.44.41-4.55.77-9.1,1.18-13.64.7-7.63,1.43-15.26,2.12-22.89.43-4.73.78-9.46,1.21-14.19.68-7.45,1.43-14.89,2.1-22.34.44-4.82.76-9.65,1.19-14.47.69-7.72,1.43-15.44,2.13-23.16.42-4.64.78-9.28,1.2-13.92.69-7.45,1.43-14.89,2.1-22.34.45-4.91.79-9.83,1.23-14.74.68-7.63,1.34-15.27,2.12-22.89.26-2.55-.78-3.01-3.11-3.01-52.39.06-104.78.06-157.18,0-2.43,0-3.1.64-3.08,3.07.11,15.62.06,31.25.06,46.88-1.28.05-2.57.13-3.85.13-39.69,0-79.38,0-119.07,0-1.54,0-3-.4-2.75,2.27,2.41,25.22,4.7,50.45,6.98,75.68,2.11,23.4,4.21,46.81,6.2,70.23.22,2.6,1.12,3.2,3.65,3.19,35.1-.09,70.19-.07,105.29-.06,1.19,0,2.38.11,3.57.17,0,26.58,0,53.16-.01,79.74Z"/>
  <path class="cls-1" d="M200.06,83.53c0-15.63.05-31.25-.06-46.88-.02-2.44.65-3.08,3.08-3.07,52.39.07,104.78.07,157.18,0,2.33,0,3.38.46,3.11,3.01-.78,7.62-1.44,15.26-2.12,22.89-.44,4.91-.78,9.83-1.23,14.74-.68,7.45-1.42,14.89-2.1,22.34-.43,4.64-.78,9.28-1.2,13.92-.7,7.72-1.44,15.44-2.13,23.16-.43,4.82-.75,9.65-1.19,14.47-.67,7.45-1.42,14.89-2.1,22.34-.43,4.73-.78,9.46-1.21,14.19-.69,7.63-1.43,15.26-2.12,22.89-.41,4.55-.77,9.1-1.18,13.64-.71,7.81-1.46,15.62-2.14,23.44-.44,5-.73,10.02-1.18,15.02-.66,7.27-1.42,14.52-2.11,21.79-.43,4.54-.78,9.1-1.19,13.64-.71,7.81-1.45,15.62-2.13,23.44-.44,5-.73,10.02-1.19,15.02-.65,7.08-1.44,14.15-2.09,21.24-.46,5-.78,10.02-1.21,15.02-.32,3.73-.76,7.44-1.09,11.17-.14,1.64-1.45,1.72-2.55,2.03-8.36,2.36-16.73,4.67-25.1,7.01-16.56,4.62-33.12,9.24-49.68,13.88-17.43,4.89-34.86,9.79-52.29,14.72-1.96.55-2.86.44-2.84-2.08.12-16.36.07-32.72.07-49.08.02-.1.04-.2.04-.3,32.35-8.95,64.7-17.89,97.04-26.85,5.06-1.4,5.19-1.41,5.69-6.65,1.65-17.55,3.21-35.11,4.78-52.67,1.37-15.27,2.71-30.55,4.07-45.82,1.39-15.55,2.83-31.09,4.19-46.64.31-3.53.21-3.55-3.4-3.55-36.58,0-73.15,0-109.73,0-.92,0-1.83.08-2.75.13.03-.1.04-.2.04-.31-.01-16.95-.02-33.9-.04-50.84,0-.13.03-.26.05-.39.18.03.36.08.54.08,39.35,0,78.7,0,118.05.05,1.64,0,2.15-.45,2.3-2.14,1.34-15.01,2.74-30,4.25-44.99.23-2.3-.3-2.93-2.68-2.93-40.08.08-80.17.05-120.25.06-.73,0-1.47.07-2.2.1l-.02-.25Z"/>
  <path class="cls-1" d="M200.07,314.9c0-26.58,0-53.16.01-79.74,0,0-.05-.24-.05-.24,1.01.04,2.01.12,3.02.12,18.37,0,36.74.05,55.11-.05,2.55-.01,3.56.37,3.21,3.24-.78,6.37-1.18,12.79-1.76,19.19-1.23,13.53-2.51,27.05-3.65,40.59-.16,1.83-.91,2.42-2.55,2.85-17.81,4.72-35.6,9.51-53.4,14.28,0,0,.05-.24.05-.24Z"/>
  <path class="cls-2" d="M200.05,184.77c-.91.06-1.83.16-2.74.16-20.22,0-40.45-.02-60.67.05-1.96,0-2.86-.3-3.05-2.57-1.09-13.36-2.37-26.71-3.59-40.06-.19-2.1-.29-4.22-.59-6.31-.26-1.85.42-2.38,2.23-2.34,5.05.1,10.11.04,15.17.04,16.64,0,33.28,0,49.91,0,1.1,0,2.19.12,3.29.19.01,16.95.02,33.9.04,50.84Z"/>
</svg>