<?xml version="1.0" encoding="UTF-8"?>
<svg id="Camada_1" data-name="Camada 1" xmlns="http://www.w3.org/2000/svg" viewBox="0 0 400 454.73">
  <defs>
    <style>
      .cls-1 {
        fill: #f3e59f;
      }

      .cls-1, .cls-2, .cls-3 {
        stroke-width: 0px;
      }

      .cls-2 {
        fill: #d2b52a;
      }

      .cls-3 {
        fill: #fad625;
      }
    </style>
  </defs>
  <path class="cls-2" d="M42.76.02c12.74,0,25.48-.05,38.23,0,63.86.31,127.73.06,191.59.13,41.84.05,83.67.04,125.51.06,1.99,0,2.03,0,1.85,2.02-1.19,13.19-2.41,26.38-3.6,39.57-.98,10.83-1.92,21.66-2.9,32.49-1.08,11.96-2.19,23.92-3.27,35.88-.87,9.65-1.71,19.3-2.58,28.95-.98,10.88-1.99,21.76-2.97,32.64-.77,8.52-1.52,17.04-2.29,25.56-.99,10.98-2,21.97-2.99,32.95-.76,8.42-1.49,16.84-2.25,25.26-1,11.09-2.02,22.17-3.02,33.26-.87,9.65-1.71,19.3-2.58,28.95-1.08,12.01-2.19,24.02-3.28,36.03-.87,9.65-1.72,19.3-2.58,28.95-.74,8.32-1.5,16.63-2.2,24.95-.09,1.08-.8,1.19-1.53,1.39-11.06,3.12-22.12,6.23-33.19,9.36-42.61,12.03-85.21,24.06-127.81,36.11-.83.23-1.58.23-2.4,0-50.49-14.27-100.99-28.52-151.48-42.77-2.98-.84-5.94-1.71-8.93-2.51-.77-.2-1.1-.51-1.17-1.33-.83-9.55-1.68-19.1-2.55-28.65-1.08-11.86-2.18-23.71-3.26-35.57-.87-9.5-1.71-18.99-2.57-28.49-.99-10.93-2-21.86-2.99-32.8-.87-9.65-1.73-19.3-2.6-28.95-.98-10.78-1.98-21.55-2.96-32.33-.77-8.47-1.52-16.94-2.29-25.41-1.09-11.96-2.2-23.92-3.29-35.87-.88-9.65-1.72-19.3-2.6-28.95-.99-10.88-2-21.76-2.99-32.64-.86-9.5-1.71-18.99-2.57-28.49-.99-10.93-2-21.86-3-32.79-.87-9.55-1.72-19.09-2.58-28.64C.45,6.21.23,4.06.05,1.9-.09.02-.07.02,1.9.02c13.62,0,27.24,0,40.86,0ZM303.37,394.63c1.51,0,2.88-.66,4.32-.97,1.93-.49,3.81-1.21,5.72-1.72,5.74-1.55,11.48-3.09,17.21-4.69,2.75-.77,2.68-.74,2.81-3.61.13-2.92.39-5.83.65-8.75.37-4.13.8-8.26,1.18-12.39.26-2.81.43-5.63.69-8.43.37-4.08.8-8.16,1.16-12.24.26-2.91.43-5.83.68-8.74.37-4.18.8-8.36,1.18-12.55.26-2.86.43-5.73.69-8.59.36-3.98.8-7.95,1.16-11.93.26-2.91.43-5.83.69-8.74.37-4.18.8-8.36,1.17-12.55.25-2.81.42-5.63.67-8.44.38-4.24.81-8.47,1.19-12.7.25-2.81.43-5.63.69-8.44.37-4.03.8-8.05,1.17-12.08.26-2.86.43-5.73.68-8.59.37-4.24.8-8.47,1.18-12.7.25-2.81.43-5.63.69-8.43.37-4.08.8-8.16,1.17-12.24.25-2.81.43-5.63.68-8.44.37-4.18.8-8.36,1.18-12.55.26-2.86.44-5.73.69-8.59.37-4.08.8-8.16,1.16-12.24.26-2.91.43-5.83.69-8.74.37-4.18.8-8.36,1.17-12.55.25-2.81.41-5.63.68-8.44.36-3.88.82-7.74,1.17-11.62.37-4.14.58-8.29.99-12.42.46-4.54.93-9.07,1.21-13.63.16-2.56.43-5.11.67-7.66.38-4.08.8-8.16,1.17-12.24.35-3.93.63-7.87.99-11.8.48-5.26,1.03-10.5,1.47-15.76.19-2.25.1-2.26-2.19-2.26-53.08,0-106.16,0-159.25,0-2.6,0-2.3-.28-2.3,2.33,0,127.26,0,254.53,0,381.79,0,.36.03.73,0,1.08-.1.91.34,1.22,1.18,1.1.51.43.99.03,1.45-.1,8.04-2.19,16.08-4.4,24.12-6.6,22.91-6.27,45.83-12.52,68.73-18.84,2.56-.71,5.21-1.13,7.63-2.31h-.03ZM185.08,221.91c0-44.05,0-88.1.04-132.16,0-1.61-.44-1.94-1.97-1.93-12.12.06-24.24.06-36.37,0-1.3,0-1.63.36-1.63,1.64.04,8.46,0,16.92-.02,25.38-.05,21.35-.1,42.7-.16,64.06-.03,11.91-.06,23.83-.09,35.74-.07,26.66-.14,53.33-.21,79.99,0,2.7,0,2.71-2.61,2-24.21-6.61-48.41-13.23-72.62-19.85-1.98-.54-1.98-.55-1.97,1.5.03,14.55.05,29.09.1,43.64,0,2.63-.51,2.16,2.29,2.91,37.8,10.22,75.62,20.42,113.42,30.62q1.79.48,1.79-1.4c0-44.05,0-88.1,0-132.16Z"/>
  <path class="cls-3" d="M201.48,422.47c-.84.12-1.28-.19-1.18-1.1.04-.36,0-.72,0-1.08,0-127.26,0-254.53,0-381.79,0-2.61-.3-2.32,2.3-2.33,53.08,0,106.16,0,159.25,0,2.28,0,2.37,0,2.19,2.26-.44,5.26-1,10.51-1.47,15.76-.36,3.93-.64,7.87-.99,11.8-.37,4.08-.78,8.16-1.17,12.24-.24,2.55-.51,5.1-.67,7.66-.28,4.55-.75,9.09-1.21,13.63-.42,4.13-.62,8.28-.99,12.42-.35,3.88-.81,7.74-1.17,11.62-.26,2.81-.43,5.63-.68,8.44-.37,4.18-.8,8.36-1.17,12.55-.26,2.91-.43,5.83-.69,8.74-.36,4.08-.79,8.16-1.16,12.24-.26,2.86-.44,5.73-.69,8.59-.37,4.18-.8,8.36-1.18,12.55-.25,2.81-.43,5.63-.68,8.44-.37,4.08-.8,8.16-1.17,12.24-.26,2.81-.44,5.63-.69,8.43-.38,4.24-.81,8.47-1.18,12.7-.25,2.86-.42,5.73-.68,8.59-.37,4.03-.8,8.05-1.17,12.08-.26,2.81-.43,5.63-.69,8.44-.38,4.24-.81,8.47-1.19,12.7-.25,2.81-.42,5.63-.67,8.44-.37,4.18-.8,8.36-1.17,12.55-.26,2.91-.42,5.83-.69,8.74-.36,3.98-.79,7.95-1.16,11.93-.26,2.86-.44,5.73-.69,8.59-.37,4.18-.81,8.36-1.18,12.55-.26,2.91-.42,5.83-.68,8.74-.36,4.08-.79,8.16-1.16,12.24-.26,2.81-.43,5.63-.69,8.43-.38,4.13-.81,8.26-1.18,12.39-.26,2.91-.52,5.83-.65,8.75-.13,2.87-.06,2.84-2.81,3.61-5.73,1.6-11.47,3.13-17.21,4.69-1.91.52-3.79,1.23-5.72,1.72-1.54-.12-2.95.36-4.32.97,0,0,.03-.01.03-.01-.45.08-.91.13-1.36.25-5.66,1.5-11.32,2.99-16.97,4.52-26.89,7.3-53.77,14.6-80.64,21.93-1,.27-2.17.23-2.95,1.14ZM255.82,170.76c0-11.14.02-22.29-.03-33.43,0-1.2.31-1.56,1.54-1.56,13.67,0,27.33,0,41-.15,13.62-.15,27.24-.1,40.86-.1,1.14,0,1.64-.23,1.68-1.51.09-2.73.37-5.45.56-8.17.86-12.13,1.69-24.27,2.61-36.39.1-1.34-.17-1.63-1.48-1.62-9.95.08-19.91.04-29.86.2-10.16.16-20.32.09-30.49.13-19.55.08-39.1.17-58.64.25-2.06,0-4.13.08-6.19.02-1.03-.03-1.33.31-1.3,1.32.11,4.12.16,8.25.21,12.37.12,10.06.09,20.11.28,30.17.24,12.48.11,24.96.36,37.44.21,10,.1,20.01.29,30.01.22,11.7.22,23.41.33,35.12.08,8.66.22,17.32.27,25.99,0,1.19.36,1.36,1.45,1.13,2.06-.44,4.16-.73,6.24-1.09,17.88-3.07,35.76-6.14,53.63-9.2,4.83-.83,9.65-1.63,14.47-2.51,1.28-.23,1.64-.02,1.54,1.43-.25,3.75-.26,7.52-.36,11.28-.22,8.19-.46,16.38-.65,24.58-.02,1.02-.43,1.4-1.37,1.65-8.98,2.35-17.94,4.75-26.91,7.13-15.99,4.25-31.98,8.53-47.99,12.71-1.54.4-1.94,1.07-1.83,2.53.16,2.16.18,4.32.22,6.49.18,12.37.37,24.75.49,37.12.01,1.46.32,1.71,1.75,1.33,24.48-6.42,48.97-12.78,73.46-19.16,10.42-2.71,20.84-5.43,31.27-8.14.76-.2,1.43-.28,1.51-1.37.46-6.17,1-12.33,1.5-18.49.77-9.45,1.52-18.9,2.29-28.36,1-12.17,2-24.35,3.01-36.52.57-6.83,1.15-13.66,1.72-20.49.67-8.17,1.31-16.34,2.01-24.5.1-1.12-.22-1.45-1.34-1.31-4.25.51-8.5.93-12.75,1.41-10.55,1.18-21.1,2.39-31.65,3.57-10.65,1.19-21.31,2.31-31.96,3.57-1.52.18-1.82-.16-1.81-1.6.05-11.09.03-22.18.03-33.27Z"/>
  <path class="cls-1" d="M201.48,422.47c.78-.9,1.95-.87,2.95-1.14,26.87-7.34,53.76-14.64,80.64-21.93,5.65-1.53,11.31-3.02,16.97-4.52.44-.12.9-.17,1.36-.25-2.42,1.18-5.07,1.6-7.63,2.31-22.9,6.32-45.82,12.57-68.73,18.84-8.04,2.2-16.07,4.41-24.12,6.6-.46.12-.94.53-1.45.1Z"/>
  <path class="cls-1" d="M303.37,394.63c1.37-.61,2.78-1.09,4.32-.97-1.44.31-2.81.97-4.32.97Z"/>
</svg>