<?xml version="1.0" encoding="UTF-8"?>
<svg id="Camada_1" data-name="Camada 1" xmlns="http://www.w3.org/2000/svg" viewBox="0 0 400 453.18">
  <defs>
    <style>
      .cls-1 {
        fill: #1974b6;
      }

      .cls-1, .cls-2 {
        stroke-width: 0px;
      }

      .cls-2 {
        fill: #39a9db;
      }
    </style>
  </defs>
  <path class="cls-1" d="M200.33,453.18c-3.73-.9-7.46-1.8-11.19-2.71-4.99-1.87-10.18-3.03-15.32-4.36-3.67-.98-7.33-1.96-11-2.95-.29-.12-.57-.23-.86-.35-.44-.07-.88-.14-1.32-.22,0,0-.03-.01-.03-.01-4.26-1.73-8.74-2.67-13.18-3.79-4.37-1.3-8.68-2.88-13.23-3.52-3.64-1.51-7.48-2.34-11.29-3.24-9.41-2.84-18.86-5.55-28.42-7.84-4.05-1.51-8.23-2.53-12.44-3.47-4.6-1.53-9.24-2.92-14-3.86-.79-.54-1.68-.73-2.62-.7-3.63-1.5-7.44-2.41-11.28-3.19-4.08-1.48-8.26-2.56-12.51-3.43-3.93-.67-6.26-2.67-5.83-6.98,0-.09-.09-.19-.14-.28-.28-3.52-.55-7.04-.83-10.56-.57-6.38-.76-12.79-1.82-19.12.13-3.11-.29-6.17-.79-9.23-.1-4.44-.4-8.87-1.24-13.24-.05-1.11-.09-2.22-.14-3.33.07-1.54.13-3.08-.49-4.55-.06-1.99.14-4.01-.66-5.92.34-3.86-.39-7.67-.75-11.48-.59-6.32-.72-12.69-1.88-18.95-.05-.89-.1-1.79-.15-2.68.13-1.37.2-2.73-.47-4.01-.04-.63-.09-1.27-.13-1.9-.17-4.44-.39-8.87-1.24-13.24-.05-1.1-.11-2.21-.16-3.31.14-1.36.19-2.71-.46-3.98l-.16-3.27c-.62-6.39-.71-12.83-1.82-19.17.11-3.1-.34-6.16-.8-9.21-.24-4.64-.39-9.29-1.26-13.87.17-3.13-.37-6.19-.79-9.27-.3-6.62-.8-13.23-1.79-19.79.03-3.11-.26-6.2-.82-9.26-.2-2.94-.27-5.9-.61-8.82-.74-6.29-.66-12.66-1.92-18.89-.05-1.11-.09-2.21-.14-3.32.05-1.15.22-2.32-.43-3.38-.08-2.19.17-4.41-.63-6.54-.05-5.12-.48-10.21-1.34-15.26.07-3.73-.39-7.41-.94-11.08-.13-4.44-.44-8.87-1.19-13.25-.12-4.43-.42-8.84-1.22-13.21,0-4.9-.52-9.76-1.3-14.59-.05-.86-.1-1.72-.15-2.59.09-1.99.22-3.99-.57-5.89-.05-.9-.09-1.79-.14-2.69-.56-6.58-.82-13.2-1.86-19.73.03-2.46,0-4.92-.68-7.32-.27-3.94-.42-7.89-.83-11.82-.58-5.56-.57-11.17-1.73-16.67.07-3.53-.37-7.02-.86-10.5-.14-1.68-.31-3.35-.4-5.04C.01,1.36-.33.14,1.31,0c4.39,0,8.79,0,13.18,0,4.42,0,8.84,0,13.27,0,4.39,0,8.79,0,13.18,0,4.42,0,8.84,0,13.27,0,4.61,0,9.23,0,13.84,0h13.27c4.39,0,8.79,0,13.18,0,4.42,0,8.84,0,13.27,0,4.39,0,8.79,0,13.18,0,4.42,0,8.84,0,13.27,0,4.39,0,8.79,0,13.18,0,4.42,0,8.84,0,13.27,0,4.39,0,8.79,0,13.18,0,4.42,0,8.84,0,13.27,0,4.61,0,9.23,0,13.84,0,4.42,0,8.84,0,13.27,0,4.39,0,8.79,0,13.18,0,4.42,0,8.85,0,13.27,0,4.39,0,8.79,0,13.18,0,4.42,0,8.84,0,13.27,0,4.39,0,8.79,0,13.18,0h13.27c4.39,0,8.79,0,13.18,0,4.42,0,8.84,0,13.27,0,5.05,0,10.11,0,15.16,0,4.42,0,8.85,0,13.27,0,4.39,0,8.79,0,13.18,0,4.42,0,8.84,0,13.27,0,4.39,0,8.79,0,13.18,0,3.02.04,6.06.27,9.07.06,2.37-.16,3.07.78,2.86,2.89-1.03,5.61-1.26,11.3-1.66,16.97-.71,5.93-1.45,11.87-1.55,17.85-.46,2.85-.89,5.69-.74,8.59-.8,4.59-1.21,9.22-1.26,13.87-.47,3.04-.89,6.09-.81,9.19-1.08,6.13-1.23,12.35-1.78,18.53-.07,1.3-.14,2.6-.21,3.91-.68,1.28-.6,2.64-.48,4.02-.04.89-.09,1.77-.13,2.66-.81,4.59-1.1,9.24-1.28,13.89-.56,3.02-.83,6.07-.76,9.15-1.22,9.56-2.15,19.14-2.57,28.76-.76,4.73-1.23,9.49-1.32,14.29-.84,4.58-1.1,9.21-1.25,13.86-.42,2.84-.9,5.68-.76,8.57-1.08,6.55-1.27,13.19-1.88,19.78-.04.88-.07,1.77-.11,2.65-.61,1.26-.64,2.58-.44,3.92-.07,1.11-.15,2.23-.22,3.34-.77,4.82-1.23,9.67-1.27,14.55-.1.2-.12.41-.07.63-.61,1.26-.63,2.59-.45,3.94-.07,1.12-.14,2.23-.2,3.35-1.05,6.34-1.35,12.74-1.8,19.13-.3,3.71-.6,7.43-.9,11.14-1.25,9.25-1.94,18.54-2.52,27.85-.53,2.43-.76,4.88-.69,7.36-.62,6.56-1.24,13.12-1.86,19.69-.04.91-.09,1.82-.13,2.74-.67,1.67-.65,3.41-.49,5.16-.07,1.11-.15,2.21-.22,3.32-.76,4.83-1.29,9.67-1.28,14.57-.78,2.37-.66,4.83-.68,7.27-.66,1.47-.64,3.02-.51,4.58-.02.44-.03.88-.05,1.33-.7,4.6-1.11,9.22-1.26,13.87-.29,3.5-.59,6.99-.89,10.49-.92,6.38-1.42,12.79-1.77,19.22-.31,1.05-1.23,1.27-2.1,1.54-4.46,1.13-8.96,2.11-13.26,3.79-9.59,2.22-19.04,4.95-28.45,7.86-4.94,1-9.79,2.35-14.56,3.98-8.35,2.31-16.7,4.63-25.05,6.94-4.48,1.03-8.94,2.14-13.27,3.7-4.19,1.13-8.37,2.27-12.56,3.4-9.27,2.58-18.54,5.17-27.8,7.75-4.17,1.15-8.33,2.29-12.5,3.44-4.69,1.03-9.32,2.3-13.87,3.87ZM200.21,180.93c-1.31.08-2.63.23-3.94.23-17.4.02-34.81.07-52.21-.05-2.73-.02-3.64.61-3.36,3.48,1.44,14.77,2.73,29.55,3.98,44.33.16,1.92.96,2.35,2.7,2.31,4.51-.09,9.03-.05,13.55-.03,13.1.05,26.21.12,39.31.19,0,25.12,0,50.24-.02,75.36,0,1.38.44,2.89-.78,4.05-17.84-4.76-35.68-9.52-53.53-14.25-1.7-.45-1.74-1.65-1.86-3.02-1.03-11.6-2.17-23.18-3.12-34.79-.17-2.07-.94-2.52-2.83-2.52-14.96.06-29.92.08-44.89-.01-2.26-.01-2.78.71-2.58,2.83,2.23,24.28,4.42,48.56,6.52,72.85.18,2.12,1,3.05,2.98,3.59,18.55,5.08,37.1,10.21,55.63,15.38,14.82,4.13,29.61,8.34,44.42,12.51.02,16.95.04,33.9.06,50.84q0,4.28,4.16,3.14c16.91-4.68,33.83-9.36,50.74-14.06,24.94-6.93,49.86-13.89,74.82-20.76,1.99-.55,2.53-1.46,2.63-3.42.34-6.35.86-12.68,1.44-19.01.75-8.17,1.7-16.32,2.45-24.5.78-8.51,1.38-17.03,2.14-25.54,1.02-11.45,2.13-22.9,3.16-34.35.74-8.18,1.39-16.37,2.13-24.55,1.04-11.55,2.14-23.1,3.17-34.66.73-8.18,1.36-16.37,2.1-24.56,1.04-11.45,2.18-22.89,3.19-34.35.77-8.73,1.32-17.48,2.11-26.21,1.22-13.52,2.6-27.02,3.83-40.53.59-6.44.79-12.91,1.54-19.33,1.37-11.64,2.28-23.32,3.19-35.01.21-2.65-.69-3.35-3.3-3.35-51.9.07-103.79.08-155.69-.01-3.16,0-3.88,1.11-3.86,4.04.13,14.2.06,28.39.06,42.59-1.43.07-2.85.19-4.28.19-39.32.01-78.65.03-117.97-.05-2.65,0-3.36.66-3.1,3.31,1.41,14.33,2.72,28.66,3.88,43.01.23,2.91,1.1,3.84,4.13,3.83,37.67-.11,75.34-.07,113.01-.06,1.43,0,2.85.14,4.28.21.01,16.9.02,33.8.04,50.69Z"/>
  <path class="cls-2" d="M200.23,79.8c0-14.2.07-28.4-.06-42.59-.03-2.94.7-4.05,3.86-4.04,51.9.09,103.79.08,155.69.01,2.61,0,3.51.69,3.3,3.35-.91,11.68-1.82,23.36-3.19,35.01-.75,6.41-.95,12.89-1.54,19.33-1.23,13.51-2.61,27.02-3.83,40.53-.79,8.73-1.34,17.48-2.11,26.21-1.01,11.45-2.15,22.9-3.19,34.35-.74,8.18-1.37,16.37-2.1,24.56-1.03,11.56-2.13,23.1-3.17,34.66-.73,8.18-1.39,16.37-2.13,24.55-1.03,11.45-2.14,22.9-3.16,34.35-.76,8.51-1.36,17.04-2.14,25.54-.75,8.17-1.7,16.33-2.45,24.5-.58,6.33-1.1,12.67-1.44,19.01-.11,1.96-.65,2.88-2.63,3.42-24.95,6.86-49.88,13.83-74.82,20.76-16.91,4.7-33.82,9.38-50.74,14.06q-4.15,1.15-4.16-3.14c-.02-16.95-.04-33.9-.06-50.84.26-.23.51-.45.77-.68,4.03-1.08,8.07-2.13,12.1-3.24,29.02-8.03,58.04-16.1,87.08-24.08,1.88-.52,2.63-1.21,2.79-3.26.77-10.18,1.74-20.35,2.66-30.53,1.67-18.37,3.4-36.74,5.04-55.12,1.46-16.41,2.79-32.83,4.26-49.24,1.85-20.56,3.8-41.11,5.67-61.66,1.56-17.17,3.05-34.35,4.6-51.53.36-4.03.41-4.03-3.6-4.04-39.32,0-78.65,0-117.97,0-1.1,0-2.2.07-3.3.11,0-.11-.02-.22-.05-.33Z"/>
  <path class="cls-2" d="M200.32,311.28c-.29-.16-.59-.32-.88-.48,1.22-1.16.77-2.67.78-4.05.03-25.12.02-50.24.02-75.36-.03-.17-.06-.33-.1-.5,1.31.09,2.62.25,3.93.26,18.05.02,36.1.08,54.15-.05,2.97-.02,3.73.72,3.41,3.71-1.21,11.35-2.16,22.72-3.18,34.09-.73,8.09-1.42,16.18-2.11,24.28-.18,2.07-1,3.19-3.28,3.75-7.68,1.87-15.28,4.06-22.9,6.14-9.95,2.73-19.9,5.48-29.84,8.22Z"/>
  <path class="cls-2" d="M200.18,130.24c23.16-.03,46.33-.06,69.49-.08.43,0,.86.15,1.29.23-.17.97-.42,1.93-.51,2.91-1.35,14.95-2.75,29.9-3.92,44.86-.2,2.52-.99,3.07-3.33,3.06-16.81-.09-33.63-.06-50.44-.04-4.17,0-8.34.14-12.51.22,0-.16-.01-.32-.03-.47-.01-16.9-.02-33.8-.04-50.69Z"/>
</svg>