<?xml version="1.0" encoding="UTF-8"?>
<svg id="Camada_1" data-name="Camada 1" xmlns="http://www.w3.org/2000/svg" viewBox="0 0 376.61 230.3">
  <defs>
    <style>
      .cls-1 {
        fill: #58a149;
      }

      .cls-1, .cls-2, .cls-3, .cls-4, .cls-5, .cls-6, .cls-7, .cls-8, .cls-9, .cls-10, .cls-11, .cls-12, .cls-13, .cls-14, .cls-15, .cls-16, .cls-17, .cls-18, .cls-19, .cls-20, .cls-21, .cls-22, .cls-23, .cls-24, .cls-25, .cls-26, .cls-27, .cls-28, .cls-29, .cls-30, .cls-31, .cls-32, .cls-33 {
        stroke-width: 0px;
      }

      .cls-2 {
        fill: #6da45f;
      }

      .cls-3 {
        fill: #6bbe47;
      }

      .cls-4 {
        fill: #679e5b;
      }

      .cls-5 {
        fill: #468a43;
      }

      .cls-6 {
        fill: #75b65a;
      }

      .cls-7 {
        fill: #4e8f49;
      }

      .cls-8 {
        fill: #609a56;
      }

      .cls-9 {
        fill: #6fbb4f;
      }

      .cls-10 {
        fill: #3e853d;
      }

      .cls-11 {
        fill: #54924f;
      }

      .cls-12 {
        fill: #4c8d48;
      }

      .cls-13 {
        fill: #689e63;
      }

      .cls-14 {
        fill: #69a15c;
      }

      .cls-15 {
        fill: #6dbc4b;
      }

      .cls-16 {
        fill: #438841;
      }

      .cls-17 {
        fill: #3e863d;
      }

      .cls-18 {
        fill: #52924c;
      }

      .cls-19 {
        fill: #649a59;
      }

      .cls-20 {
        fill: #59a946;
      }

      .cls-21 {
        fill: #56984d;
      }

      .cls-22 {
        fill: #333;
      }

      .cls-23 {
        fill: #5b9753;
      }

      .cls-24 {
        fill: #4a8d46;
      }

      .cls-25 {
        fill: #649d59;
      }

      .cls-26 {
        fill: #74ab64;
      }

      .cls-27 {
        fill: #56954f;
      }

      .cls-28 {
        fill: #77b162;
      }

      .cls-29 {
        fill: #72b855;
      }

      .cls-30 {
        fill: #fefefe;
      }

      .cls-31 {
        fill: #6ca25e;
      }

      .cls-32 {
        fill: #50904b;
      }

      .cls-33 {
        fill: #71a861;
      }
    </style>
  </defs>
  <g>
    <path class="cls-22" d="M376.61,88.24c-.41.2-.3.63-.41.95-.56,1.59-1.92,2.28-3.24,3.04-2.35,1.36-4.69,2.74-7.04,4.1-1.64.95-3.28,1.88-4.92,2.83-2.33,1.35-4.64,2.73-6.99,4.06-.87.49-1.67,1.18-2.8,1.03-.89-.12-1.74-.93-1.75-1.85-.02-3.19-.1-6.37,0-9.56.05-1.62-.61-2.57-1.96-3.32-3.16-1.76-6.26-3.61-9.39-5.41-.34-.2-.7-.38-1.04-.58-.77-.44-1.56-.46-2.37.01-3.22,1.88-6.46,3.73-9.69,5.6-.54.31-1.08.63-1.61.96-.49.3-.75.75-.79,1.32-.09.16-.06.33-.06.5,0,4.3,0,8.6,0,12.9,0,.17-.03.34.06.5.05.77.54,1.23,1.14,1.57,5.44,3.12,10.89,6.22,16.33,9.33,6.59,3.78,13.18,7.57,19.77,11.36,1.44.83,1.53,2.76.12,3.65-1.24.79-2.54,1.46-3.82,2.18-2.54,1.43-5.08,2.86-7.62,4.27-1.85,1.03-3.71,2.04-5.56,3.06-1.5.82-3.01,1.62-4.49,2.48-1.89,1.11-3.65.83-5.44-.26-1.67-1.02-3.39-1.94-5.09-2.91-1.87-1.07-3.73-2.16-5.6-3.23-1.52-.87-3.05-1.73-4.58-2.6-2.02-1.15-4.02-2.31-6.04-3.46-1.87-1.06-3.75-2.1-5.62-3.17-2.01-1.15-4-2.31-6.01-3.46-.93-.53-1.93-.96-2.75-1.69-.93-.83-1.45-1.85-1.43-3.11,0-.27,0-.54,0-.81,0-13.63,0-27.26,0-40.88,0-1.78.75-3.02,2.26-3.89,11.83-6.82,23.66-13.63,35.47-20.48,1.81-1.05,3.51-1.1,5.32-.04,11.69,6.81,23.4,13.6,35.1,20.38,1.44.84,2.3,2.02,2.44,3.69.1,1.46.03,2.93.04,4.39.01,1.88,0,3.76,0,5.64,0,.24-.07.49.07.72v.15Z"/>
    <path class="cls-13" d="M187.13,137.77c2.25.38,4.03,1.76,5.94,2.84,4.25,2.41,8.46,4.88,12.69,7.33,4.27,2.47,8.55,4.94,12.82,7.41,1.39.8,2.75,1.66,4.18,2.39,2.36,1.21,3.9,3.02,4.41,5.65.11.25-.02.53.11.78,0,.15-.03.29-.03.44,0,12.96,0,25.92,0,38.88,0,.15.02.29.03.44-.13.25,0,.53-.1.78-.53,2.82-2.31,4.57-4.76,5.9-3.56,1.93-7.03,4.02-10.53,6.05-4.22,2.43-8.43,4.87-12.65,7.31-3.33,1.93-6.67,3.85-10.01,5.77-.39.22-.86.26-1.21.57h-3.97c-2.84-1.31-5.43-3.08-8.12-4.66-1.71-1-3.41-2.01-5.12-3.01-.1-.06-.21-.13-.3-.21-.63-.55-.6-.82.19-1.08,1.51-.49,2.98-1.1,4.33-1.93.96-.6,1.7-.48,2.64.11,2.51,1.58,5.1,3.02,7.65,4.54.49.29.89.3,1.41,0,4.61-2.68,9.24-5.33,13.87-8,5.24-3.03,10.48-6.06,15.72-9.09,1.28-.74,2.53-1.53,3.85-2.19.75-.38.97-.92.97-1.67,0-5.1,0-10.19,0-15.29,0-7.33-.04-14.65.03-21.98.01-1.41-.41-2.24-1.66-2.92-3.71-2.04-7.36-4.18-11.03-6.29-3.98-2.3-7.95-4.61-11.93-6.91-3.25-1.88-6.52-3.73-9.76-5.61-.55-.32-1-.33-1.55,0-3.81,2.22-7.64,4.42-11.46,6.62-3.82,2.2-7.64,4.41-11.46,6.61-3.47,2-6.93,4-10.4,5.99-.59.34-.87.75-.87,1.46.02,12.86.02,25.73,0,38.59,0,.62.2,1.04.71,1.33,2.99,1.73,5.98,3.46,8.99,5.16.82.47,1.69.87,2.67.89.23.15.51,0,.75.11,2.27.13,4.27-1.34,4.72-3.49.16-.23,0-.51.12-.74,0-.32.03-.64.03-.95,0-12.42,0-24.83,0-37.25,0-1.55.08-1.62,1.67-1.62,1,0,2.01,0,3.01,0,1.31,0,1.61.29,1.61,1.58,0,12.86,0,25.72,0,38.57,0,.12.02.24.02.37-.15.34.02.72-.11,1.07-.26,1.66-.69,3.28-1.61,4.71-1.35,2.11-3.34,3.27-5.74,3.79-.45.1-.9.14-1.36.21-.98.08-1.95.07-2.93,0-2.53-.27-4.81-1.24-6.99-2.5-2.73-1.58-5.49-3.1-8.2-4.7-2.04-1.21-3.39-3.04-3.42-5.41-.11-8.94-.06-17.89-.07-26.83,0-4.41,0-8.82,0-13.23,0-2.8,1.27-4.9,3.68-6.3,5.4-3.14,10.81-6.26,16.22-9.38,4.35-2.51,8.72-5,13.07-7.5,1.43-.82,2.84-1.67,4.27-2.49.91-.52,1.9-.81,2.92-.98.3-.11.62.04.92-.1.07,0,.14,0,.21,0,.29.14.62,0,.92.1Z"/>
    <path class="cls-22" d="M197.11,77.8c.1-1.95,1.34-3.04,2.9-3.94,5.78-3.31,11.54-6.65,17.31-9.97,4.02-2.31,8.04-4.61,12.06-6.92,1.94-1.11,3.87-2.24,5.83-3.33,1.59-.88,3.17-.79,4.74.12,2.91,1.7,5.83,3.37,8.75,5.04.96.55,2.17-.17,2.3-1.34.03-.24,0-.49,0-.73,0-18.01,0-36.02,0-54.03,0-.67-.04-1.35.45-1.92.75-.86,1.85-1.03,2.97-.41,2.21,1.22,4.4,2.45,6.6,3.68,4.72,2.63,9.43,5.28,14.17,7.89,1.44.79,2.42,1.87,2.73,3.51.09.26.04.53.04.8,0,34.46,0,68.93,0,103.39,0,.27.05.54-.05.8-.42,1.9-1.77,2.93-3.38,3.81-2.44,1.34-4.82,2.8-7.23,4.2-2.04,1.18-4.1,2.31-6.14,3.49-3.54,2.04-7.08,4.07-10.61,6.13-3.27,1.92-6.59,3.74-9.83,5.72-.74.46-1.54.88-2.41,1.08-.49.1-.98.07-1.46.01-1.41-.12-2.45-1.04-3.62-1.68-2.09-1.15-4.15-2.37-6.22-3.57-1.65-.95-3.29-1.91-4.94-2.86-1.82-1.05-3.65-2.09-5.47-3.15-1.67-.97-3.33-1.95-5-2.91-2.15-1.24-4.31-2.46-6.46-3.69-2-1.15-4.01-2.27-5.97-3.47-1.25-.76-2.01-1.89-2.07-3.41-.09-.24-.05-.49-.05-.73,0-13.63,0-27.26,0-40.89,0-.24-.04-.49.04-.73Z"/>
    <path class="cls-22" d="M80.8,104.26c0,2.16-.02,4.31-.03,6.47,0,7.25-.01,14.5-.02,21.75,0,1.77-1.09,2.73-2.8,2.49-.63-.09-1.09-.53-1.62-.82-2.23-1.25-4.42-2.56-6.64-3.82-2.13-1.22-4.28-2.41-6.42-3.63-2.52-1.44-5.06-2.85-7.52-4.38-1.09-.68-1.85-1.76-1.85-3.15-.02-8.52-.07-17.05,0-25.57.02-2.64-1.19-4.24-3.42-5.4-2.08-1.08-4.07-2.34-6.13-3.48-1.02-.57-1.95-1.27-3.13-1.56-1.08-.26-2.07-.05-2.98.45-2.13,1.18-4.21,2.48-6.33,3.68-1.07.6-2.16,1.15-3.18,1.83-.97.65-1.56,1.57-1.67,2.76-.12.28-.06.58-.06.87,0,8.43,0,16.86,0,25.28,0,.27.04.54-.04.8-.2,1.93-1.26,3.19-2.94,4.1-2.3,1.24-4.53,2.6-6.79,3.9-1.77,1.02-3.56,2.01-5.33,3.03-2.25,1.29-4.47,2.62-6.74,3.88-.82.45-1.6.98-2.5,1.3-.29.07-.59.08-.88,0-.94-.15-1.4-.79-1.65-1.64-.1-1.7-.01-3.39-.05-5.09,0-.29.05-.58-.06-.86.02-.29.05-.58.05-.87C.06,110.19.04,93.82,0,77.46c0-1.2.24-2.26.93-3.23.45-.64,1.12-.98,1.74-1.34,5.25-3.03,10.53-6.01,15.78-9.04,4.79-2.75,9.56-5.54,14.35-8.31,1.68-.97,3.38-1.89,5.04-2.87,1.82-1.07,3.55-.85,5.3.16,4.81,2.79,9.64,5.57,14.46,8.34,6.73,3.88,13.44,7.78,20.2,11.6,1.54.87,2.65,1.93,2.99,3.7.08.19.05.39.05.58,0,8.88,0,17.75,0,26.63,0,.19.03.39-.05.58Z"/>
    <path class="cls-13" d="M192.58,203.27c-.19-.01-.38-.02-.57-.04-.24-.15-.52,0-.76-.12-3.06-.41-5.96-1.23-8.48-3.12-1.97-1.47-3.16-3.43-3.84-5.73-.32-1.09-.3-2.23-.34-3.36-.02-.71.34-.99.96-1,1.44-.03,2.89-.04,4.33,0,.55.01.95.31,1.05.93.08.53.21,1.05.35,1.56.63,2.37,2.23,3.75,4.54,4.37.94.25,1.88.51,2.87.46.24.14.52,0,.76.11.43.01.86.03,1.29.04,1.16.1,2.31.1,3.47,0,.43-.01.86-.03,1.28-.04.25-.1.53.03.77-.1,1.95-.14,3.79-.61,5.27-2,.78-.73,1.1-1.65,1.18-2.68.1-.33.09-.65,0-.98-.13-1.49-1.2-2.12-2.41-2.59-1.66-.64-3.39-.99-5.16-1.21-.55-.07-1.13-.1-1.68-.27-.24-.14-.52,0-.76-.11l-.56-.03c-.24-.14-.52,0-.76-.11-2.24-.16-4.47-.45-6.66-.94-2.38-.53-4.7-1.29-6.53-2.99-1.41-1.31-2.23-2.98-2.37-4.93-.01-.19-.04-.39-.06-.58-.07-.68-.08-1.36,0-2.05.19-2.6,1.25-4.8,3.23-6.49,1.71-1.46,3.76-2.27,5.94-2.78,1.31-.31,2.63-.48,3.96-.62.45-.13.92.05,1.37-.11.66,0,1.31,0,1.97,0,.54.16,1.11-.03,1.66.11.29.01.57.02.86.04.24.14.52,0,.76.11,2.35.36,4.68.81,6.8,1.96,3.04,1.64,4.84,4.2,5.56,7.54.13.61.22,1.24.33,1.86.07.24.08.49-.01.73-.33.53-.8.71-1.42.7-1.27-.03-2.54-.03-3.81,0-.74.02-1.1-.34-1.24-1.02-.37-1.8-1.15-3.36-2.75-4.39-1.29-.83-2.71-1.26-4.25-1.33-.45-.02-.89-.25-1.36-.15-1.3-.1-2.61-.1-3.91,0-1.99.13-3.97.3-5.62,1.6-.85.67-1.31,1.54-1.26,2.64-.1.27-.1.54,0,.81-.11,1.15.61,1.74,1.51,2.17,1.37.66,2.85.9,4.33,1.17,4.32.78,8.72,1.07,12.97,2.21,1.51.4,2.96.93,4.3,1.73,2.53,1.5,3.6,3.85,3.84,6.66.07.58.07,1.17,0,1.75-.48,4.86-3.28,7.81-7.72,9.43-1.66.61-3.38.91-5.11,1.19-.25.11-.53-.02-.77.11-.28.01-.57.03-.85.04-.55.14-1.11-.05-1.66.11-.26,0-.52,0-.78,0-.6-.15-1.21.03-1.81-.1-.43-.01-.86-.03-1.29-.04-.29-.14-.62,0-.92-.11Z"/>
    <path class="cls-10" d="M139.32,144.1c-1.58.26-2.79-.64-4.04-1.35-3.05-1.73-6.07-3.5-9.11-5.26-3.48-2.01-6.97-4.02-10.45-6.04-3.48-2.01-6.98-4-10.45-6.04-1.64-.97-3.34-1.82-4.91-2.91-.25-.17-.46-.34-.61-.59-.24-.45.05-.79.26-1.14,1.83-3.16,3.68-6.32,5.52-9.48,2.03-3.42,4.02-6.86,6.02-10.3.66-1.02,1.22-2.1,1.86-3.13.13-.2.21-.44.46-.55.66.35.79,1.06,1.15,1.62.93,1.66,1.82,3.35,2.78,5,1.03,2.03,2.19,3.98,3.26,5.99,1.12,2.02,2.22,4.06,3.36,6.07,1.42,2.73,2.96,5.39,4.43,8.09,1.45,2.7,2.95,5.37,4.42,8.05.54.99,1.1,1.97,1.61,2.97,1.51,2.7,2.98,5.41,4.47,8.12.15.27.44.6-.04.87Z"/>
    <path class="cls-28" d="M134.75,135.16c-1.19-2.15-2.39-4.3-3.58-6.45-.7-1.26-1.4-2.51-2.09-3.77-.14-.25-.24-.53-.35-.8-.06-.49-.09-.97-.09-1.46,0-21.3,0-42.6,0-63.9,0-.32-.02-.64.1-.94,1.72-1.02,3.43-2.03,5.15-3.04.33-.19.73-.25,1.02-.51.32.15.34.45.37.74.03.32.02.64.02.95,0,25.86,0,51.72,0,77.58,0,.39.04.79-.05,1.17-.05.25-.08.58-.5.43Z"/>
    <path class="cls-26" d="M134.75,135.16c.2-.03.3-.14.3-.34,0-.22,0-.44,0-.66,0-26.27,0-52.54,0-78.8,0-.36.07-.74-.14-1.08,1.33-.83,2.61-1.8,4.32-1.62.19.02.4-.05.54.14.17.11.3.25.33.45.24.89.2,1.79.2,2.7,0,28.71,0,57.42,0,86.13,0,.65.1,1.34-.38,1.9-.17.21-.39.13-.6.12.28-.34-.02-.6-.15-.86-1.45-2.65-2.92-5.3-4.38-7.94-.02-.04-.02-.09-.03-.14Z"/>
    <path class="cls-33" d="M139.92,143.98c.25-1.34.13-2.7.13-4.05,0-25.35.01-50.7,0-76.06,0-3.59.18-7.19-.14-10.78.35-.03.45.26.57.48,1.23,2.16,2.5,4.29,3.75,6.43.21.36.42.72.35,1.17.13.75.13,1.51.13,2.27,0,25.38,0,50.76,0,76.15,0,.7.11,1.43-.38,2.05-1.25.84-2.57,1.58-3.92,2.24-.16.08-.32.09-.48.1Z"/>
    <path class="cls-2" d="M144.33,141.63c.28-2,.13-4,.14-6.01.01-24.34,0-48.69.03-73.03,0-.57-.34-1.14-.02-1.72.37-.01.47.31.6.55.23.4.47.8.7,1.2.94,1.63,1.89,3.25,2.84,4.87.21.36.43.72.34,1.17.02.44.02.88.02,1.32,0,22.4,0,44.79,0,67.19,0,.6.18,1.22-.08,1.81-1.47.97-3,1.84-4.56,2.65Z"/>
    <path class="cls-14" d="M148.89,138.99c-.13-.4-.16-.81-.16-1.23,0-22.82,0-45.65.01-68.47,0-.3-.12-.64.14-.91.33-.04.4.25.51.44,1.48,2.5,2.92,5.03,4.39,7.53.15.26.23.54.14.84-.09.49-.09.98-.09,1.47,0,18.62,0,37.24,0,55.86,0,.55.17,1.12-.08,1.67-1.57,1.02-3.19,1.95-4.85,2.8Z"/>
    <path class="cls-6" d="M128.74,57.82c.18.26.14.56.14.85,0,21.51,0,43.02,0,64.53,0,.32.03.64-.15.93-1.2-1.9-2.19-3.92-3.29-5.88-.4-.72-.89-1.41-1.14-2.21.16-5.97.06-11.95.07-17.92.02-11.88,0-23.75.01-35.63,0-.68-.08-1.37-.05-2.05.5-.53,1.19-.75,1.78-1.12.86-.53,1.75-1,2.63-1.5Z"/>
    <path class="cls-19" d="M145.65,62.65c-.53-.5-.65-1.27-1.18-1.77-1.46-2.63-2.95-5.25-4.56-7.79-.05-.1-.1-.2-.15-.3.81-.03,1.41.47,2.06.83,2.99,1.7,5.96,3.41,8.93,5.13.08.05.13.14.2.2,2.28,3.06,4.54,6.14,6.81,9.21,2.21,2.99,4.43,5.98,6.63,8.98,2.05,2.8,4.15,5.58,6.19,8.39.27.38.57.73.87,1.09.11.46-.18.79-.38,1.14-.46.8-.86,1.63-1.32,2.42-.5.73-.74,1.63-1.4,2.27-.61.09-.86-.39-1.14-.78-1.92-2.64-3.87-5.24-5.8-7.86-4.16-5.64-8.33-11.27-12.5-16.9-1.06-1.43-2.11-2.88-3.25-4.26Z"/>
    <path class="cls-3" d="M114.9,98.98c-.34-.54-.68-1.08-1.03-1.62-.76-.79-1.11-1.83-1.64-2.76-1.25-2.22-2.47-4.45-3.68-6.69-.12-.22-.26-.41-.4-.62-1.79-3.14-3.41-6.37-5.17-9.53-.63-1.13-1.28-2.25-1.86-3.4-.08-.15-.2-.28-.17-.47,1.59-.95,3.18-1.9,4.77-2.83,2.44-1.42,4.88-2.83,7.33-4.24.56-.32,1.14-.6,1.7-.9.3.12.33.4.36.67.03.27.02.54.02.81,0,10.09,0,20.17,0,30.26,0,.45.11.94-.24,1.34Z"/>
    <path class="cls-13" d="M328.48,93.83c.74-.86,1.81-1.2,2.74-1.76,1.38-.83,2.8-1.61,4.18-2.44.44-.26.86-.32,1.3-.07,2.26,1.29,4.51,2.58,6.75,3.88.26.15.45.38.52.68.08,2.69.07,5.38,0,8.08-.1.3-.22.57-.53.75-2.23,1.27-4.45,2.55-6.66,3.85-.42.25-.82.27-1.23.03-2.17-1.24-4.34-2.47-6.5-3.72-.23-.14-.53-.26-.57-.61-.12-1.45-.04-2.91-.04-4.37,0-1.43-.07-2.87.04-4.3Z"/>
    <path class="cls-29" d="M124.32,60.45c.3.25.29.6.29.94,0,17.91,0,35.82,0,53.72,0,.35,0,.69-.31.93-.77-1.01-1.24-2.19-1.89-3.27-.54-.9-.99-1.84-1.48-2.77-.17-.44-.24-.89-.24-1.36,0-15.18.01-30.37,0-45.55,0-.19.06-.39,0-.58,1.19-.73,2.33-1.54,3.65-2.06Z"/>
    <path class="cls-25" d="M153.74,136.19c-.13-.4-.16-.81-.16-1.23,0-18.96,0-37.93,0-56.89,0-.41-.09-.84.29-1.16.39.01.52.34.67.6.72,1.25,1.46,2.5,2.17,3.75.19.33.3.67.31,1.04,0,.34.03.68.03,1.03,0,16.55,0,33.11,0,49.66,0,.48.11.99-.23,1.42-1,.64-2,1.28-3.09,1.77Z"/>
    <path class="cls-4" d="M171.39,86.62c-.68-.25-.91-.92-1.28-1.43-3.31-4.43-6.59-8.88-9.87-13.33-2.95-4-5.9-8-8.84-12-.2-.27-.44-.53-.44-.91,1.59.72,3.04,1.7,4.56,2.55,3.15,1.77,6.26,3.61,9.39,5.42.06.04.11.09.17.13.89,1.41,1.95,2.7,2.94,4.04,2.05,2.78,4.09,5.56,6.15,8.33.24.32.49.61.8.86.08.29-.08.52-.21.75-.94,1.64-1.77,3.35-2.78,4.96-.15.24-.27.53-.58.63Z"/>
    <path class="cls-8" d="M156.83,134.42c0-16.97-.01-33.94.02-50.91,0-1.21-.29-2.22-.94-3.21-.72-1.1-1.35-2.26-2.02-3.39-1.67-2.84-3.33-5.69-5-8.53-.98-1.69-1.96-3.39-2.95-5.08-.12-.21-.27-.4-.29-.66.47.24.79.65,1.08,1.05,3.97,5.33,7.92,10.68,11.87,16.03,2.94,3.98,5.87,7.96,8.81,11.94.22.3.42.68.89.69.22.34-.1.53-.23.76-.14.25-.27.51-.4.77-.28.34-.32.88-.86,1-.37-.13-.57-.46-.78-.75-2.81-3.83-5.64-7.63-8.45-11.43.03.04.07.1.11.16.88,1.24,1.17,2.57,1.16,4.12-.06,14.75-.03,29.51-.04,44.27,0,.66.04,1.32.09,1.98-.66.45-1.34.84-2.06,1.18Z"/>
    <path class="cls-9" d="M120.68,62.5c.45.16.25.54.25.82.01,8.38,0,16.76,0,25.14,0,7.18,0,14.36,0,21.54-1.12-1.98-2.3-3.93-3.25-6.01-.13-.25-.09-.53-.09-.79.03-12.43,0-24.87.02-37.3,0-.54-.13-1.07-.06-1.61.97-.71,2.09-1.19,3.12-1.79Z"/>
    <path class="cls-10" d="M179.02,119.71c0,1.2-.61,2.16-1.53,2.75-2.49,1.62-5.08,3.07-7.71,4.47-.28-.27-.24-.63-.24-.97,0-6.85,0-13.71,0-20.56,0-.34-.02-.69.22-.98.43-.21.56.15.72.41.5.81.96,1.65,1.46,2.46,2.22,3.83,4.48,7.65,6.71,11.48.17.3.32.6.37.94Z"/>
    <path class="cls-23" d="M158.89,133.24c-.36-.29-.3-.7-.3-1.08,0-15.27-.03-30.53.05-45.8,0-1.53-.77-2.54-1.35-3.74-.09-.19-.27-.35-.26-.63.27-.06.38.15.5.31,2.96,4,5.91,8,8.87,12,.16.22.33.43.57.56.07.74-.59,1.16-.77,1.79-.11.18-.2.39-.43.46-.48-.21-.6-.72-.86-1.11-.31-.46-.58-.94-.86-1.42-.48-1.05-1.23-1.94-1.75-2.97-.44-.7-.83-1.44-1.36-2.17-.31.43-.21.86-.21,1.25,0,6.37,0,12.74,0,19.12,0,6.72,0,13.43,0,20.15,0,.71.02,1.42.21,2.11-.68.39-1.37.79-2.05,1.18Z"/>
    <path class="cls-15" d="M117.56,64.29c.22.25.3.53.3.87,0,12.63,0,25.26,0,37.89,0,.33-.1.62-.16.93-.84-1.11-1.37-2.4-2.06-3.6-.26-.46-.63-.88-.73-1.42,0-10.74,0-21.48,0-32.22,0-.29.04-.59-.14-.85.85-.67,1.92-.99,2.79-1.62Z"/>
    <path class="cls-17" d="M171.39,86.62c1.25-2.07,2.4-4.19,3.52-6.32-.18-.25-.02-.46.09-.67.78-1.45,1.64-2.87,2.45-4.31.12-.21.21-.52.57-.47.61.67,1.02,1.43,1.02,2.36.14.25.07.53.07.79,0,5.53,0,11.06,0,16.59.02.31-.14.38-.41.33-.19-.04-.37-.13-.54-.22-2.68-1.3-5.3-2.72-8.02-3.95-.25-.11-.58-.21-.52-.6.45-.85.9-1.69,1.34-2.54.16-.32.39-.61.43-.99Z"/>
    <path class="cls-24" d="M165.8,97.06c.1-.15.2-.29.29-.44,2.51,1.43,5.12,2.68,7.73,3.9,1.7.8,3.34,1.75,5.09,2.45.12.05.19.14.2.28,0,.97,0,1.93,0,2.9,0,.28-.2.3-.41.28-.22-.02-.42-.13-.61-.23-2.47-1.28-5.02-2.38-7.49-3.66-.65-.34-1.28-.79-2.09-.5-.38-.28-.51-.77-.86-1.1-.25.24-.15.53-.15.78,0,8.4,0,16.8,0,25.2,0,.44.07.88.06,1.32-.52.32-.99.73-1.6.89-.41.01-.46-.3-.51-.59-.05-.29-.03-.59-.03-.88,0-9.6,0-19.19,0-28.79,0-.62-.09-1.28.38-1.82Z"/>
    <path class="cls-27" d="M160.95,132.06c-.4-.07-.35-.43-.42-.69-.06-.21-.02-.44-.02-.66,0-13.45,0-26.91,0-40.36,0-.5-.11-1.26.31-1.39.37-.11.56.68.8,1.08.34.56.79,1.06.95,1.72-.13,12.66-.02,25.31-.06,37.97,0,.45.11.87.21,1.3-.59.34-1.18.69-1.77,1.03Z"/>
    <path class="cls-18" d="M162.72,131.03c-.55-.17-.44-.63-.44-1.03,0-3.84,0-7.68,0-11.53,0-8.54,0-17.08,0-25.62,0-.39-.06-.79.29-1.09.52.94,1.31,1.73,1.62,2.79.08.53.09,1.07.09,1.61,0,11.04,0,22.08,0,33.12,0,.29.02.59-.08.87-.44.38-.97.61-1.48.88Z"/>
    <path class="cls-5" d="M167.56,128.24c-.31-.14-.29-.42-.29-.69,0-8.86,0-17.72,0-26.58,0-.22-.05-.5.2-.58.3-.1.3.24.41.41.29.42.57.84.86,1.27.58.71,1.17,1.41,1.32,2.35-.45.09-.29.46-.29.72,0,7.27,0,14.53,0,21.8-.68.54-1.46.9-2.21,1.31Z"/>
    <path class="cls-20" d="M105.64,111.33c-.46,1.11-1.15,2.09-1.75,3.12-1.29,2.24-2.6,4.47-3.9,6.7-.14.23-.26.47-.24.76-.67-.92-1-1.93-1-3.1.02-13.57,0-27.13.01-40.7,0-.29.02-.59.03-.88.35.19.3.53.3.84,0,1.63.03,3.26,0,4.89.04,3.87.04,7.75,0,11.62,0,4.02.02,8.03-.02,12.05,0,.77.25,1.18.95,1.52,1.63.79,3.27,1.56,4.9,2.36.34.17.75.31.72.81Z"/>
    <path class="cls-11" d="M98.89,82.94c0-1.66,0-3.33-.02-4.99,0-.24.06-.49-.07-.72.14-1.49.8-2.65,2.16-3.35.58.49.78,1.23,1.13,1.86,1.48,2.64,2.88,5.32,4.32,7.99.62,1.16,1.26,2.31,1.89,3.47,0,.38-.27.26-.46.23-.22-.03-.41-.16-.6-.26-2.59-1.26-5.12-2.64-7.75-3.8-.23-.1-.43-.23-.58-.43Z"/>
    <path class="cls-7" d="M164.2,130.16c-.25-.21-.16-.5-.16-.76,0-11.36,0-22.72,0-34.08,0-.26-.1-.54.14-.76.54.83,1.08,1.67,1.62,2.5-.27,1.7-.14,3.41-.14,5.12-.01,8.66,0,17.32,0,25.98,0,.34-.14.76.3.97-.53.45-1.14.75-1.77,1.03Z"/>
    <path class="cls-31" d="M178.03,74.85c-1.15,1.75-2.18,3.57-3.11,5.45-.45.07-.58-.33-.77-.58-1.71-2.28-3.39-4.58-5.09-6.87-1.22-1.64-2.43-3.29-3.66-4.93-.2-.26-.36-.52-.34-.86,3.52,2.03,7.05,4.05,10.57,6.08.85.49,1.8.85,2.39,1.7Z"/>
    <path class="cls-32" d="M179.03,106.32c0-1.08,0-2.16,0-3.24-.21-.24-.21-.54-.21-.83,0-.95-.02-1.9,0-2.85-.02-1.19-.01-2.39-.01-3.58,0-.34-.02-.69.21-.98l.02-17.64c.21.26.12.56.12.85,0,13.52,0,27.05,0,40.57,0,.37-.06.73-.14,1.08-2.07-3.52-4.15-7.04-6.21-10.57-.34-.58-.65-1.19-.97-1.78-.13-.45.19-.42.44-.39.37.04.69.22,1.02.39,1.59.8,3.18,1.6,4.78,2.39.67.33.75.27.76-.45,0-.71,0-1.42,0-2.12,0-.29-.02-.59.18-.84Z"/>
    <path class="cls-21" d="M98.89,82.94c2.15.81,4.13,1.97,6.2,2.96.84.4,1.66.84,2.49,1.24.22.1.45.37.71.06.83,1.09,1.36,2.35,2.04,3.53,1.19,2.07,2.3,4.18,3.44,6.27.06.1.07.23.11.34-.71,1.24-1.36,2.52-2.21,3.68-4.21-2.06-8.39-4.17-12.61-6.19-.07-.03-.12-.08-.17-.13,0-3.92,0-7.84,0-11.76Z"/>
    <path class="cls-1" d="M98.89,94.71c.36-.05.66.12.97.27,2.43,1.22,4.85,2.44,7.29,3.64,1.31.65,2.64,1.27,3.96,1.91.23.11.54.15.57.5-.95,1.92-2.13,3.7-3.17,5.57-.81,1.44-1.66,2.86-2.49,4.29-.1.17-.17.36-.36.44-.51-.69-1.33-.9-2.04-1.22-1.5-.66-2.92-1.48-4.42-2.14-.31-.13-.31-.33-.31-.58,0-4.23.01-8.46.02-12.69Z"/>
    <path class="cls-16" d="M179.02,94.85c0,1.52,0,3.04,0,4.56-.4.15-.71-.09-1.04-.24-2.75-1.23-5.41-2.65-8.11-3.98-.57-.28-1.13-.58-1.73-.82-.25-.1-.59-.15-.58-.54.04-.59.59-.93.74-1.47.52-.69.76-1.55,1.32-2.21.36.54,1,.56,1.51.82,2.37,1.21,4.76,2.39,7.14,3.58.24.12.49.2.74.3Z"/>
    <path class="cls-5" d="M167.57,93.83c.39.41.96.47,1.43.71,2.4,1.22,4.81,2.42,7.22,3.61.92.45,1.87.84,2.8,1.26,0,1.23,0,2.45,0,3.68-.31.04-.57-.07-.84-.2-3.81-1.89-7.63-3.77-11.44-5.66-.27-.13-.63-.2-.65-.61.13-.67.65-1.14.88-1.76.06-.42.33-.72.59-1.03Z"/>
    <path class="cls-12" d="M179.03,106.32c0,1.12,0,2.25.02,3.37.02.6-.18.67-.68.42-1.76-.9-3.54-1.78-5.31-2.66-.26-.13-.54-.22-.81-.33-.23-.09-.38-.03-.41.23-.71-.91-1.2-1.94-1.77-2.94-.4-.81-1-1.51-1.32-2.35.18-.58.52-.4.91-.21,2.85,1.41,5.7,2.8,8.55,4.2.26.13.51.31.82.27Z"/>
  </g>
  <path class="cls-30" d="M251.83,99.5c0,2.37-.02,4.73,0,7.1,0,.79-.29,1.29-.99,1.69-4.13,2.35-8.24,4.73-12.35,7.12-.69.4-1.27.39-1.96,0-4.08-2.38-8.18-4.74-12.29-7.08-.75-.42-1.06-.95-1.06-1.81.03-4.71.03-9.42,0-14.13,0-.86.32-1.38,1.06-1.8,4.11-2.33,8.2-4.7,12.28-7.09.69-.41,1.26-.4,1.95,0,4.13,2.41,8.26,4.8,12.42,7.17.68.39.93.89.92,1.64-.02,2.39,0,4.79,0,7.18h0Z"/>
</svg>