<?xml version="1.0" encoding="UTF-8"?>
<svg id="Camada_1" data-name="Camada 1" xmlns="http://www.w3.org/2000/svg" viewBox="0 0 670.74 250.99">
  <defs>
    <style>
      .cls-1 {
        fill: #a55c43;
      }

      .cls-1, .cls-2, .cls-3, .cls-4, .cls-5, .cls-6, .cls-7, .cls-8, .cls-9, .cls-10, .cls-11, .cls-12, .cls-13, .cls-14, .cls-15, .cls-16, .cls-17, .cls-18, .cls-19, .cls-20 {
        stroke-width: 0px;
      }

      .cls-2 {
        fill: #a87d71;
      }

      .cls-3 {
        fill: #b59183;
      }

      .cls-4 {
        fill: #ea7b2d;
      }

      .cls-5 {
        fill: #fbfbfb;
      }

      .cls-6 {
        fill: #86382b;
      }

      .cls-7 {
        fill: #ad684e;
      }

      .cls-8 {
        fill: none;
      }

      .cls-9 {
        fill: #200e0f;
      }

      .cls-10 {
        fill: #fefefe;
      }

      .cls-11 {
        fill: #f9c26d;
      }

      .cls-12 {
        fill: #b99789;
      }

      .cls-13 {
        fill: #a5a5a6;
      }

      .cls-14 {
        fill: #bfa496;
      }

      .cls-15 {
        fill: #cebbb2;
      }

      .cls-16 {
        fill: #dbcab7;
      }

      .cls-17 {
        fill: #a5a6a6;
      }

      .cls-18 {
        fill: #e6d5be;
      }

      .cls-19 {
        fill: #fff;
      }

      .cls-20 {
        fill: #b36c50;
      }
    </style>
  </defs>
  <g>
    <path class="cls-13" d="M135.01,178.47c-2.29,0-4.59-.05-6.88.03-.96.03-1.29-.34-1.5-1.2-.67-2.73-1.43-5.44-2.1-8.17-.18-.75-.52-.98-1.27-.98-5.29.02-10.58.03-15.87,0-.77,0-1.06.27-1.24,1-.68,2.68-1.48,5.34-2.13,8.03-.24.98-.62,1.34-1.67,1.33-4.54-.06-9.08-.05-13.62,0-1.07.01-1.35-.16-.98-1.29,5.76-17.59,11.47-35.19,17.17-52.79.27-.83.66-1.06,1.49-1.05,5.82.04,11.64.04,17.46,0,.94,0,1.27.32,1.55,1.16,5.76,17.58,11.55,35.16,17.37,52.73.33,1,.2,1.29-.9,1.26-2.29-.07-4.58-.02-6.88-.02ZM115.32,133.06c-.06,0-.12,0-.19.01-.18.85-.37,1.71-.55,2.56-1.35,6.45-3.08,12.8-4.78,19.16-.22.84-.27,1.26.85,1.24,3.12-.07,6.25-.05,9.37,0,1.02.02,1.15-.27.88-1.23-.9-3.17-1.71-6.36-2.52-9.54-1.04-4.06-2.04-8.13-3.06-12.2Z"/>
    <path class="cls-17" d="M338.51,143.18c0-6.93.03-12.66-.02-18.39,0-1,.27-1.25,1.25-1.23,4.14.06,8.29.06,12.43,0,1.02-.02,1.22.3,1.22,1.26-.03,10.22-.02,20.44-.03,30.66,0,1.59.08,3.17.44,4.72,1.02,4.51,3.5,6.52,8.07,6.59,5.06.07,7.74-2.26,8.47-7.3.19-1.32.24-2.63.24-3.95,0-9.34,0-18.68,0-28.02,0-.97.05-1.94-.01-2.91-.05-.8.2-1.06,1.03-1.05,4.27.04,8.55.03,12.83,0,.72,0,.99.17.99.95-.04,11.46.14,22.91-.13,34.36-.17,6.93-2.91,12.83-8.98,16.75-3.22,2.08-6.82,3.03-10.59,3.36-5,.43-9.97.22-14.71-1.59-7.35-2.8-11.26-8.35-12.17-16.01-.77-6.45-.11-12.94-.31-18.2Z"/>
    <path class="cls-13" d="M.03,151.06c0-8.73.02-17.45-.02-26.18,0-1.03.26-1.33,1.31-1.32,6.48.06,12.96,0,19.44.07,3.14.04,6.23.55,9.17,1.73,5.71,2.28,8.91,6.54,9.69,12.6.64,5.02.09,9.87-2.67,14.23-2.88,4.55-7.31,6.68-12.45,7.62-2.76.51-5.53.42-8.3.38-1.06-.02-1.34.32-1.33,1.35.05,5.2,0,10.4.04,15.6,0,1.02-.24,1.37-1.31,1.35-4.05-.06-8.11-.06-12.17,0-1.09.02-1.42-.28-1.41-1.39.04-8.68.02-17.36.02-26.04ZM17.66,135.52h0c-.66,0-1.32.02-1.98-.01-.63-.04-.86.21-.86.84.02,3.7.01,7.4,0,11.1,0,.47.12.74.66.74,1.72-.01,3.43.08,5.09-.53,3.06-1.12,4.71-4.18,4.17-7.82-.4-2.71-2.48-4.23-5.91-4.31-.4,0-.79,0-1.19,0Z"/>
    <path class="cls-13" d="M245.49,151.05c0-8.73.02-17.45-.02-26.18,0-1.05.29-1.32,1.32-1.31,5.95.05,11.9.02,17.86.03,3.41,0,6.77.37,10.01,1.51,6.28,2.22,9.76,6.68,10.47,13.27.61,5.61-.18,10.93-3.9,15.43-3.38,4.1-8.03,5.67-13.12,6.28-2.11.25-4.23.17-6.34.12-1.14-.03-1.51.25-1.5,1.45.07,5.16,0,10.31.06,15.47.01,1.13-.33,1.39-1.41,1.38-4.01-.06-8.02-.06-12.04,0-1.09.02-1.42-.28-1.41-1.39.05-8.68.02-17.36.03-26.05ZM260.29,141.96c0,1.01,0,2.02,0,3.03q0,3.4,3.47,3.16c3.4-.24,5.73-2.21,6.41-5.42.83-3.93-1.07-6.76-4.9-7.15-1.39-.14-2.81-.03-4.22-.08-.7-.02-.78.36-.77.91.02,1.84,0,3.69,0,5.54Z"/>
    <path class="cls-13" d="M394.37,169.19c0-1.85.04-3.7-.02-5.55-.03-.96.25-1.03,1.03-.64,3.85,1.93,7.92,3.18,12.17,3.79,2.17.32,4.37.56,6.58.16,2.45-.44,3.96-2.11,3.79-4.28-.1-1.21-.81-2.02-1.7-2.7-1.45-1.1-3.11-1.82-4.74-2.58-3.47-1.62-7.03-3.03-10.18-5.27-5.54-3.95-7.18-9.5-6.33-15.92.83-6.22,4.8-9.87,10.49-11.89,3.66-1.3,7.46-1.65,11.32-1.46,5.2.26,10.17,1.43,14.96,3.46.83.35,1.02.67.66,1.52-1.28,3.09-2.51,6.19-3.7,9.31-.33.86-.66.98-1.51.62-4.02-1.73-8.12-3.16-12.6-3.07-1.02.02-2.02.18-2.97.56-2.32.94-2.87,3.24-1.24,5.14.76.88,1.76,1.46,2.79,1.96,3.32,1.63,6.68,3.16,9.96,4.86,2.91,1.51,5.63,3.31,7.42,6.18,3.91,6.25,3.15,17.53-5.93,22.6-3.67,2.05-7.59,2.98-11.74,3.12-6,.2-11.87-.32-17.43-2.86-.89-.4-1.14-.87-1.11-1.78.06-1.76.02-3.52.02-5.29Z"/>
    <path class="cls-13" d="M188.59,123.58c5.27,0,10.29.02,15.31-.02.84,0,1.02.5,1.27,1.06,2.74,5.95,5.48,11.9,8.22,17.85.18.4.38.79.58,1.2.51-.22.55-.7.72-1.06,2.77-5.94,5.54-11.87,8.26-17.84.4-.88.85-1.23,1.85-1.22,4.85.06,9.69.03,14.55.03.1.59-.28.95-.5,1.36-5.53,10.26-11.06,20.52-16.61,30.77-.45.84-.68,1.66-.68,2.62.03,6.26,0,12.51.04,18.77,0,.97-.17,1.4-1.28,1.38-4.19-.06-8.37-.05-12.56,0-.94,0-1.18-.3-1.18-1.21.03-6.21,0-12.42.03-18.64,0-.87-.19-1.62-.6-2.38-5.52-10.32-11.02-20.64-16.53-30.97-.27-.5-.52-1-.89-1.7Z"/>
    <path class="cls-13" d="M173.26,157.09c0,6.65-.03,13.31.03,19.96.01,1.21-.36,1.46-1.49,1.44-3.97-.07-7.93-.07-11.9,0-1.15.02-1.48-.28-1.48-1.46.04-13.26,0-26.52.06-39.79,0-1.31-.37-1.6-1.62-1.57-3.52.09-7.05,0-10.58.05-.91.01-1.21-.23-1.2-1.17.05-3.3.05-6.61,0-9.91-.01-.91.32-1.07,1.14-1.07,13.09.02,26.18.02,39.27,0,.91,0,1.2.21,1.19,1.16-.06,3.26-.07,6.52,0,9.78.02,1.04-.34,1.23-1.29,1.22-3.61-.05-7.23.02-10.84-.04-1.03-.02-1.34.26-1.33,1.32.05,6.7.02,13.39.02,20.09Z"/>
    <path class="cls-17" d="M294.08,151.09c0-8.72.02-17.45-.03-26.17,0-1.11.29-1.39,1.38-1.37,4.01.07,8.02.07,12.03,0,1.14-.02,1.46.24,1.46,1.43-.05,13.35-.02,26.7-.06,40.04,0,1.14.24,1.48,1.43,1.46,6.13-.07,12.25,0,18.38-.06,1.13-.01,1.4.33,1.38,1.41-.07,3.13-.07,6.26,0,9.38.02,1.02-.31,1.25-1.27,1.25-11.15-.03-22.3-.04-33.45,0-1.11,0-1.27-.4-1.27-1.36.03-8.68.02-17.36.02-26.04Z"/>
    <path class="cls-17" d="M48.59,151.01c0-8.68.03-17.35-.03-26.03,0-1.22.35-1.43,1.47-1.42,4.01.07,8.02.07,12.03,0,1.09-.02,1.38.26,1.38,1.37-.04,13.35-.01,26.69-.05,40.04,0,1.16.24,1.55,1.49,1.54,6.12-.07,12.25,0,18.37-.06,1.03,0,1.35.25,1.33,1.31-.07,3.17-.06,6.34,0,9.51.02.95-.31,1.17-1.21,1.17-11.19-.03-22.38-.03-33.58,0-1.04,0-1.22-.34-1.21-1.28.03-8.72.02-17.44.02-26.16Z"/>
    <path class="cls-8" d="M115.32,133.06c1.02,4.07,2.03,8.14,3.06,12.2.81,3.19,1.63,6.38,2.52,9.54.27.95.14,1.24-.88,1.23-3.12-.05-6.25-.06-9.37,0-1.12.02-1.08-.4-.85-1.24,1.7-6.36,3.43-12.71,4.78-19.16.18-.86.37-1.71.55-2.56.06,0,.12,0,.19-.01Z"/>
    <path class="cls-8" d="M17.66,135.52c.4,0,.79,0,1.19,0,3.43.09,5.5,1.6,5.91,4.31.54,3.64-1.11,6.7-4.17,7.82-1.66.61-3.38.52-5.09.53-.54,0-.67-.27-.66-.74,0-3.7.01-7.4,0-11.1,0-.63.23-.87.86-.84.66.04,1.32,0,1.98,0h0Z"/>
    <path class="cls-8" d="M260.29,141.96c0-1.85,0-3.69,0-5.54,0-.55.08-.94.77-.91,1.4.05,2.82-.06,4.22.08,3.83.38,5.73,3.22,4.9,7.15-.68,3.21-3.01,5.18-6.41,5.42q-3.47.24-3.47-3.16c0-1.01,0-2.02,0-3.03Z"/>
    <path class="cls-5" d="M159.32,221.42c0-5.46.02-10.93-.02-16.39,0-.93.25-1.19,1.17-1.16,4.49.17,8.99-.28,13.47.29,7.22.91,12.43,6.23,13.3,13.46.37,3.09.33,6.16-.38,9.19-1.6,6.81-6.55,11.15-13.57,11.99-4.39.53-8.81.14-13.21.28-1,.03-.75-.63-.75-1.15,0-5.51,0-11.01,0-16.52ZM163.43,221.35c0,4.4.01,8.81-.01,13.21,0,.69.1,1.02.91.99,2.33-.1,4.67-.03,7-.2,5.56-.41,9.49-3.47,10.98-8.39.91-3.01.97-6.07.48-9.15-.92-5.78-3.93-8.89-9.64-10.01-2.83-.55-5.71-.29-8.56-.39-.91-.03-1.18.19-1.17,1.13.05,4.27.02,8.54.02,12.81Z"/>
    <path class="cls-10" d="M205.98,221.38c0-5.42.02-10.84-.02-16.25,0-.9.09-1.28,1.17-1.27,5.77.07,11.54.05,17.32,0,.91,0,1.19.19,1.17,1.14-.05,2.55,0,2.55-2.54,2.55-3.97,0-7.93.03-11.9-.02-.94-.01-1.17.27-1.16,1.18.06,2.99.06,5.99,0,8.99-.02.97.32,1.16,1.21,1.15,4.05-.04,8.11,0,12.16-.04.93-.01,1.32.14,1.29,1.2-.07,2.43,0,2.43-2.4,2.43-3.66,0-7.32.05-10.97-.03-1.09-.02-1.31.33-1.29,1.33.06,3.48.07,6.96,0,10.44-.02,1.03.3,1.23,1.26,1.21,4.36-.05,8.73,0,13.09-.05.95-.01,1.28.16,1.25,1.2-.07,2.5-.01,2.5-2.56,2.5-5.24,0-10.49-.03-15.73.03-1.05.01-1.4-.18-1.39-1.33.07-5.46.03-10.92.03-16.39Z"/>
    <path class="cls-5" d="M239.32,203.89c1.31,0,2.54.02,3.76,0,.61-.02.69.38.83.81,3.23,9.51,7.08,18.81,9.76,28.51.05.17.1.33.32.36,2.79-9.64,6.57-18.94,9.75-28.45.31-.92.71-1.37,1.75-1.25.99.11,2.01.02,3.15.02-1.42,3.93-2.79,7.72-4.15,11.51-2.73,7.55-5.47,15.1-8.15,22.67-.29.82-.66,1.04-1.48,1.03-2.94-.04-2.95,0-3.94-2.76-3.74-10.4-7.48-20.81-11.21-31.22-.13-.37-.23-.74-.39-1.23Z"/>
  </g>
  <g>
    <path class="cls-9" d="M503.79,223.62c-2.53-2.52-5.64-4.31-8.31-6.7-13.18-11.79-22.84-25.96-28.81-42.58-3.87-10.76-6.21-21.87-6.87-33.32-.27-4.75-.65-9.48-.29-14.24.03-.38.04-.76.1-1.13.52-3.21,2.15-4.05,5-2.51,3.48,1.88,6.5,4.45,9.73,6.69.49.34.94.72,1.41,1.09,1.4,1.09,2.59.86,3.56-.7,2.59-4.16,3.27-4.26,7.01-1.12.91.77,1.85,1.48,2.76,2.25.63.53,1.08.45,1.56-.23,1.18-1.68,2.16-3.37,2.32-5.54.22-3.01,1.08-5.94,1.8-8.86.25-1.01-.05-1.35-1.03-1.48-3.21-.44-6.4-.96-9.61-1.45-1.07-.16-2.09-.5-3.1-.91-1.82-.74-2.84-2.06-3.06-4.02-.68-6.01-.18-11.98.81-17.91,3.04-18.24,10.37-34.66,21.13-49.64,7.41-10.32,15.91-19.6,25.95-27.42,7.53-5.86,15.75-10.37,25.07-12.64,10.5-2.56,20.68-1.03,30.64,2.7,16.44,6.17,30.34,16.1,42.37,28.75,8.46,8.9,15.67,18.68,20.25,30.2,1.24,3.12,2.22,6.31,2.92,9.59.68,3.18-.04,4.74-2.76,6.59-4.11,2.79-8.45,5.22-12.8,7.61-1.29.71-1.32,1.29-.53,2.34,3.01,3.97,5.64,8.18,7.85,12.64.49,1,.99,1.33,1.91.53.2-.18.44-.31.67-.45,3.6-2.27,4.07-2.16,6.21,1.59.51.89.97,1.81,1.43,2.72.53,1.03,1.06,1.08,2,.32,3.68-2.99,7.38-5.97,11.44-8.45.55-.33,1.11-.67,1.69-.94,2.04-.89,3.6-.27,4.42,1.83.73,1.87,1.06,3.86,1.26,5.83,2.36,22.67-.12,44.84-7.42,66.4-5.39,15.93-14.24,29.8-26.08,41.75-3.2,3.23-6.88,5.89-10.41,8.75-.54.44-1.01.95-1.53,1.43-1.79,1.18-3.58,2.38-5.37,3.56-.15.05-.31.09-.44.18-12.1,7.66-25.44,11.85-39.53,13.73-8.94,1.19-17.92,1.4-26.94.45-10.14-1.08-19.96-3.34-29.44-7.07-4.98-1.96-9.64-4.55-14.26-7.21-1.56-1-3.1-2.01-4.66-3.01h0ZM647.65,186.78c.1-.13.19-.26.29-.38.12-.21.24-.42.37-.63.13-.22.26-.43.39-.65.28-.28.49-.6.53-1,1.24-2.18,2.48-4.36,3.3-6.74l-.02-.02c.29-.13.33-.39.35-.66h-.02c.28-.13.29-.41.32-.67l-.02.02c2.76-5.68,4.63-11.66,6.15-17.76,1.2-4.85,2.35-9.72,2.87-14.7.01-.22.02-.43.04-.65-.02-.21-.04-.43-.05-.64.14-.46.35-.9.41-1.36.33-2.56.7-5.12.93-7.7.54-6.18.57-12.37.22-18.56.03-.53.1-1.08.08-1.61-.03-.78.19-1.81-.58-2.17-.78-.36-1.47.43-2.11.91-4.15,3.12-7.27,7.17-10.29,11.33-2.98,4.12-5.07,8.74-7.5,13.17-1.39,2.52-3.29,4.22-6.12,5.13-3.03.97-6.12,1.66-9.18,2.5-1.83.5-2.37,1.62-1.62,3.36.12.95.28,1.91.36,2.87.85,9.48-6.7,16.76-16.46,14.52-.24-.12-.51-.21-.72-.37-1.17-.94-1.92-.6-2.64.64-1.29,2.23-2.72,4.39-4.09,6.58-.57.92-1.21,1.55-2.47,1.42-4.18-.46-8.35-.97-12.5-1.69-9.92-1.72-19.89-2.59-29.97-2.39-4.2.09-7.65,1.23-10.62,4.42-4.05,4.34-7.99,8.79-11.98,13.18-1.65,1.82-1.72,1.82-3.39-.12-5.92-6.9-12.14-13.49-19.89-18.4-.41-.26-.77-.49-.89-.56-4.02-2.48-7.66-3.98-10.39-4.92-.23-.27-.6-.6-1.07-.63-.42-.04-.85.17-1.35.6-1.18,1.01-2.62,1.6-4.15,2.03-2.75.78-5.39.18-8.05-.42-1.59-1.34-3.41-2.42-4.62-4.22-1.95-2.9-2.25-6.09-1.87-9.43.31-.94.61-1.88.99-3.03-3.97.64-7.46,2.06-11.06,3.09-1.5.43-1.75,1.18-1.5,2.56.96,5.29,2.19,10.51,3.81,15.64,4.56,14.42,12.13,27.03,22.69,37.85.84,1.11,1.87,2.02,2.92,2.9,1.22,1.23,2.47,2.43,3.93,3.38.03.05.08.09.15.1.15.15.29.29.43.44,3.01,2.66,6.28,4.96,9.78,6.94.43.32.84.67,1.29.94,5.77,3.38,11.79,6.23,18.18,8.23,5.29,1.65,10.61,3.12,16.14,3.7.15.07.28.18.43.2,11.84,1.73,23.65,1.59,35.41-.61,10.41-1.95,20.31-5.34,29.54-10.61,8.89-5.08,16.64-11.57,23.39-19.24,4.31-4.91,8.28-10.09,11.47-15.82.08-.05.11-.12.1-.2l-.05-.05v-.02ZM497.2,133.18c.09,1.17.05,2.35.57,3.44-.1,2.31.66,4.44,1.35,6.59.67,3.18,2.09,6.1,3.2,9.13,1.15,3.14,3.19,5.15,6.29,6.62,9.41,4.48,17.26,11.06,24.02,18.96.81.94,1.38,1.14,2.23.05,3.83-4.91,8.32-9.16,13.11-13.12,1-.83,2.02-1.68,3.37-1.82,1.87-.18,3.75-.31,5.64-.34,3.51-.06,7.02-.04,10.52-.05,4.38.42,8.78.66,13.15,1.29,4.25.62,8.51,1.13,12.77,1.69,1.48.7,3.12.54,4.67.92.61.15.95-.27,1.26-.78.97-1.6,2-3.17,2.97-4.77.41-.67.91-1.39.22-2.19-.59-2.22-1.22-4.42-1.04-6.79.14-1.79.89-3.41,1.05-5.18,1.24-1.54,2.15-3.34,3.62-4.7,3.78-3.49,7.99-5.46,13.26-3.8.87.27,1.59.94,2.54.98,4.67-1.25,9.29-2.7,14.06-3.56.39-.07.76-.25.94-.58,1.32-2.31,2.98-4.5,2.44-7.46-.78-4.32-1.5-8.61-2.72-12.88-2.95-10.3-8.16-19.16-15.4-26.94-7.84-8.42-17.54-14.04-27.93-18.62-1.09-.48-1.96-.28-2.82.46-.98.84-2.09,1.54-3.01,2.44-2.56,2.51-5.8,2.02-8.23-.64-1.69-1.85-3.89-3.06-5.61-4.86-.37-.39-.9-.59-1.47-.59-1.57,0-3.14.02-4.7,0-2.4-.03-4.13.9-5.24,3.14-.74,1.48-1.8,2.81-2.72,4.19-2.04,3.06-3.79,3.67-7.34,2.39-2.33-.83-4.65-1.71-6.89-2.75-1.16-.53-2.13-.45-3.23,0-3.45,1.4-6.81,2.98-10.1,4.71-.95.5-1.61,1.17-2.11,2.13-1.59,3.06-3.19,6.11-4.89,9.11-2.22,3.93-2.38,3.94-7.64,3.51-.32-.02-.63-.14-.95-.18-.56-.07-1.03.08-1.49.46-2.44,1.98-4.37,4.47-6.55,6.7-.4.41-1.01.88-.83,1.66-.7.43-1.25.99-1.72,1.66-6.36,9.13-9.38,19.2-8.63,30.34h0ZM497.43,154.27c-.4-4.37-1.95-8.34-4.36-11.98-.67-1.14-1.73-.74-2.59-.5-5.01,1.4-8.25,8.26-6.23,13.06.22.97.75,1.76,1.45,2.44.21.21.43.6.78.36.16-.11.22-.46.24-.71.07-1.24.28-2.44.69-3.61.16-.44.33-.96.97-.91.67.06.64.61.69,1.09.12,1.23.23,2.45.34,3.68-.16,1.04.21,1.85,1.2,2.19,3.01,1.06,6.87-1.86,6.83-5.12h0ZM619.36,142.6c-.63-.48-1.26-.88-2.09-1.02-7.11-1.17-13.36,6.65-10.84,13.59.77,2.68,3.72,4.78,6.42,4.56,1.08-.09,1.82-.55,2.01-1.7.18-1.11.36-2.22.63-3.31.27-1.11.32-2.42,1.83-2.7.57,1.97.3,4.02.52,6.08,3.42-1.7,5.12-6.63,3.81-10.71-.38-1.79-.53-3.68-2.3-4.81h0ZM591.34,16.13c-.1-.36-.46-.43-.72-.58-4.62-2.55-9.46-4.61-14.49-6.25-2.7-.88-5.43-1.5-8.26-1.59-1.6-.52-3.22-.88-4.9-.95-4.24-.18-8.4.36-12.46,1.54-8.69,2.53-16.21,7.24-23.02,13.05-17.44,14.89-30.13,33.14-38.01,54.69-1.92,5.25-3.28,10.66-3.95,16.24-.79,3.65-.96,7.34-1.06,11.48.59-.63.82-.84,1.02-1.09,4.93-6.14,9.89-12.26,14.76-18.45,1.14-1.45,2.19-1.92,4.05-1.37,4.33,1.3,8.75,2.31,13.11,3.49,1.13.31,1.83.03,2.36-1,1.83-3.54,3.71-7.07,5.56-10.6,2.18-4.16,4.38-8.3,6.51-12.49.63-1.24,1.39-1.39,2.58-.83,1.66.78,3.37,1.43,5.06,2.14,4.13,1.74,8.24,3.49,12.36,5.23,2.24.94,2.44.89,3.8-1.15.94-1.39,1.82-2.8,2.75-4.2,2.14-3.24,4.28-6.48,6.45-9.7,1.36-2.02,1.98-2.08,3.82-.47.32.29.64.58.95.87,3.97,3.66,7.93,7.33,11.91,10.97,2.22,2.03,2.21,1.98,4.37-.08,4.53-4.33,9.11-8.59,13.62-12.94,1.08-1.04,1.96-1.1,3.05-.1,1.43,1.31,2.89,2.58,4.4,3.79,1.95,1.58,3.7,3.38,6.29,4.11,7.17,2.01,14.17,4.54,21.04,7.42,1.51.63,3.01,1.35,4.86,1.7-.73-2.5-1.67-4.71-2.76-6.85-.22-.55-.4-1.12-.67-1.63-4.65-8.76-10.4-16.71-17.46-23.69-1.43-1.45-2.86-2.9-4.3-4.34-4.72-4.69-10.03-8.65-15.53-12.35-2.25-1.52-4.5-3.1-7.09-4.04v.02Z"/>
    <path class="cls-15" d="M619.08,226.55c1.79-1.18,3.58-2.38,5.37-3.56,8.35,1.34,16.69,2.72,24.7,5.58,2.13.76,4.27,1.54,6.14,2.86,3.01,2.12,3.01,4.72,0,6.88-3.49,2.5-7.57,3.59-11.59,4.8-7.13,2.14-14.47,3.34-21.81,4.42-5.53.81-11.13,1.16-16.69,1.76-19.09,2.04-38.24,1.82-57.39,1.51-6.87-.12-13.77-.52-20.62-1.42-5.44-.72-10.93-1.03-16.37-1.77-5.64-.77-11.27-1.72-16.83-3-5.07-1.17-10.12-2.38-14.82-4.72-1.26-.63-2.42-1.4-3.41-2.42-1.93-2.01-1.79-3.63.39-5.44,1.18-.98,2.56-1.59,3.94-2.19,5.92-2.57,12.21-3.86,18.48-5.18,1.74-.36,3.48-.69,5.23-1.03,1.56,1,3.1,2.01,4.66,3.01-1.09.57-2.24,1.05-3.12,1.96-1.04,1.06-1.08,2.04-.03,3.08.88.88,1.95,1.51,3.07,2.05,4.04,1.93,8.28,3.3,12.6,4.44,2.24.58,4.45,1.4,6.72,1.65,4.17.44,8.26,1.37,12.42,1.85,4.91.57,9.81,1.32,14.75,1.42,10.4.19,20.81.32,31.17-.94,3.83-.47,7.67-.97,11.47-1.66,3.96-.72,7.91-1.56,11.81-2.56,4.48-1.16,8.88-2.61,12.84-5.1,1.83-1.14,2.36-2.81,1.12-3.99-1.15-1.1-2.48-2.08-4.18-2.25h-.02Z"/>
    <path class="cls-16" d="M479.61,150.38c-.38,3.34-.09,6.53,1.87,9.43,1.21,1.8,3.03,2.87,4.62,4.22,1.22,2.41,5.46,4.34,8.03,3.75,2.08-.48,3.77-1.64,5.47-2.83,1.7.24,3.06,1.26,4.53,2.01,5.4,2.73,10.37,6.14,14.95,10.09,4.1,3.52,7.95,7.3,11.37,11.48,2.47,3.01,3.47,3.17,6.11.38.15-.16.32-.3.45-.47,3.98-4.96,8.44-9.48,12.78-14.13,1.8-1.93,3.83-2.5,6.28-2.55,9.5-.21,18.92.54,28.36,1.51,5.84.6,11.6,1.56,17.38,2.45,2.47.38,2.59.36,3.65-1.98,1.06-2.36,2.57-4.44,3.96-6.59.75.39,1.5.8,2.27,1.15,2.43,1.15,4.98,1.43,7.61.93-1.59,3.04-3.68,5.77-5.44,8.7-.13.1-.3.16-.38.29-3.72,5.4-8.15,10.14-12.96,14.58-3.97,3.67-8.25,6.93-12.78,9.84-7.38,4.74-15.36,8.11-23.73,10.66-6.74,2.05-13.65,3.08-20.67,3.12-5.43.03-10.82-.58-16.16-1.78-8.63-1.94-16.6-5.35-23.95-10.2-4.99-3.29-9.48-7.24-13.86-11.3-.98-1.45-2.27-2.64-3.34-4.03-.65-.84-1.01-2.02-2.17-2.44h0c.01-.29-.09-.53-.33-.7-.7-1.79-1.9-3.31-2.96-4.87-.61-.89-1.11-2.06-2.25-2.54-.2-.32-.44-.61-.6-.95-3.44-7.47-5.78-15.26-7.29-23.34-.27-1.46.27-1.94,1.34-2.17,2.62-.57,5.15-1.57,7.85-1.73h0ZM494.96,185.72c1.24.02,2.41-1.17,2.46-2.53.07-1.71-2.11-4.07-3.87-4.19-1.03-.07-2.49,1.25-2.55,2.3-.13,2.32,1.71,4.38,3.96,4.42Z"/>
    <path class="cls-3" d="M489.35,193.16c4.38,4.06,8.87,8.01,13.86,11.3,7.35,4.84,15.32,8.25,23.95,10.2,5.34,1.2,10.73,1.81,16.16,1.78,7.02-.04,13.93-1.06,20.67-3.12,8.37-2.55,16.36-5.92,23.73-10.66,4.54-2.92,8.81-6.17,12.78-9.84,4.81-4.44,9.24-9.19,12.96-14.58.09-.13.26-.19.38-.29.87-.03,1.45.33,1.61,1.22.1.57-.22,1.49.86,1.31,1.2-.2.39-1.09.44-1.68.02-.21,0-.44-.08-.63-.17-.47-.38-.94.12-1.31.5-.38.89-.06,1.27.27.9.8,1.25.27,1.28-.62.03-.98-.05-1.93,1-2.52.5-.28.3-.77-.04-1.09-.81-.75-.49-1.17.39-1.42,1.03-.29,1.15-.82.51-1.64-.23-.29-.36-.66-.54-.98,1.51-.76,3.02-1.52,4.53-2.28.07.3.12.72.55.47.49-.27.59-.7.1-1.12.86-1.19,1.73-2.38,2.59-3.57.57,0,1.08.05,1.28.72.47,1.54,2.49,1.46,3.06,2.91.02.06.34.1.42.02.91-.77,1.97-.35,2.95-.38,1.18-.03,2.03-.28,2.04-1.67,0-.39.15-.81.61-.81.57,0,.66.47.66.92.02,1.24.04,2.48,0,3.72-.09,2.44.77,4.36,2.94,5.6-.55.86-.46,2.12-1.63,2.59-.55-.59-.98-.27-1.25.26-.4.78-.73,1.46-1.6,1.99-.63.38-.95,1.65.27,2.3-1.32,2.78-3.27,5.15-4.98,7.69-2.65,3.94-5.8,7.49-8.97,10.96-2.67,2.93-5.54,5.74-8.62,8.29-3.06,2.53-6.26,4.88-9.56,7.08-3.14,2.11-6.52,3.77-9.95,5.37-1.89.88-3.85,1.6-5.77,2.33-4.08,1.56-8.29,2.73-12.66,3.25-4.35.52-8.62,1.71-13.08,1.4-2.04-.14-4.07-.66-6.11-.33-2.39.39-4.66-.15-6.96-.62-1.77-.36-3.09,1.12-2.67,2.9.16.68.52,1,1.25.94.83-.07,1.6-.07,1.95.98.09.27.7.47,1.11.53,1.22.18,2.46.44,3.68.38,4.03-.21,8.03.38,12.07.09,4.19-.3,8.35-.77,12.46-1.55,6.68-1.29,13.29-2.95,19.57-5.68,2.05-.89,4.28-1.48,6.16-2.64,5.81-3.6,11.81-6.93,17.04-11.46,2.85-2.47,5.66-4.96,8.15-7.77,2.46-2.76,4.64-5.77,7.02-8.6,2.14-2.53,3.75-5.43,5.66-8.12,1.05-1.49,2-3.05,2.88-4.65,1.57-2.84,3.04-5.73,4.56-8.6.87.2,1.08.81.84,1.56-.19.58-.17,1.15-.13,1.73l.02-.02c-.35.12-.38.38-.32.69h.02c-.38.07-.4.34-.35.65l.02.02c-.16,0-.39-.05-.46.03-1.5,1.78-2,4.09-3.17,6.05-.13.22.08.51.33.66-.04.41-.25.72-.53,1-.23,0-.5-.07-.64.2-.12.24.1.33.25.44-.12.21-.24.42-.37.63-.1.13-.19.26-.29.38,0,0,.05.05.05.04-.09,0-.18,0-.26.01.05.07.11.13.16.19-3.19,5.74-7.16,10.92-11.47,15.82-6.74,7.67-14.5,14.16-23.39,19.24-9.22,5.27-19.12,8.66-29.54,10.61-11.77,2.2-23.57,2.35-35.41.61-.15-.02-.29-.13-.43-.2-.86-.46-1.47-1.53-2.6-1.33-2.76.49-4.99-1.08-7.46-1.76.37-.18.72-.21,1.07-.24.39-.04.56-.29.54-.66-.02-.39-.26-.52-.62-.6-3.86-.78-7.55-2.09-11.22-3.53-3.68-1.45-7.19-3.21-10.74-4.93-1.54-.75-2.89-1.88-4.6-2.25-1.75-1.72-3.93-2.89-5.89-4.3-1.28-.92-2.29-2.23-3.81-2.83-2.08-2.13-4.17-4.25-6.25-6.38-.29-.29-.59-.46-1-.33-1.27-1.65-2.54-3.31-3.8-4.96.41-.63.15-1.09-.18-1.73-.66-1.29-1.85-2.45-1.44-4.14v.02ZM630.56,168.21c-.32-1.5-1.99-.75-3.02-1.18-.73-.3-1,.33-1.05,1.01-.09,1.25.89,2.65,1.96,2.75,1.2.12,1.95-.69,2.11-2.59ZM543.3,230.14c-.7-.43-1.41-.93-2.38-.36.79.8,1.56.77,2.38.36ZM632.92,166.97c-.75.21-1.23.41-1.46,1.15.9.08,1.24-.3,1.46-1.15ZM623.42,169.22c-.15.21-.33.35-.37.53-.06.3.19.36.38.26.15-.09.25-.3.32-.47.02-.05-.18-.17-.33-.31h0Z"/>
    <path class="cls-6" d="M507.56,101.18c-.18-.78.43-1.25.83-1.66,2.18-2.23,4.11-4.71,6.55-6.7.46-.38.93-.52,1.49-.46.32.04.63.15.95.18,5.27.43,5.42.42,7.64-3.51,1.7-3,3.3-6.05,4.89-9.11.5-.96,1.15-1.63,2.11-2.13,3.3-1.73,6.66-3.31,10.1-4.71,1.1-.45,2.07-.53,3.23,0,2.24,1.03,4.56,1.91,6.89,2.75,3.55,1.28,5.3.67,7.34-2.39.92-1.39,1.99-2.71,2.72-4.19,1.11-2.24,2.84-3.17,5.24-3.14,1.57.02,3.13,0,4.7,0,.57,0,1.1.19,1.47.59,1.71,1.8,3.92,3.01,5.61,4.86,2.43,2.66,5.68,3.16,8.23.64.92-.9,2.02-1.6,3.01-2.44.86-.74,1.73-.94,2.82-.46,10.39,4.59,20.09,10.2,27.93,18.62,7.24,7.78,12.46,16.64,15.4,26.94,1.22,4.27,1.94,8.56,2.72,12.88.53,2.97-1.12,5.15-2.44,7.46-.18.33-.55.5-.94.58-4.77.86-9.39,2.31-14.06,3.56-.09-.67.1-1.27.46-1.83,1.49-2.36,2.75-4.82,3.41-7.55,1.18-3.03,1.93-6.18,2.16-9.39.31-4.19.45-8.43-.38-12.58-1.43-7.15-4.59-13.45-9.36-18.99-4.67-5.41-10.21-9.67-16.61-12.79-1.32-.64-2.75-.81-4.31-.21-2.41.93-4.1,2.74-5.97,4.32-2.28,1.93-3.24,2.13-5.72.53-2.93-1.88-5.8-3.84-8.86-5.52-2.77-1.52-5.35-1.16-8.04-.32-3.24,1.01-5.98,2.98-8.52,5.07-2.52,2.07-5.17,2.52-8.1,1.76-5.27-1.37-9.96-.05-14.5,2.6-5.52,3.21-9.53,7.97-13.54,12.75-.64.84-1.49,1.11-2.52,1-1.16-.13-2.33-.19-3.48-.33-1.22-.15-1.8.39-1.85,1.59-.75,0-1.53-.11-2.24.04-1.35.29-2.91.05-3.93,1.35-.88-.25-1.66.3-2.5.33h-.02Z"/>
    <path class="cls-2" d="M636.4,62.18c1.09,2.14,2.03,4.34,2.76,6.85-1.85-.35-3.35-1.06-4.86-1.7-6.87-2.88-13.87-5.41-21.04-7.42-2.59-.73-4.34-2.53-6.29-4.11-1.51-1.22-2.97-2.49-4.4-3.79-1.09-1-1.97-.94-3.05.1-4.51,4.34-9.09,8.62-13.62,12.94-2.16,2.06-2.15,2.11-4.37.08-3.98-3.65-7.94-7.31-11.91-10.97-.32-.29-.63-.59-.95-.87-1.84-1.61-2.46-1.56-3.82.47-2.17,3.22-4.3,6.46-6.45,9.7-.92,1.4-1.82,2.81-2.75,4.2-1.37,2.04-1.56,2.1-3.8,1.15-4.13-1.73-8.25-3.49-12.36-5.23-1.69-.71-3.4-1.36-5.06-2.14-1.19-.56-1.95-.41-2.58.83-2.13,4.18-4.33,8.32-6.51,12.49-1.85,3.54-3.72,7.05-5.56,10.6-.53,1.03-1.23,1.31-2.36,1-4.37-1.18-8.78-2.19-13.11-3.49-1.86-.56-2.92-.08-4.05,1.37-4.87,6.19-9.83,12.31-14.76,18.45-.2.25-.44.47-1.02,1.09.1-4.14.27-7.84,1.06-11.48.81-.87,1.74-1.66,2.27-2.76.6-.07.92-.54,1.29-.92,2.83-2.89,5.65-5.78,8.47-8.68.88-.91,1.8-1.32,3.17-1.02,3.99.88,8.02,1.63,12.05,2.36,3.58.64,4.4.18,6.35-2.98,3.74-6.06,7.5-12.09,11.28-18.12,1.25-2,1.44-1.97,3.66-1.2,5.29,1.83,10.51,3.92,15.93,5.4,2.58.7,3.51.36,5.15-1.74,2.65-3.4,5.3-6.79,7.96-10.18,1.64-2.08,3.63-2.47,5.98-1.18.21.38.55.57.95.69.42.52.94.9,1.6,1.08.29.57.91.74,1.35,1.14.64.47,1.24,1.01,1.93,1.39,2.05,1.11,3.57,3.01,5.81,3.81l.03-.02c1.58,2.18,3.28,2.52,3.97.63.83-.67,1.71-1.29,2.47-2.04,3.86-3.72,7.7-7.47,11.51-11.24.64-.63,1.28-1.12,2.19-1.19,1.77.53,3.07,1.8,4.51,2.86.77.67,1.48,1.41,2.3,2,2.08,1.49,3.88,3.54,6.39,4.27,4.48,1.29,8.92,2.73,13.39,4.07,2.98,1.17,5.95,2.35,8.93,3.51l-.02-.02Z"/>
    <path class="cls-7" d="M625.85,129.96c-.66,2.73-1.92,5.19-3.41,7.55-.35.56-.55,1.16-.46,1.83-.95-.04-1.67-.7-2.54-.98-5.27-1.66-9.48.3-13.26,3.8-1.47,1.35-2.38,3.16-3.62,4.7-.29-.12-.67.15-.84-.47-.33-1.26.19-2.01,1.12-2.72.43-.32,1.08-.64.77-1.42-.3-.73-.9-.68-1.49-.54-.38.09-.66.24-.94-.24-.5-.85-1.62-.7-1.97-.32-1.02,1.12-3.18.28-3.65,2.21-.03.12-.36.21-.57.23-3.6.36-6.94,2.08-10.63,1.96-1-.04-1.93.09-2.36,1.24-.18.49-.67.73-1.19.58-.48-.13-.3-.61-.36-.97-.07-.44.2-.97-.25-1.3-.35,0-.28.3-.4.44-.95,1.12-.15,2.97-1.59,3.88-.15-.82.25-1.55.38-2.32.27-1.5.49-2.99-.04-4.48.17-3.16-.22-6.19-1.77-9.04-.84-1.57-1.99-2.92-2.86-4.46.02-.31.02-.61-.35-.73l-.1.07c.36-.46.78-.89,1.09-1.39.42-.7,1.01-.74,1.46-.25.95,1.02,2.16,1.37,3.43,1.49.73.07.84,1.41,1.81.8.04-.57-1.16-.7-.41-1.48.62-.64,1.29-.75,2.03-.38.27.13.46.44.81.46.12.75-1,1.97.89,2.04.6.02.36.64.08,1.01-.37.49-.91.52-1.46.52-.38,0-.86.02-.57.63.33.69,2.06.88,2.97.36.78-.44,1.45-.86.29-1.67-.21-.14-.13-.63-.3-.88-.51-.78-.72-1.86-1.9-2.02-.27-1.62-.66-3.24-.79-4.87-.18-2.22-.09-4.44,1.17-6.42-.09.53-.16,1.06-.25,1.59-1.19,6.89,1.98,13.37,8.23,16.37,5.26,2.53,11.64,1.56,15.88-2.27,4.48-4.04,6.11-10.31,4.22-15.94-.7-2.1-2.04-3.78-3.23-5.57.58-.13.96.06,1.38.55.79.93,1.18,2.04,1.74,3.09,1.41,2.69,1.67,5.47,1.31,8.42-.13,1.01-.02,2.06-.02,3.11.67-.21.38-1.62,1.27-1.17,1.86.94,3.71-.18,5.54.21.77.16,2.14-.5,2.22.45.09,1.04-1.27.8-2.1.85-.32.02-.72-.02-.76.41-.06.57.42.49.77.56.57.12,1.34-.35,1.68.53.13.33-.18,1.05.55.89.57-.12.74-.69.79-1.28.17-1.85.19-1.85,1.89-.98,1.02.52,1.18,1.8.24,2.39-.34.22-.94.15-.75.78.17.58.7.59,1.2.58v-.02ZM616.13,127.55c.37-.05.42-.4.51-.67.07-.22-.08-.41-.33-.35-.26.07-.43.28-.46.56-.02.21,0,.41.28.46h0Z"/>
    <path class="cls-1" d="M578.21,149.4c1.44-.92.64-2.75,1.59-3.88.12-.14.04-.43.4-.44.46.33.18.86.25,1.3.06.35-.12.83.36.97.52.15,1.01-.1,1.19-.58.43-1.16,1.36-1.28,2.36-1.24,3.69.13,7.03-1.59,10.63-1.96.2-.02.54-.11.57-.23.47-1.93,2.62-1.08,3.65-2.21.34-.38,1.47-.52,1.97.32.28.48.56.33.94.24.6-.13,1.2-.19,1.49.54.32.78-.34,1.09-.77,1.42-.93.7-1.46,1.46-1.12,2.72.16.61.55.35.84.47-.16,1.76-.91,3.4-1.05,5.18-.18,2.36.44,4.56,1.04,6.79-.29.14-.64.22-.86.43-1.83,1.76-3.97,3.1-5.94,4.65-.75.6-2.07.5-2.31,1.74-4.25-.56-8.52-1.07-12.77-1.69-4.36-.64-8.76-.88-13.15-1.29.49-.39,1.07-.67,1.59-1.02,2.99-2.02,5.18-4.74,7.13-7.7.98-.14,1.29-.75.97-1.95.02-.26.04-.5.3-.64.74-.12.9-.43.34-.98.12-.32.24-.64.37-.96h0Z"/>
    <path class="cls-6" d="M578.21,149.4c-.12.32-.24.64-.37.96-.36.24-.27.64-.34.98-.26.15-.29.39-.3.64-.5.57-.84,1.2-.97,1.95-1.96,2.96-4.14,5.69-7.13,7.7-.52.35-1.1.63-1.59,1.02-3.51.01-7.02-.01-10.52.05-1.88.03-3.76.16-5.64.34-1.34.13-2.37.99-3.37,1.82-4.79,3.96-9.28,8.21-13.11,13.12-.84,1.09-1.42.89-2.23-.05-6.76-7.9-14.61-14.48-24.02-18.96-3.1-1.48-5.15-3.49-6.29-6.62-1.11-3.03-2.52-5.95-3.2-9.13.19.03.39.06.58.09,1.01,1.65,1.45,3.7,3.24,4.83.12-.12.24-.24.36-.36.26.75.47,1.53.79,2.25,2.5,5.57,7.34,8.2,12.81,9.72,8.03,2.21,16.23,3.04,24.59,2.39,7.73-.6,15.21-2.08,22.29-5.34,4.92-2.26,9.25-5.25,12.58-9.59,1.07-1.39,1.26-3.15,2.16-4.59.53,1.49.3,2.98.04,4.48-.13.77-.53,1.51-.38,2.32h.02Z"/>
    <path class="cls-12" d="M619.08,226.55c1.7.17,3.03,1.15,4.18,2.25,1.24,1.18.71,2.84-1.12,3.99-3.97,2.49-8.37,3.93-12.84,5.1-3.89,1.01-7.84,1.85-11.81,2.56-3.8.69-7.63,1.2-11.47,1.66-10.36,1.26-20.77,1.14-31.17.94-4.93-.09-9.84-.84-14.75-1.42-4.16-.49-8.25-1.42-12.42-1.85-2.27-.24-4.49-1.06-6.72-1.65-4.32-1.14-8.56-2.51-12.6-4.44-1.12-.53-2.19-1.17-3.07-2.05-1.05-1.05-1.01-2.02.03-3.08.89-.9,2.03-1.38,3.12-1.96,4.63,2.65,9.28,5.24,14.26,7.21,9.49,3.73,19.3,5.99,29.44,7.07,9.02.95,18,.74,26.94-.45,14.1-1.88,27.43-6.06,39.53-13.73.13-.09.3-.12.44-.18h.01Z"/>
    <path class="cls-7" d="M503.32,147.78c-.12.12-.24.24-.36.36-.55-2.37-.39-4.66.63-6.9.24-.52.47-1.03-.38-1.4-.52-.23-.69-.94-.44-1.57.13-.33.4-.52.77-.38.6.21,1.14.34,1.5-.39.36-.73-.32-1.08-.58-1.55-.27-.49-.67-1.12-1.32-1.02-.78.12-.44.86-.46,1.34-.04.67-.32,1.15-.91,1.4-.57.24-1.02-.04-1.44-.44-.29-.28-.56-.84-1.03-.57-.53.31-.38.86-.28,1.43.3,1.74.48,3.49.7,5.24-.19-.03-.39-.06-.58-.09-.69-2.15-1.46-4.28-1.35-6.59.02-1.8.05-3.61.07-5.41.06-.31.12-.63.18-.94.01-.21.03-.43.04-.64,1-7.47,2.74-14.72,6.64-21.27,1-1.67,1.8-3.54,3.41-4.78.32,1.9-1.94,3.16-1.18,5.3.25.7.32,1.2,1.02,1.45-3.17,3.02-4.19,6.76-3.76,11.02.39,3.82,3.21,7.47,6.72,8.52,3.63,1.08,7.9-.27,10.32-3.26,2.88-3.57,3.42-7.55,2.12-11.85,1.24.68,1.6,1.9,1.79,3.16.52-.43-.27-1.57.83-1.46.87.09.63.97.66,1.58.03.69-.19,1.48.05,2.07.47,1.11-.18,3,1.94,3.09-.44.64-.98,1.17-1.61,1.62-.13-.3.14-.83-.46-.84-.1,0-.26.21-.29.35-.13.72.5.33.75.5-2.14,2.49-4.3,4.92-7.5,6.13-2.21.84-4.42,1.7-6.59,2.66-6.87,3.01-9.72,7.27-9.6,14.17h-.02ZM505.04,109.77s-.04.09-.04.14c0,.02.07.03.12.04.02-.05.04-.09.04-.14,0-.02-.07-.03-.12-.04Z"/>
    <path class="cls-3" d="M662.16,142.93l-.04.65c-.6.04-.59.5-.67.93-.25,1.42-.39,2.86-.8,4.23-1.07,3.7-2.25,7.36-3.38,11.05-.52-.22-1.89.38-1.44-.72.77-1.89-.47-1.85-1.54-2.3-.77-.32-1.87.12-2.38-.94.45-.41,1.4-.16,1.39-.93,0-1.29-.78-2.38-1.22-3.55.33-2.07,1.39-3.99,1.3-6.16.26-.14.32-.38.32-.64.22-.4.38-.83.32-1.3.38-.23.31-.61.32-.96-.04-.47.11-.9.33-1.31.44-.45.46-1.06.65-1.62,1.34-4.04,1.49-8.32,2.49-12.44.58-2.41.47-4.99.67-7.5,1.44-1.9,2.9-3.76,5.17-4.76.35,6.19.32,12.38-.22,18.56-.22,2.58-.6,5.13-.93,7.7-.06.46-.27.91-.41,1.36-.31.24-.27.45.05.64h0Z"/>
    <path class="cls-14" d="M591.34,16.13c2.59.94,4.84,2.52,7.09,4.04,5.5,3.7,10.81,7.66,15.53,12.35,1.45,1.43,2.87,2.89,4.3,4.34-.64.07-1.2.3-1.15,1.06.11,1.62-1.15,1.35-2.05,1.49-.39.06-.83-.13-1.24-.2h.02c-.04-.42-.1-.83-.63-.35-.63-.55-1.26-1.09-1.9-1.63-1.06-1.12-1.97-2.41-3.27-3.29-.1-.09-.19-.18-.29-.27-.24-.38-.52-.67-1.01-.65h0s-.33-.32-.33-.32h0c-.11-.1-.22-.21-.33-.32h.01c-.02-.63-.44-.88-.97-1.05-.32-.76-1.3-.81-1.66-1.54-.12-.27-.36-.34-.63-.34h.02c-.02-.37-.29-.53-.54-.75-4.51-3.93-9.52-7.17-14.4-10.58.21-1.56.75-2.64,2.64-1.95.23.09.53,0,.8-.01v-.02Z"/>
    <path class="cls-12" d="M613.82,39.21c.41.07.84.27,1.24.2.91-.15,2.16.13,2.05-1.49-.05-.75.5-.98,1.15-1.06,7.06,6.98,12.81,14.93,17.46,23.69.27.52.45,1.09.67,1.63-2.98-1.17-5.95-2.35-8.93-3.51-.12-.35-.16-.75-.35-1.05-3.09-4.9-6.36-9.66-10.01-14.16-1.12-1.38-2.8-2.37-3.28-4.25h0Z"/>
    <path class="cls-7" d="M617.33,152.04c-1.52.28-1.56,1.59-1.83,2.7-.27,1.09-.44,2.2-.63,3.31-.19,1.15-.93,1.62-2.01,1.7-2.7.21-5.66-1.88-6.42-4.56.26-1.8.55-3.59,1.35-5.27,2.05-4.32,5.13-8.17,11.57-7.3,1.76,1.13,1.91,3.03,2.3,4.81-.07.16-.11.57-.28.36-.29-.34-.38-.85-.52-1.2-.89,1.65-1.87,3.33-2.71,5.07-.24.48-.43.5-.82.39h0Z"/>
    <path class="cls-2" d="M626.34,147.29c.28-.67.87-.64,1.44-.64.14,1.14,1.06,1.91,1.34,3.04,1.05,4.31.8,8.52-.7,12.67-.86,1.19-1.73,2.38-2.59,3.57-.22.21-.43.43-.65.64-1.51.76-3.02,1.52-4.53,2.28-.46.12-.91.24-1.37.36-2.64.5-5.18.22-7.61-.93-.77-.36-1.51-.77-2.27-1.15-.31-.31-.59-.56-.11-1.03.4-.39.64-.96.95-1.45,9.75,2.25,17.3-5.03,16.46-14.52-.09-.96-.24-1.91-.36-2.87h0Z"/>
    <path class="cls-7" d="M493.07,142.29c2.41,3.65,3.96,7.61,4.36,11.98-.87-.99-.47.47-.91.43-.56-.57-1.18-1.06-.77-2.13.29-.76-.29-1.3-1.06-1.51-.41-.11-.86-.1-1.24-.27-.71-.33-1.22-.49-1.21.61,0,.54-.27.97-.92.77-1.72-.5-1.71.26-1.48,1.66.18,1.08.78,2.39-.45,3.36-.12-1.23-.22-2.45-.34-3.68-.05-.47-.02-1.03-.69-1.09-.63-.05-.8.46-.97.91-.42,1.17-.63,2.38-.69,3.61-.01.25-.07.6-.24.71-.35.24-.57-.16-.78-.36-.69-.69-1.22-1.48-1.45-2.44.22-1.26.12-2.58.56-3.82,1.46-4.14,3.77-7.47,8.27-8.74h0Z"/>
    <path class="cls-12" d="M511.73,217.82c1.71.38,3.07,1.51,4.6,2.25,3.54,1.72,7.05,3.48,10.74,4.93,3.68,1.44,7.36,2.75,11.22,3.53.36.07.61.21.62.6.02.38-.15.62-.54.66-.35.04-.7.07-1.07.24,2.47.68,4.7,2.24,7.46,1.76,1.13-.2,1.74.87,2.6,1.33-5.54-.58-10.86-2.05-16.14-3.7-6.39-2.01-12.41-4.85-18.18-8.23-.46-.27-.86-.62-1.29-.94-.21-.81-.39-1.62-.01-2.43Z"/>
    <path class="cls-15" d="M591.34,16.13c-.27.01-.57.1-.8.01-1.89-.69-2.43.39-2.64,1.95-4.07-2.21-8.14-4.44-12.44-6.18-3.26-1.31-6.62-2.38-9.93-3.55.2-.01.4-.02.6-.04.45.06.68-.14.7-.58.34-.01.69-.02,1.03-.03,2.84.09,5.57.71,8.26,1.59,5.02,1.64,9.86,3.7,14.49,6.25.27.15.62.21.72.58h0Z"/>
    <path class="cls-1" d="M489.4,157.19c1.23-.96.63-2.27.45-3.36-.24-1.4-.24-2.17,1.48-1.66.65.19.92-.23.92-.77,0-1.1.5-.94,1.21-.61.38.18.83.16,1.24.27.77.2,1.35.74,1.06,1.51-.41,1.08.21,1.56.77,2.13.43.04.04-1.42.91-.43.04,3.26-3.82,6.17-6.83,5.12-.99-.35-1.36-1.15-1.2-2.19h0Z"/>
    <path class="cls-12" d="M657.29,159.79c1.14-3.68,2.31-7.35,3.38-11.05.39-1.37.54-2.82.8-4.23.07-.43.07-.89.67-.93-.52,4.98-1.66,9.85-2.87,14.7-1.51,6.11-3.39,12.09-6.15,17.76-.04-.58-.05-1.15.13-1.73.24-.75.04-1.36-.84-1.56.05-.21.1-.41.16-.61,1.34-4.2,3.46-8.11,4.72-12.34h0Z"/>
    <path class="cls-2" d="M500.72,162.46c.19,1.09-.91,1.59-1.12,2.49-1.7,1.19-3.39,2.35-5.47,2.83-2.57.6-6.82-1.34-8.03-3.75,2.66.6,5.3,1.2,8.05.42,1.53-.43,2.97-1.02,4.15-2.03.92-.79,1.63-.82,2.42.04h0Z"/>
    <path class="cls-1" d="M617.33,152.04c.39.12.59.09.82-.39.85-1.74,1.82-3.42,2.71-5.07.14.35.23.86.52,1.2.17.2.21-.21.28-.36,1.31,4.08-.39,9.02-3.81,10.71-.22-2.06.05-4.12-.52-6.08Z"/>
    <path class="cls-14" d="M511.73,217.82c-.38.81-.19,1.62.01,2.43-3.49-1.99-6.76-4.29-9.78-6.94.16-.12.34-.25.18-.46-.19-.24-.41-.15-.61.01-.07,0-.12-.04-.15-.1.27-.24.53-.43.2-.87-.42-.55-.39-1.06.44-1.2,1.52.6,2.53,1.9,3.81,2.83,1.97,1.42,4.14,2.58,5.89,4.3h0Z"/>
    <path class="cls-6" d="M593.42,165.65c.24-1.25,1.56-1.15,2.31-1.74,1.97-1.56,4.11-2.9,5.94-4.65.22-.21.57-.29.86-.43.69.81.19,1.52-.22,2.19-.97,1.6-2.01,3.17-2.97,4.77-.3.5-.65.93-1.26.78-1.54-.37-3.19-.21-4.67-.92h0Z"/>
    <path class="cls-15" d="M502.03,210.69c-.83.15-.86.66-.44,1.2.33.44.07.63-.2.87-1.46-.95-2.72-2.14-3.93-3.38.43-.2.76-.5.46-.98-.82-1.34-1.6-2.7-2.98-3.58-.05-.28-.11-.57-.16-.84.41-.13.72.04,1,.33,2.08,2.13,4.17,4.25,6.25,6.38h0Z"/>
    <path class="cls-18" d="M494.94,204.83c1.37.87,2.16,2.24,2.98,3.58.3.49-.03.78-.46.98-1.06-.88-2.08-1.79-2.92-2.9.6-.44.21-1.12.4-1.66h0Z"/>
    <path class="cls-12" d="M649.22,184.12c-.25-.16-.46-.44-.33-.66,1.17-1.96,1.66-4.27,3.17-6.05.07-.09.3-.02.46-.03-.82,2.38-2.06,4.57-3.3,6.74h0Z"/>
    <path class="cls-18" d="M497.2,133.18c.6-.53-.1-1.49.64-1.97-.02,1.8-.05,3.61-.07,5.41-.53-1.09-.49-2.28-.57-3.44h0Z"/>
    <path class="cls-15" d="M501.53,212.86c.2-.16.43-.26.61-.01.16.21-.03.34-.18.46-.15-.15-.29-.29-.43-.44Z"/>
    <path class="cls-12" d="M648.3,185.77c-.15-.11-.36-.21-.25-.44.13-.27.41-.19.64-.2-.13.22-.26.43-.39.65h0Z"/>
    <path class="cls-12" d="M652.82,176.71c-.06-.3-.03-.57.32-.69-.02.27-.04.53-.32.69Z"/>
    <path class="cls-12" d="M652.5,177.36c-.05-.31-.03-.58.35-.66-.02.27-.06.53-.35.66Z"/>
    <path class="cls-12" d="M662.16,142.93c-.32-.19-.36-.4-.05-.64.02.21.04.43.05.64Z"/>
    <path class="cls-12" d="M647.6,187.03c-.05-.07-.11-.13-.16-.19.09,0,.17,0,.26-.01.02.09-.02.16-.1.21Z"/>
    <path class="cls-12" d="M647.65,186.78c.1-.13.19-.26.29-.38-.1.13-.19.26-.29.38Z"/>
    <path class="cls-12" d="M619.29,169.24c.46-.12.91-.24,1.37-.36.18.33.31.69.54.98.64.82.52,1.35-.51,1.64-.88.25-1.21.66-.39,1.42.34.32.55.8.04,1.09-1.05.59-.97,1.54-1,2.52-.03.89-.37,1.42-1.28.62-.38-.33-.77-.66-1.27-.27-.49.38-.29.84-.12,1.31.07.19.1.43.08.63-.05.59.76,1.48-.44,1.68-1.08.18-.76-.75-.86-1.31-.16-.89-.74-1.25-1.61-1.22,1.76-2.93,3.86-5.66,5.44-8.7h.01Z"/>
    <path class="cls-12" d="M494.96,185.72c-2.25-.05-4.1-2.1-3.96-4.42.06-1.05,1.53-2.36,2.55-2.3,1.76.12,3.94,2.48,3.87,4.19-.05,1.35-1.22,2.55-2.46,2.53Z"/>
    <path class="cls-14" d="M490.97,199.02c-2.59-2.87-4.54-6.19-6.64-9.4.34-.07.88.01.5-.62-.44-.72-.83-1.46-.99-2.31,1.15.42,1.52,1.6,2.17,2.44,1.07,1.39,2.36,2.58,3.34,4.03-.41,1.68.78,2.84,1.44,4.14.33.64.59,1.09.18,1.73Z"/>
    <path class="cls-15" d="M483.84,186.69c.16.84.55,1.59.99,2.31.38.63-.16.55-.5.62-1.48-1.71-2.41-3.76-3.49-5.71-.96-1.72-1.93-3.45-2.54-5.33,1.15.49,1.65,1.65,2.25,2.54,1.06,1.56,2.25,3.08,2.96,4.87,0,.29.01.57.33.7h0Z"/>
    <path class="cls-14" d="M483.84,186.7c-.32-.14-.33-.42-.33-.7.24.17.34.41.33.7Z"/>
    <path class="cls-2" d="M657.29,159.79c-1.25,4.23-3.37,8.14-4.72,12.34-.07.2-.11.41-.16.61-1.51,2.87-2.99,5.76-4.56,8.6-.88,1.59-1.83,3.16-2.88,4.65-1.9,2.69-3.52,5.58-5.66,8.12-2.39,2.83-4.56,5.84-7.02,8.6-2.5,2.8-5.31,5.3-8.15,7.77-5.22,4.53-11.22,7.85-17.04,11.46-1.88,1.17-4.11,1.75-6.16,2.64-6.28,2.73-12.89,4.4-19.57,5.68-4.1.79-8.27,1.25-12.46,1.55-4.04.29-8.04-.3-12.07-.09-1.22.06-2.45-.2-3.68-.38-.4-.06-1.02-.26-1.11-.53-.35-1.05-1.12-1.06-1.95-.98-.74.07-1.09-.26-1.25-.94-.42-1.78.9-3.26,2.67-2.9,2.3.46,4.56,1.01,6.96.62,2.04-.33,4.08.19,6.11.33,4.45.31,8.73-.87,13.08-1.4,4.37-.52,8.59-1.69,12.66-3.25,1.93-.74,3.88-1.45,5.77-2.33,3.43-1.6,6.81-3.27,9.95-5.37,3.29-2.21,6.5-4.55,9.56-7.08,3.08-2.55,5.95-5.36,8.62-8.29,3.17-3.48,6.32-7.03,8.97-10.96,1.71-2.53,3.66-4.9,4.98-7.69.95-1.46,2.18-2.77,2.58-4.54,1.17-.47,1.09-1.73,1.63-2.59,2.44-3.8,4.1-7.97,5.81-12.12,1.1-2.66,2.17-5.33,3.25-8,.17-.08.46-.13.49-.24.09-.35-.24-.35-.47-.41.21-.43.43-.86.64-1.29.44,1.17,1.21,2.26,1.22,3.55,0,.77-.94.52-1.39.93.5,1.05,1.6.61,2.38.94,1.08.45,2.31.41,1.54,2.3-.45,1.11.92.5,1.44.72h0Z"/>
    <path class="cls-12" d="M651.46,153.3c-1.08,2.67-2.15,5.34-3.25,8-1.71,4.15-3.37,8.32-5.81,12.12-2.18-1.24-3.03-3.17-2.94-5.6.04-1.24.01-2.48,0-3.72,0-.45-.1-.92-.66-.92-.46,0-.61.41-.61.81,0,1.39-.86,1.63-2.04,1.67-.98.03-2.05-.39-2.95.38-.08.07-.4.03-.42-.02-.57-1.45-2.59-1.37-3.06-2.91-.2-.67-.72-.72-1.28-.72,1.5-4.16,1.75-8.36.7-12.67-.27-1.13-1.2-1.9-1.34-3.04,1.75-.66,3.52-1.25,5.38-1.56.55.19,1.26.99,1.36-.39,2.06-.5,4.12-1.01,6.18-1.51.93-.22,1.82-.55,2.61-1.11.04.26.02.57.32.66.31.1.54-.13.58-.39.08-.46.07-.94.1-1.42.21-.32.42-.64.63-.96.91-.2,1.76.5,2.66.15,2.52-1,4.84-.31,7.1.84-.22.41-.37.83-.33,1.31-.7.12-.84.43-.32.96.05.47-.1.89-.32,1.3-.41.07-.81.13-.32.64.09,2.16-.97,4.08-1.3,6.16-.21.43-.43.86-.64,1.29,0,.22,0,.44-.01.66v.02ZM646.8,141.62c-.36.1-1-.19-1,.44,0,.5.57.55,1.01.53.43-.02.96-.05.91-.61-.04-.52-.59-.27-.92-.35h0Z"/>
    <path class="cls-12" d="M630.56,168.21c-.16,1.9-.91,2.7-2.11,2.59-1.07-.1-2.05-1.5-1.96-2.75.05-.68.32-1.32,1.05-1.01,1.03.43,2.7-.32,3.02,1.18Z"/>
    <path class="cls-12" d="M640.76,176c-.4,1.77-1.63,3.08-2.58,4.54-1.22-.64-.89-1.91-.27-2.3.87-.53,1.2-1.22,1.6-1.99.27-.52.7-.84,1.25-.26Z"/>
    <path class="cls-12" d="M543.3,230.14c-.82.41-1.59.44-2.38-.36.97-.57,1.67-.06,2.38.36Z"/>
    <path class="cls-12" d="M632.92,166.97c-.22.86-.57,1.24-1.46,1.15.23-.75.72-.95,1.46-1.15Z"/>
    <path class="cls-12" d="M625.19,166.59c.22-.21.43-.43.65-.64.49.42.39.84-.1,1.12-.43.24-.49-.17-.55-.47h0Z"/>
    <path class="cls-12" d="M623.42,169.22c.15.14.35.26.33.31-.07.18-.16.38-.32.47-.19.11-.44.04-.38-.26.04-.18.22-.32.37-.53h0Z"/>
    <path class="cls-20" d="M508.1,103.58c.1-1.31,1.23-1.87,1.95-2.73,1.01-1.29,2.57-1.06,3.93-1.35.72-.15,1.49-.04,2.24-.04,1.91.3,3.79.75,5.74.67.98-.04,2.79-1.53,2.9-2.45.07-.61-.48-.41-.8-.49,4.01-4.79,8.03-9.54,13.54-12.75,4.54-2.65,9.23-3.97,14.5-2.6,2.93.76,5.58.31,8.1-1.76,2.55-2.1,5.29-4.07,8.52-5.07,2.7-.84,5.27-1.2,8.04.32,3.07,1.68,5.94,3.65,8.86,5.52,2.47,1.59,3.43,1.39,5.72-.53,1.87-1.57,3.57-3.38,5.97-4.32,1.57-.61,3-.44,4.31.21,6.4,3.13,11.94,7.38,16.61,12.79,4.78,5.54,7.94,11.84,9.36,18.99.83,4.15.69,8.39.38,12.58-.24,3.21-.99,6.37-2.16,9.39-.5,0-1.03,0-1.2-.58-.18-.63.41-.57.75-.78.94-.59.78-1.87-.24-2.39-1.7-.86-1.72-.87-1.89.98-.05.59-.22,1.15-.79,1.28-.73.16-.42-.56-.55-.89-.34-.88-1.11-.41-1.68-.53-.36-.08-.83.01-.77-.56.05-.43.45-.39.76-.41.83-.05,2.19.19,2.1-.85-.08-.95-1.44-.28-2.22-.45-1.82-.39-3.68.73-5.54-.21-.89-.45-.6.96-1.27,1.17,0-1.05-.11-2.1.02-3.11.37-2.94.11-5.73-1.31-8.42-.55-1.05-.95-2.15-1.74-3.09-.41-.49-.79-.68-1.38-.55v-.04c.24-1.15-.62-1.79-1.37-2.15-2.2-1.04-4.19-2.6-6.77-2.72-2.34-.11-4.7-.58-6.97.34-.64.26-1.55.3-1.65,1.29h0c-.52.03-1.23-.3-1.29.64h0c-2.01.06-3.96,1.79-4.45,3.94l-.03.03c-1.64.71-2.39,2.16-2.32,4.46l.02.02c-1.26,1.98-1.34,4.2-1.17,6.42.13,1.63.52,3.25.79,4.87h0c-.35-.01-.54-.32-.81-.46-.74-.36-1.41-.26-2.03.38-.75.78.45.91.41,1.48-.97.61-1.08-.73-1.81-.8-1.26-.12-2.49-.47-3.43-1.49-.45-.49-1.04-.45-1.46.25-.3.5-.72.93-1.09,1.39-1.47-1.4-2.89-2.87-4.42-4.2-7.57-6.54-16.39-9-26.24-7.75-4.17.53-7.95,2.24-11.5,4.45-1.07.05-2.53-.39-2.02,1.62h-.01c-.47-.05-.69.16-.67.63h.01c-2.11-.07-1.47-1.96-1.94-3.07-.25-.6-.03-1.37-.05-2.07-.02-.61.21-1.49-.66-1.58-1.11-.1-.31,1.03-.83,1.46-.19-1.27-.55-2.49-1.79-3.16v-.02c.43-2-.82-2.99-2.33-3.82h0c-.12-1.13-.83-2.04-1.74-2.33-2.72-.87-5.54-1.35-8.4-.57-.42.12-.78.36-.78.89-.04.06-.09.07-.15.03-.81.22-2.02-.15-2.02,1.31l.02.07c-.7-.26-.77-.75-1.02-1.45-.76-2.14,1.49-3.41,1.18-5.3h0ZM539.41,91.66c-2.31.05-3.93.87-5.16,2.46-.53.69-.72,1.51-.32,2.27.39.74,1.11,1.15,2,1.16,1.93.02,3.58-.63,4.94-2.02.76-.78.93-1.73.52-2.68-.41-.95-1.25-1.29-1.97-1.2h0Z"/>
    <path class="cls-1" d="M524.07,97.2c.32.07.87-.13.8.49-.11.92-1.93,2.41-2.9,2.45-1.95.08-3.83-.38-5.74-.67.04-1.2.63-1.73,1.85-1.59,1.16.14,2.33.19,3.48.33,1.03.12,1.88-.15,2.52-1h0Z"/>
    <path class="cls-18" d="M565.54,8.37c3.31,1.17,6.67,2.24,9.93,3.55,4.3,1.74,8.37,3.96,12.44,6.18,4.89,3.41,9.89,6.65,14.4,10.58.25.22.52.38.54.75-.99.35-1.71.12-2.59-.6-1.12-.91-1.94-2.2-3.32-2.78-.63-.26-1.26-.29-1.8.25-.23.23-.49.51-.32.84.33.63.96.27,1.45.36.3.05.69-.1.84.29.13.32-.18.45-.36.64-1.28,1.33-.74,3.41,1.01,4.04.69.25,1.39.27,2.07.21.91-.08,1.18.55,1.21,1.17.03.58,0,1.37-.92,1.42-1.18.06-1.59.74-1.53,1.82.05,1.01-.43,1.46-1.41,1.82-1.18.42-1.87,1.77-3.3,1.96-.46.06-.49.77-.49,1.27.01.47-.1.78-.66.92-1.77.43-3.65.66-4.85,2.33-.15.2-.61.3-.89.25-1.94-.33-3.75.28-5.4,1.08-1.17.57-2.13,1.59-3.41,2.07-.19.07-.32.56-.33.85-.01.91-.49,1.18-1.32,1.25-.79.06-1.51.29-1.08,1.43.41,1.07,2.06,1.65,1.29,3.19.19.08.38.18.58.23,1.83.54,2.5,2.16,3.36,3.61-2.24-.8-3.76-2.7-5.81-3.81-.69-.37-1.29-.92-1.93-1.39.19-.48.38-.96.68-1.71-.78.43-1.66-.97-2.03.58-.66-.18-1.17-.56-1.6-1.08.01-.69.14-1.53-.95-.69-2.35-1.28-4.34-.89-5.98,1.18-2.66,3.38-5.31,6.78-7.96,10.18-1.63,2.1-2.58,2.44-5.15,1.74-5.42-1.47-10.63-3.56-15.93-5.4-2.22-.77-2.41-.8-3.66,1.2-3.78,6.03-7.55,12.07-11.28,18.12-1.95,3.17-2.77,3.63-6.35,2.98-4.03-.72-8.05-1.48-12.05-2.36-1.37-.3-2.29.12-3.17,1.02-2.82,2.9-5.64,5.79-8.47,8.68-.37.38-.69.85-1.29.92.32-2.9,1.24-5.65,2.13-8.4,1.96-6.04,4.22-11.96,7.2-17.57,3.56-6.72,7.38-13.28,11.98-19.38,3.72-4.93,7.54-9.77,11.94-14.1,3.06-3.01,6.17-5.97,9.57-8.59,4.76-3.67,9.86-6.83,15.35-9.3,6.22-2.79,12.72-4.21,19.57-3.81h.01ZM517.2,43.42c0,.66.13,2.42,1.39,3.47,1.08.91,2.46.8,3.51.72,1.84-.15,3.16-.94,4.51-1.75,1.5-.9,2.45-1.81,2.7-2.06,1.01-.98,1.56-1.82,2.61-3.41,1.02-1.55,1.53-2.33,1.79-3.22.12-.39.21-1.43.38-3.53.04-.51.09-1.04-.12-1.67-.09-.29-.33-1.01-1.01-1.48-.19-.13-.42-.21-.87-.36-.58-.2-1.01-.35-1.59-.4-.8-.07-1.42.1-1.72.18-.39.11-.78.27-1.6.74-.47.27-1.06.64-2.33,1.54-1.09.78-1.66,1.18-2.29,1.73-.6.52-1.05.98-1.31,1.26-.49.5-1.14,1.17-1.85,2.14-.63.86-.95,1.45-1.12,1.77-.14.28-.24.5-.28.6-.49,1.14-.81,2.04-.81,3.75h0ZM512.19,57.98c-3.37.05-8.61,2.91-9.48,7.87-.18,1-.32,2.02-.34,3.04-.02,1.09.04,1.95.56,2.87.16.29.54.97,1.28,1.4,1.24.72,2.72.29,3.42.04,4.28-1.53,8.02-5.27,8.25-10.37.12-2.67-1.17-5.19-3.68-4.84h0ZM542.05,33.35c1.03.01,2.44-1.22,2.39-2.26-.06-1.06-.87-1.47-1.75-1.57-.97-.12-2.13,1.18-2.11,2.23.02.88.22,1.62,1.48,1.6h0Z"/>
    <path class="cls-16" d="M580.71,59.34c-.86-1.45-1.53-3.07-3.36-3.61-.2-.06-.39-.15-.58-.23.78-1.54-.87-2.11-1.29-3.19-.44-1.14.29-1.37,1.08-1.43.84-.07,1.31-.33,1.32-1.25,0-.3.13-.78.33-.85,1.28-.47,2.24-1.5,3.41-2.07,1.65-.8,3.46-1.41,5.4-1.08.28.05.74-.05.89-.25,1.2-1.66,3.08-1.9,4.85-2.33.57-.13.67-.46.66-.92-.01-.5.03-1.21.49-1.27,1.43-.19,2.11-1.54,3.3-1.96.98-.35,1.46-.8,1.41-1.82-.05-1.08.35-1.76,1.53-1.82.92-.05.95-.84.92-1.42-.04-.63-.3-1.25-1.21-1.17-.69.05-1.38.04-2.07-.21-1.75-.63-2.3-2.72-1.01-4.04.18-.19.49-.32.36-.64-.16-.39-.55-.23-.84-.29-.5-.09-1.12.27-1.45-.36-.18-.33.09-.61.32-.84.53-.53,1.17-.52,1.8-.25,1.38.58,2.2,1.87,3.32,2.78.87.71,1.6.94,2.59.6h-.02c.12.29.36.34.63.35.36.72,1.34.78,1.66,1.54-.03.67.28,1.03.97,1.04h-.01c.11.11.22.22.33.33h0c.11.11.22.22.33.33h0c.01.72.53.66,1.01.64.1.09.19.18.29.27.16,1.25.04,2.66.61,3.69.27.5,1.68-.58,2.67-.39.63.55,1.26,1.09,1.9,1.63.13.26.36.35.63.35h-.02c.48,1.88,2.16,2.87,3.28,4.25,3.66,4.5,6.93,9.27,10.01,14.16.19.3.24.7.35,1.05-4.47-1.34-8.9-2.78-13.39-4.07-2.5-.72-4.3-2.77-6.39-4.27-.82-.59-1.54-1.33-2.3-2-.29-.53,1.12-.84.19-1.45-.5-.33-.49-.6-.29-1.25.43-1.45-1.13-2.69-2.61-2.25-.41.12-.81.26-1.23.32-.57.08-1.24-.1-1.46.66-.22.77.87.52.9,1.12-.91.07-1.56.57-2.19,1.19-3.82,3.77-7.66,7.52-11.51,11.24-.77.74-1.65,1.36-2.47,2.04-1.37.07-2.7-.1-3.97-.63l-.03.02h0Z"/>
    <path class="cls-18" d="M600.88,45.48c-.02-.6-1.12-.35-.9-1.12.22-.77.9-.58,1.46-.66.42-.06.83-.19,1.23-.32,1.48-.44,3.04.8,2.61,2.25-.19.65-.21.92.29,1.25.94.61-.48.92-.19,1.45-1.44-1.05-2.74-2.33-4.51-2.86Z"/>
    <path class="cls-18" d="M580.74,59.32c1.27.53,2.6.69,3.97.63-.68,1.89-2.38,1.56-3.97-.63Z"/>
    <path class="cls-16" d="M571.62,53c.36-1.54,1.25-.15,2.03-.58-.3.75-.49,1.23-.68,1.71-.43-.39-1.06-.58-1.35-1.14h0Z"/>
    <path class="cls-16" d="M569.08,51.24c1.09-.84.97,0,.95.69-.39-.12-.74-.3-.95-.69Z"/>
    <path class="cls-9" d="M531.31,120.93c3.55-2.21,7.33-3.92,11.5-4.45,9.86-1.25,18.67,1.22,26.24,7.75,1.54,1.33,2.95,2.79,4.42,4.2l.1-.07c-.11.35.09.55.35.73.86,1.54,2.01,2.89,2.86,4.46,1.54,2.85,1.93,5.88,1.77,9.04-.91,1.44-1.09,3.2-2.16,4.59-3.34,4.34-7.67,7.32-12.58,9.59-7.08,3.26-14.55,4.74-22.29,5.34-8.36.65-16.56-.17-24.59-2.39-5.47-1.51-10.32-4.14-12.81-9.72-.32-.72-.53-1.5-.79-2.25-.12-6.9,2.74-11.16,9.6-14.17,2.17-.95,4.37-1.82,6.59-2.66,3.2-1.21,5.36-3.65,7.5-6.13h0c.63-.46,1.17-.99,1.61-1.63h-.01c.22-.22.45-.43.67-.64h.01c.67-.54,1.34-1.08,2.02-1.62h0ZM546.38,119.65c-6.9-.11-12.67,2.47-17.07,7.72-2.94,3.51-6.5,5.91-10.75,7.44-1.82.65-3.63,1.39-5.35,2.27-2.62,1.34-4.98,3.02-5.72,6.16-.37.24-.29.64-.33,1h.02c-.21.04-.29.16-.24.38-.53,3.87,1.13,6.68,4.27,8.76,3.17,2.11,6.8,3.03,10.44,3.76,10.82,2.19,21.65,2.25,32.35-.72,6.07-1.68,11.78-4.19,16.67-8.31,4.3-3.62,5.55-8.28,3.16-12.64-2.83-5.16-7.25-8.78-12.11-11.91-3.49-2.21-7.34-3.31-11.43-3.63-1.28-.35-2.59-.35-3.91-.26h0Z"/>
    <path class="cls-9" d="M608.92,110.58c1.19,1.79,2.53,3.47,3.23,5.57,1.89,5.63.27,11.9-4.22,15.94-4.24,3.82-10.61,4.79-15.88,2.27-6.25-3-9.42-9.48-8.23-16.37.09-.53.16-1.06.25-1.59l-.02-.02c.77-1.49,1.55-2.97,2.32-4.46,0,0,.03-.03.02-.03,1.48-1.31,2.97-2.63,4.45-3.94h0c.49-.1.94-.28,1.3-.66h0c3.21-1.13,6.48-1.49,9.82-.67,2.68.66,4.85,2.24,6.96,3.93v.04s0,0,0,0ZM599.58,117.21c.02-3.2-1.53-4.78-4.72-4.79-2.96-.01-5.15,2.3-5.15,5.43,0,2.37,2.12,4.34,4.67,4.35,2.97,0,5.18-2.11,5.2-4.98h0Z"/>
    <path class="cls-20" d="M583.7,127.68c1.17.16,1.39,1.23,1.9,2.02.16.26.1.74.3.88,1.16.81.49,1.22-.29,1.67-.91.52-2.64.33-2.97-.36-.29-.6.19-.62.57-.63.55-.01,1.09-.03,1.46-.52.28-.37.52-.98-.08-1.01-1.9-.07-.77-1.3-.89-2.04h0Z"/>
    <path class="cls-20" d="M616.13,127.55c-.29-.05-.3-.26-.28-.46.03-.28.19-.49.46-.56.25-.07.41.13.33.35-.09.27-.14.61-.51.67h0Z"/>
    <path class="cls-20" d="M573.93,129.1c-.26-.18-.46-.38-.35-.73.37.12.38.42.35.73Z"/>
    <path class="cls-7" d="M576.24,153.95c.13-.75.46-1.39.97-1.95.33,1.2.02,1.81-.97,1.95Z"/>
    <path class="cls-7" d="M577.5,151.35c.07-.35-.02-.74.34-.98.56.56.39.87-.34.98Z"/>
    <path class="cls-1" d="M499.71,143.31c-.22-1.75-.4-3.51-.7-5.24-.1-.58-.25-1.12.28-1.43.47-.27.74.3,1.03.57.42.4.87.68,1.44.44.59-.25.87-.73.91-1.4.02-.47-.32-1.22.46-1.34.66-.1,1.05.53,1.32,1.02.26.47.94.82.58,1.55-.36.74-.91.6-1.5.39-.37-.13-.64.05-.77.38-.25.63-.09,1.34.44,1.57.85.38.62.89.38,1.4-1.01,2.23-1.17,4.53-.63,6.9-1.8-1.13-2.22-3.18-3.24-4.83h.01Z"/>
    <path class="cls-9" d="M509.95,108.95c.06.04.11.03.15-.03,2.73-.97,5.43-1.13,8.07.29.98.53,1.91,1.14,2.86,1.7h0c.78,1.28,1.56,2.55,2.34,3.82v.02c1.29,4.31.75,8.29-2.13,11.85-2.42,3-6.68,4.35-10.32,3.26-3.51-1.05-6.34-4.7-6.72-8.52-.43-4.27.58-8,3.76-11.02l-.02-.07c.81-.22,1.48-.67,2.02-1.31h-.01ZM512.95,119.66c2.11,0,3.89-1.71,3.88-3.74-.01-2.04-1.58-3.58-3.62-3.56-2.03.02-3.77,1.82-3.77,3.88s1.49,3.42,3.5,3.42h0Z"/>
    <path class="cls-20" d="M527.01,124.82c-.25-.17-.88.22-.75-.5.02-.13.19-.35.29-.35.6.01.33.55.46.84h0Z"/>
    <path class="cls-18" d="M498.02,130.28c-.27-.23-.22-.44.04-.64-.01.21-.03.43-.04.64Z"/>
    <path class="cls-20" d="M505.04,109.77s.12.03.12.04c0,.05-.02.09-.04.14-.04-.01-.12-.03-.12-.04,0-.05.02-.09.04-.14Z"/>
    <path class="cls-14" d="M654.7,140.98c-2.26-1.15-4.58-1.84-7.1-.84-.9.36-1.76-.35-2.66-.15,3.93-6.93,7.52-14.09,12.96-20.04.18-.19.41-.34.61-.51-.2,2.5-.09,5.09-.67,7.5-1,4.12-1.15,8.4-2.49,12.44-.18.55-.21,1.17-.65,1.62h0Z"/>
    <path class="cls-14" d="M654.05,143.25c-.52-.53-.38-.84.32-.96,0,.35.06.73-.32.96Z"/>
    <path class="cls-14" d="M653.4,145.2c-.49-.52-.09-.58.32-.64-.01.27-.07.51-.32.64Z"/>
    <path class="cls-18" d="M566.84,7.75c-.02.45-.26.64-.7.58.07-.39.27-.62.7-.58Z"/>
    <path class="cls-14" d="M644.31,140.95c-.02.47-.02.95-.1,1.42-.04.26-.28.49-.58.39-.3-.1-.27-.41-.32-.66.33-.38.66-.76,1-1.14h0Z"/>
    <path class="cls-14" d="M634.53,144.71c-.1,1.38-.81.58-1.36.39.39-.35.9-.29,1.36-.39Z"/>
    <path class="cls-18" d="M611.31,37.22c-.98-.18-2.39.9-2.67.39-.57-1.03-.45-2.44-.61-3.69,1.31.89,2.21,2.17,3.27,3.29Z"/>
    <path class="cls-18" d="M606.09,32.35c-.69,0-1-.37-.97-1.04.52.16.95.41.97,1.04Z"/>
    <path class="cls-18" d="M607.75,33.65c-.49.02-1,.07-1.01-.65.49-.02.78.27,1.01.65Z"/>
    <path class="cls-12" d="M613.83,39.2c-.27,0-.5-.09-.63-.35.54-.48.59-.07.63.35Z"/>
    <path class="cls-18" d="M603.46,29.77c-.27,0-.51-.06-.63-.34.27,0,.5.07.63.34Z"/>
    <path class="cls-18" d="M606.41,32.68c-.11-.11-.22-.22-.33-.33.11.11.22.22.33.33Z"/>
    <path class="cls-18" d="M606.73,33.01c-.11-.11-.22-.22-.33-.33.11.11.22.22.33.33Z"/>
    <path class="cls-3" d="M651.46,153.3c0-.22,0-.44.01-.66.23.06.55.07.47.41-.02.12-.32.16-.49.24h0Z"/>
    <path class="cls-14" d="M646.8,141.62c.33.09.87-.16.92.35.05.57-.48.6-.91.61-.44.02-1-.04-1.01-.53,0-.63.63-.34,1-.44h0Z"/>
    <path class="cls-18" d="M539.41,91.66c.73-.1,1.57.25,1.97,1.2.41.95.24,1.9-.52,2.68-1.35,1.39-3.01,2.04-4.94,2.02-.89,0-1.6-.42-2-1.16-.41-.77-.21-1.59.32-2.27,1.23-1.59,2.85-2.41,5.16-2.46h0Z"/>
    <path class="cls-7" d="M608.93,110.54c-2.11-1.68-4.28-3.26-6.96-3.93-3.34-.83-6.61-.46-9.82.68.1-1,1.01-1.03,1.65-1.29,2.27-.92,4.63-.45,6.97-.34,2.58.12,4.58,1.69,6.77,2.72.75.35,1.6,1,1.38,2.15h0Z"/>
    <path class="cls-7" d="M521.03,110.92c-.95-.57-1.88-1.18-2.86-1.7-2.63-1.42-5.34-1.26-8.07-.29,0-.52.36-.77.78-.89,2.86-.78,5.68-.3,8.4.57.91.29,1.62,1.2,1.74,2.31h0Z"/>
    <path class="cls-7" d="M590.85,107.94c-1.48,1.31-2.97,2.63-4.45,3.94.49-2.14,2.44-3.88,4.45-3.94Z"/>
    <path class="cls-7" d="M586.38,111.92c-.78,1.49-1.55,2.97-2.32,4.46-.07-2.3.69-3.75,2.32-4.46Z"/>
    <path class="cls-7" d="M523.37,114.74c-.78-1.27-1.56-2.55-2.34-3.82,1.51.83,2.75,1.82,2.34,3.82Z"/>
    <path class="cls-7" d="M531.31,120.93c-.67.54-1.35,1.08-2.02,1.62-.5-2.01.95-1.57,2.02-1.62Z"/>
    <path class="cls-7" d="M509.95,108.95c-.54.64-1.2,1.09-2.02,1.31,0-1.46,1.2-1.09,2.02-1.31Z"/>
    <path class="cls-7" d="M592.15,107.29c-.35.38-.81.55-1.3.66.07-.94.78-.61,1.3-.66Z"/>
    <path class="cls-7" d="M529.28,122.56c-.22.21-.45.42-.67.63-.02-.47.19-.69.67-.63Z"/>
    <path class="cls-11" d="M550.28,119.9c4.09.32,7.94,1.43,11.43,3.63-.17.72.31,1.05.77,1.45,1.2,1.07,2.5,2.08,3.49,3.32,2.41,3.06,3.83,6.47,2.11,10.34-1.08,2.44-2.98,4.31-5.12,5.91-7.35,5.49-15.87,7.5-24.79,8.04-4.67.29-9.36.1-14.02-.57-6.02-.86-11.71-2.28-15.71-7.37-.36-.47-.69-.77-1.28-.44.04-.36-.04-.75.33-1,.6.16,1.11.25,1.43-.52.41-.97,1.24-1.57,2.03-2.25,2.36-2.02,5.28-2.88,8.05-4.03,3.8-1.57,7.61-3.09,10.23-6.51.46.04.66-.18.62-.63.22-.22.44-.45.65-.68.31-.07.38-.3.39-.57h0c.27-.02.5-.09.54-.41.14-.19.27-.38.41-.58.43,0,.65-.21.64-.65.1-.04.19-.07.28-.12.19.03.29-.07.3-.26.13-.1.26-.2.38-.3.1-.12.19-.22.29-.34v-.02c.65.13,1.24-.09,1.65-.5.79-.8,1.74-1.13,2.78-1.48,1.05-.36,2.01-.9,3.16-1.01.74-.07,1.39-.58,1.58-1.43.31-.02.61-.05.92-.07,2.17-.23,4.41.05,6.46-.97h-.02ZM519.98,146.17c1.72.01,2.87-.2,3.57-.61,1.37-.79,1.45-2.44.02-3.07-1.79-.8-3.65-.75-5.43.26-.77.43-1.08,1.06-.89,1.88.19.8.74,1.32,1.54,1.47.47.09.97.06,1.18.07h0ZM551.63,131.6c.02-1.22-.84-2.13-2.08-2.19-1.45-.07-2.81,1.35-2.79,2.93.02,1.22.53,2.08,1.85,2.16,1.54.1,3-1.32,3.02-2.9h0ZM538.47,133.24c1.58.05,2.7-1.08,2.75-2.68.05-1.36-.68-2.01-1.91-2.09-1.34-.09-2.6,1.16-2.67,2.5-.07,1.4.6,2.22,1.83,2.27h0Z"/>
    <path class="cls-4" d="M507.16,144.22c.6-.33.92-.02,1.28.44,4,5.09,9.69,6.52,15.71,7.37,4.67.66,9.35.84,14.02.57,8.93-.54,17.44-2.55,24.79-8.04,2.14-1.6,4.04-3.48,5.12-5.91,1.71-3.86.29-7.28-2.11-10.34-.98-1.25-2.28-2.25-3.49-3.32-.46-.41-.94-.74-.77-1.45,4.86,3.13,9.28,6.75,12.11,11.91,2.39,4.36,1.14,9.02-3.16,12.64-4.89,4.12-10.6,6.64-16.67,8.31-10.71,2.97-21.53,2.91-32.35.72-3.64-.74-7.27-1.65-10.44-3.76-3.14-2.08-4.79-4.89-4.27-8.76.08-.13.16-.26.24-.39h-.02s0,.02,0,.02Z"/>
    <path class="cls-18" d="M543.82,120.87c.63-.88,1.89-.43,2.56-1.23,1.31-.09,2.62-.1,3.91.26-2.05,1.02-4.3.74-6.46.97h0Z"/>
    <path class="cls-11" d="M507.17,144.21c-.08.13-.16.26-.24.39-.06-.21.02-.34.24-.39Z"/>
    <path class="cls-9" d="M551.63,131.6c-.02,1.58-1.48,3-3.02,2.9-1.32-.09-1.83-.94-1.85-2.16-.02-1.57,1.34-3,2.79-2.93,1.24.06,2.1.97,2.08,2.19h0Z"/>
    <path class="cls-9" d="M538.47,133.24c-1.24-.04-1.91-.86-1.83-2.27.07-1.34,1.34-2.59,2.67-2.5,1.24.08,1.96.73,1.91,2.09-.05,1.6-1.17,2.72-2.75,2.68h0Z"/>
    <path class="cls-18" d="M533.73,125.37c1.53-1.83,3.68-2.69,5.8-3.48,1.08-.39,2.1-1.14,3.36-.95-.19.85-.84,1.35-1.58,1.43-1.16.12-2.11.66-3.16,1.01-1.04.35-1.99.69-2.78,1.48-.41.41-1,.63-1.64.5h0Z"/>
    <path class="cls-18" d="M529.22,129.93c.01-.4.22-.61.62-.63.04.46-.16.66-.62.63Z"/>
    <path class="cls-18" d="M531.83,127.05c.09-.33.31-.55.64-.65,0,.43-.21.64-.64.65Z"/>
    <path class="cls-18" d="M530.88,128.04c.06-.29.29-.37.54-.41-.04.33-.27.4-.54.41Z"/>
    <path class="cls-18" d="M530.49,128.61c.02-.27.09-.5.39-.57,0,.27-.09.5-.39.57Z"/>
    <path class="cls-18" d="M532.76,126.29c.1-.09.2-.17.3-.26-.02.18-.1.28-.3.26Z"/>
    <path class="cls-18" d="M533.44,125.73c.1-.12.19-.22.29-.34-.1.12-.19.22-.29.34Z"/>
  </g>
  <path class="cls-19" d="M518.68,38.38c.37-.68,1.09-1.9,2.25-3.25.41-.49,1.21-1.37,2.36-2.33.87-.73,1.93-1.6,3.54-2.33.87-.4,1.62-.74,2.7-.86.81-.09,2.66-.29,3.87.89.7.68.88,1.52,1.01,2.15.2.92.26,2.21-.46,4.24-.43,1.22-1.29,3.15-3.35,5.47-1.97,2.23-4.07,4.61-7.44,5.23-1.08.2-3.6.66-5.04-.8-1.79-1.8-.75-5.35-.57-5.97.26-.87.63-1.54,1.12-2.43h0Z"/>
  <path class="cls-19" d="M512.19,57.98c.52-.03,1.37.01,2.13.53,1.13.78,1.35,2.13,1.49,2.99.15.92.05,1.64-.03,2.3-.05.36-.19,1.32-.66,2.49-.11.27-.4.97-.92,1.78-1.4,2.21-3.23,3.39-4,3.88-.97.61-1.79.97-2.42,1.18-.16.05-.84.29-1.77.41-.92.12-1.24.02-1.35-.02-.5-.18-.79-.52-1.11-.89-.41-.49-.62-.95-.76-1.28,0,0-.23-.53-.36-1.11-.2-.89-.46-3.6.99-6.55.28-.57.77-1.56,1.76-2.58.19-.19,1.05-1.08,2.49-1.84,1.73-.92,3.39-1.2,4.53-1.28h0Z"/>
  <path class="cls-19" d="M541.55,29.97c.31-.22.53-.39.89-.46.58-.11,1.04.13,1.16.19.13.07.51.28.74.73.06.12.29.57.15,1.08-.06.24-.18.41-.28.55-.18.26-.36.41-.54.56-.18.15-.43.35-.81.52-.18.08-.46.19-.83.22-.28.02-.7.05-1.07-.2-.66-.44-.6-1.39-.6-1.43.04-.44.25-.75.43-1.01.27-.39.57-.61.74-.74h0Z"/>
  <path class="cls-19" d="M485.11,91.79c-.36-.93,1.79-29.78,30.69-60.56,0,0,10.42-11.1,23.76-18.36,5.06-2.75,9.92-4.26,10.94-4.58,1.42-.43,3.43-.8,7.46-1.53,3.27-.6,5.49-.9,7.25.37.15.11,1.07.77.92,1.2-.26.77-3.59-.55-8.06.4-.64.13-1.63.42-3.6.98-1.08.31-2.27.65-3.57,1.06-1.24.4-3.2,1.07-5.53,2.05-3.01,1.26-5.34,2.49-6.68,3.23-1.6.88-2.67,1.57-2.93,1.73-1.29.83-2.26,1.53-3.2,2.21-.37.27-1.28.94-2.44,1.84-.92.72-2.19,1.71-3.64,2.99-.74.65-1.48,1.36-2.95,2.79-3.29,3.18-4.73,4.73-5.21,5.25-.65.71-1.3,1.44-1.3,1.44-.19.22-.92,1.03-1.85,2.14-.47.55-.81.98-1.02,1.23-.64.78-1.12,1.39-1.42,1.76-1.68,2.12-2.53,3.18-3.18,4.03-.77,1-1.53,2-2.5,3.36-1.48,2.08-2.58,3.8-3.2,4.79-.74,1.18-1.35,2.25-2.59,4.41-.77,1.33-1.32,2.31-2.42,4.29-2.38,4.24-2.68,4.85-2.98,5.49-.25.53-.67,1.54-1.52,3.57-.74,1.77-1.11,2.65-1.6,3.89-.7,1.79-1.21,3.18-1.64,4.39-.41,1.14-.81,2.27-1.21,3.46-.5,1.49-.75,2.25-1.01,3.17-.06.22-.45,1.66-.7,2.95-.19.98-.28,1.48-.29,1.52-.05.36-.05.51-.15.76-.13.36-.31.6-.67,1.04-.46.57-.47.46-.88.97-.4.5-.52.77-.72.75,0,0-.22-.02-.41-.49h.02Z"/>
  <path class="cls-19" d="M511.45,119.32c1.95.96,3.81-.39,3.93-.49.96-.72,1.81-2.07,1.56-3.52-.32-1.88-2.38-3.34-4.42-2.95-1.83.35-3.15,2.08-3.07,3.88.06,1.23.78,2.49,2.01,3.09h0Z"/>
  <path class="cls-19" d="M598.24,120.56c.39-.41,1.17-1.35,1.39-2.79.06-.41.37-2.37-.98-3.9-1.31-1.48-3.2-1.46-3.79-1.45-.5,0-2.87.1-4.33,2.07-1.25,1.7-1.42,4.27-.08,5.98,1.14,1.46,2.87,1.67,3.27,1.72,2.58.32,4.34-1.46,4.51-1.64h0Z"/>
  <path class="cls-19" d="M509.2,142.27c.07-.15.1-.26.21-.39.05-.07.08-.09.29-.29.29-.27.26-.25.41-.39,0,0,.19-.18.37-.33.63-.55,1.56-.98,1.56-.98,2.31-1.34,6.47-3.2,6.47-3.2,2.99-1.34,3.12-1.33,4.28-1.93.47-.25,2.07-1.09,3.67-2.16,3.12-2.09,3.89-3.46,6.47-5.66.95-.81,3.41-2.89,6.56-4.34,5.84-2.72,11.23-2.01,11.23-2.46,0-.32-2.75-.63-5.16-.57-3.9.09-6.75,1.11-7.7,1.48-.55.21-2.59,1.03-5.33,2.95-4.54,3.2-4.05,4.6-7.46,7.05-.52.38-3.98,1.87-10.9,4.84,0,0-3.9,1.68-5.9,4.34-.84,1.11-1.04,2.22-1.15,2.79-.07.38-.19,1.06.07,1.2.33.18,1.14-.64,1.2-.7.22-.23.39-.47.46-.58.25-.37.37-.66.37-.66h0Z"/>
  <path class="cls-19" d="M519.91,142.07c.36-.09.76-.18,1.29-.2.55-.02,1.18-.05,1.89.24.35.14,1.03.42,1.35,1.11.18.38.18.73.18.82,0,.18,0,.51-.21.84-.15.25-.35.38-.66.58-.1.06-.27.17-.52.29-.41.18-.79.29-1.14.35-.18.04-.6.1-2.3.07-.86-.01-1.03-.04-1.25-.12-.25-.09-.78-.29-1.11-.84-.07-.13-.35-.61-.22-1.23.07-.36.25-.61.33-.72.26-.35.57-.51.92-.7.54-.28,1-.39,1.43-.49h0Z"/>
  <path class="cls-19" d="M500.92,162.33c-.41.33-.18,1.12-.94,1.82-.36.33-.67.39-.66.57.02.32.93.33,2.13.78.6.22,1.35.7,2.87,1.64.63.39.94.6,1.58.96.72.41,1.26.66,1.48.77,3.45,1.8,7.78,5.32,7.78,5.32,6.43,5.14,8.34,6.79,11.8,10.69,2.55,2.88,4.65,6.28,6.46,6.11,1.01-.1,1.8-.61,1.8-.61.83-.53,1.22-1.27,1.33-1.46.04-.08,2.52-2.8,7.46-8.23,6.54-7.2,7.2-7.76,8.57-8.3,1.54-.61,2.87-.75,6.76-.7,3.66.04,8.72.23,14.84.89,1.67.04,3.04.15,3.96.24,6.46.64,23.76,3.5,25.11,3.29.55-.09.94-.36.94-.36.21-.15.35-.31.43-.4.18-.21.3-.41.5-.83.34-.72.33-.86.58-1.32.18-.33.33-.53.46-.7.46-.62.44-.7,1.73-2.74,1.15-1.83,1.26-1.92,1.4-2.41.15-.53.14-.81.41-1.4.41-.89.82-1.03.77-1.42-.09-.69-1.55-1.37-2.46-.95-.3.14-.58.56-1.12,1.39-.13.2-.21.33-.78,1.3-.73,1.23-.77,1.31-.94,1.58-.36.57-.35.5-.8,1.2-.34.53-.69,1.11-.77,1.23-.19.32-.29.49-.5.81-.16.26-.19.3-.29.45-.12.2-.16.3-.29.48-.14.21-.22.29-.28.34-.1.09-.19.15-.29.19-.39.2-.91.36-1.06.41-.3-.02-.71-.04-1.2-.08-.36-.02-2.03-.15-3.79-.36-.57-.07-1.48-.18-4.77-.75-1.25-.21-2.89-.5-4.82-.86-1.22-.17-2.93-.4-4.98-.66-2.2-.28-3.69-.47-5.55-.67-2.71-.29-4.98-.52-7.99-.64-3.26-.13-2.68.05-6.3-.09-1.42-.05-2.75-.13-4.64.03-1.4.12-2.42.32-3.35.58-.74.21-1.55.44-2.52.95-1,.53-1.65,1.08-2.49,1.78-.81.68-1.35,1.23-1.97,1.87-.81.83-.87.95-2.7,2.95-.66.72-.98,1.08-1.48,1.6-.84.89-1.01,1.05-1.84,1.94-.67.72-.74.81-1.2,1.29-.74.77-.96.93-1.42,1.4-2.05,2.08-3.34,3.91-3.34,3.91-.22.32-.42.61-.77.67-.67.12-1.32-.75-2.01-1.64-.86-1.1-1.87-2.08-2.65-3.24-.67-1-1.01-1.26-6.06-5.94-5.07-4.7-4.67-4.37-5.12-4.75-2.93-2.44-5.4-3.97-7.76-5.44-3.58-2.24-2.27-1.07-5.31-2.95-1.45-.89-3.24-2.09-3.93-1.54v.02Z"/>
  <path class="cls-19" d="M607.82,144.98c-3.4,4.19-1.87,10.15-1.39,10.2.49.04.18-6.06,4.34-9.7.44-.39,1.49-1.29,3.12-1.88,3.18-1.17,5.98-.2,6.06-.57.07-.31-1.77-1.39-4.02-1.56-2.89-.22-6.12,1.06-8.11,3.52h0Z"/>
  <path class="cls-19" d="M663.68,114.67c.58-.83.24-2.05.11-2.52-.2-.71-.3-1.09-.61-1.26-.32-.18-1.18-.33-4.38,2.75-2.14,2.06-3.55,3.88-4.32,4.86-2.81,3.63-4.22,5.44-4.73,6.21-1.27,1.91-1.26,2.2-5.64,10.04-1.84,3.29-2.55,4.53-4.14,5.35-.57.29-1.86.76-4.45,1.69-1.49.53-2.23.8-2.5.87-4.44,1.29-7.21-.26-7.97,1.01-.47.78.1,2.21.95,2.7.57.33,1.09.16,2.84-.2,2.71-.57,1.97-.27,3.91-.73,1.44-.34,2.56-.67,4.32-1.23,3.59-1.14,5.39-1.7,5.74-1.89,2.16-1.16,2.19-2.55,5.33-8.03.53-.94-.06.14,6.82-10.4,0,0,1.23-1.88,3.71-4.93,2.32-2.84,3.01-3.27,3.71-3.51.38-.13.94-.27,1.31-.78h0Z"/>
  <path class="cls-19" d="M483.65,152.23c-.19-3.17,1.05-5.44,1.29-5.88.27-.49.98-1.66,2.28-2.77,1.36-1.17,2.61-1.62,3.25-1.8.8-.23,1.65-.46,2.33,0,.39.27.78.82.63,1.17-.23.53-1.51.16-2.79.45-1.77.41-2.8,1.94-3.61,3.15-2.67,3.97-2.27,8.31-2.79,8.29-.33-.01-.53-1.73-.59-2.61h0Z"/>
  <path class="cls-19" d="M480.29,150.43c1.03-.7,1.59-2.33,1.08-2.97-.55-.69-2.08.13-6.73,1.39-4.5,1.22-5.64,1.14-6.37,2.3-.76,1.23-.29,2.6.54,5.49,2.07,7.22.78,4.48,2.7,10.53,1.19,3.76,2.11,6.68,3.78,10.53.99,2.29,2.25,4.71,4.73,9.45,2.59,4.96,3.88,7.44,4.59,8.64,6.38,10.85,16.05,16.5,16.07,16.48.01-.01-3.51-2.15-4.72-5.54-.16-.46-.47-1.46-1.18-2.75-.39-.73-.82-1.36-1.66-2.47-1.4-1.83-1.99-2.39-3.51-4.23-.77-.94-1.65-2.01-2.6-3.35-1.28-1.81-2.1-3.27-2.67-4.31-3.51-6.31-5.26-9.46-5.66-10.3-1.89-3.9-2.88-6.6-4.86-12.02-.79-2.15-2.03-5.64-2.03-9.99,0-1.98.26-3.55,1.35-4.73,1.14-1.22,2.83-1.64,3.38-1.76,1.95-.41,2.75.29,3.78-.41h0Z"/>
</svg>