<?xml version="1.0" encoding="UTF-8"?>
<svg id="Camada_1" data-name="Camada 1" xmlns="http://www.w3.org/2000/svg" viewBox="0 0 597.57 413.07">
  <defs>
    <style>
      .cls-1 {
        fill: #fac26e;
      }

      .cls-1, .cls-2, .cls-3, .cls-4, .cls-5, .cls-6, .cls-7, .cls-8, .cls-9, .cls-10, .cls-11, .cls-12, .cls-13, .cls-14, .cls-15 {
        stroke-width: 0px;
      }

      .cls-2 {
        fill: #a87d71;
      }

      .cls-3 {
        fill: #b59183;
      }

      .cls-4 {
        fill: #ea7b2d;
      }

      .cls-5 {
        fill: #85382a;
      }

      .cls-6 {
        fill: #ad684e;
      }

      .cls-7 {
        fill: #b99789;
      }

      .cls-8 {
        fill: #e5d4be;
      }

      .cls-9 {
        fill: #200f0f;
      }

      .cls-10 {
        fill: #bfa496;
      }

      .cls-11 {
        fill: #cebbb2;
      }

      .cls-12 {
        fill: #dbcab7;
      }

      .cls-13 {
        fill: #fff;
      }

      .cls-14 {
        fill: #b36c50;
      }

      .cls-15 {
        fill: #a55b43;
      }
    </style>
  </defs>
  <g>
    <path class="cls-9" d="M73.13,368.04c-4.17-4.15-9.29-7.1-13.67-11.02-21.69-19.4-37.59-42.72-47.42-70.08-6.37-17.71-10.22-36-11.31-54.84-.45-7.81-1.07-15.61-.48-23.44.05-.62.07-1.25.17-1.86.85-5.28,3.54-6.67,8.23-4.13,5.73,3.09,10.69,7.32,16.02,11.01.8.56,1.55,1.19,2.32,1.79q3.46,2.69,5.86-1.15c4.26-6.84,5.39-7.01,11.53-1.84,1.49,1.26,3.05,2.44,4.54,3.7,1.04.88,1.78.74,2.56-.38,1.94-2.76,3.55-5.54,3.82-9.11.37-4.96,1.77-9.77,2.96-14.59.41-1.66-.08-2.22-1.69-2.44-5.28-.73-10.54-1.58-15.81-2.39-1.76-.27-3.44-.82-5.1-1.49-2.99-1.21-4.68-3.39-5.04-6.61-1.12-9.89-.29-19.71,1.34-29.47,5-30.02,17.07-57.05,34.77-81.69,12.2-16.98,26.18-32.25,42.71-45.12,12.39-9.65,25.92-17.06,41.26-20.8,17.28-4.21,34.03-1.7,50.42,4.45,27.05,10.16,49.94,26.49,69.73,47.32,13.92,14.65,25.79,30.74,33.33,49.71,2.04,5.13,3.66,10.38,4.81,15.78,1.12,5.24-.06,7.8-4.55,10.85-6.77,4.6-13.9,8.59-21.06,12.52-2.13,1.17-2.18,2.13-.88,3.85,4.95,6.53,9.28,13.46,12.92,20.8.81,1.64,1.63,2.19,3.14.87.33-.29.73-.51,1.1-.74,5.92-3.74,6.7-3.55,10.22,2.62.84,1.46,1.59,2.98,2.36,4.47.87,1.69,1.75,1.77,3.29.52,6.06-4.92,12.14-9.83,18.82-13.91.9-.55,1.82-1.11,2.78-1.54,3.35-1.46,5.93-.44,7.27,3.01,1.2,3.07,1.74,6.35,2.08,9.59,3.89,37.31-.2,73.8-12.21,109.29-8.87,26.22-23.43,49.05-42.93,68.71-5.27,5.31-11.33,9.7-17.13,14.4-.89.72-1.67,1.57-2.51,2.35-2.95,1.95-5.89,3.91-8.84,5.86-.24.09-.51.15-.73.29-19.92,12.61-41.87,19.5-65.06,22.59-14.72,1.96-29.5,2.31-44.34.74-16.69-1.77-32.85-5.49-48.46-11.63-8.2-3.23-15.86-7.49-23.47-11.86-2.56-1.65-5.11-3.3-7.67-4.95ZM309.89,307.41c.16-.21.32-.42.48-.63.2-.34.4-.69.61-1.03.21-.36.42-.71.64-1.07.46-.46.81-.98.87-1.65,2.04-3.59,4.08-7.18,5.43-11.1l-.04-.03c.47-.22.54-.65.57-1.09l-.04.02c.46-.24.48-.69.52-1.13,0,0-.04.03-.04.03,4.54-9.34,7.62-19.19,10.12-29.23,1.98-7.98,3.87-15.99,4.72-24.19.02-.36.04-.71.06-1.07-.03-.35-.06-.7-.08-1.05.23-.75.57-1.48.67-2.24.55-4.22,1.16-8.43,1.53-12.67.89-10.17.94-20.36.37-30.55.05-.88.17-1.77.13-2.65-.05-1.28.32-2.98-.96-3.57-1.29-.59-2.42.7-3.48,1.5-6.83,5.14-11.97,11.8-16.93,18.64-4.91,6.78-8.34,14.39-12.35,21.68-2.28,4.14-5.41,6.95-10.08,8.45-4.99,1.6-10.07,2.73-15.11,4.11q-4.53,1.24-2.66,5.53c.2,1.57.46,3.14.6,4.72,1.4,15.61-11.03,27.59-27.09,23.89-.4-.2-.84-.34-1.18-.61-1.93-1.55-3.16-.98-4.34,1.06-2.13,3.67-4.48,7.22-6.73,10.83-.94,1.51-1.99,2.55-4.07,2.33-6.88-.75-13.75-1.6-20.57-2.78-16.32-2.83-32.73-4.27-49.32-3.93-6.92.14-12.59,2.03-17.48,7.27-6.67,7.14-13.15,14.46-19.71,21.7-2.71,2.99-2.83,3-5.58-.2-9.74-11.36-19.98-22.21-32.74-30.29-.67-.42-1.27-.8-1.46-.92-6.62-4.08-12.6-6.55-17.1-8.09-.38-.44-.98-.98-1.76-1.04-.69-.06-1.4.28-2.23.98-1.95,1.66-4.32,2.63-6.83,3.34-4.53,1.28-8.87.3-13.25-.69-2.62-2.21-5.61-3.98-7.6-6.94-3.21-4.78-3.7-10.02-3.07-15.52.51-1.55,1.01-3.09,1.63-4.99-6.53,1.06-12.28,3.39-18.21,5.08-2.47.7-2.88,1.94-2.47,4.22,1.58,8.71,3.61,17.3,6.27,25.74,7.5,23.73,19.96,44.49,37.34,62.29,1.38,1.82,3.07,3.32,4.81,4.77,2,2.03,4.06,4,6.47,5.56.05.09.13.15.24.16.24.24.47.48.71.73,4.96,4.37,10.34,8.16,16.09,11.43.71.52,1.38,1.1,2.13,1.54,9.5,5.57,19.4,10.25,29.92,13.55,8.7,2.72,17.47,5.14,26.57,6.09.24.11.46.3.71.33,19.48,2.85,38.92,2.61,58.28-1.01,17.14-3.21,33.43-8.79,48.61-17.46,14.63-8.36,27.39-19.04,38.49-31.67,7.09-8.08,13.62-16.61,18.88-26.04.13-.08.18-.19.16-.33l-.08-.08ZM62.29,219.2c.15,1.92.08,3.87.94,5.66-.17,3.8,1.09,7.31,2.22,10.85,1.11,5.23,3.44,10.04,5.27,15.02,1.89,5.16,5.25,8.47,10.36,10.9,15.49,7.37,28.41,18.21,39.54,31.21,1.33,1.55,2.27,1.88,3.67.09,6.3-8.08,13.7-15.08,21.58-21.59,1.64-1.36,3.33-2.77,5.54-2.99,3.08-.3,6.18-.51,9.28-.56,5.77-.1,11.55-.06,17.32-.08,7.21.69,14.45,1.08,21.64,2.13,6.99,1.02,14.01,1.86,21.01,2.78,2.43,1.16,5.14.89,7.68,1.51,1,.24,1.56-.45,2.07-1.29,1.59-2.64,3.29-5.22,4.89-7.85.67-1.11,1.5-2.28.36-3.61-.97-3.66-2.01-7.28-1.71-11.17.23-2.94,1.47-5.62,1.73-8.52,2.04-2.54,3.54-5.5,5.96-7.74,6.22-5.74,13.15-8.98,21.82-6.25,1.44.45,2.61,1.54,4.18,1.61,7.69-2.05,15.29-4.44,23.14-5.86.65-.12,1.25-.41,1.55-.95,2.17-3.81,4.9-7.4,4.01-12.28-1.29-7.11-2.47-14.17-4.48-21.19-4.85-16.96-13.43-31.54-25.35-44.34-12.9-13.85-28.86-23.1-45.96-30.65-1.8-.79-3.22-.46-4.64.76-1.61,1.38-3.44,2.54-4.95,4.02-4.21,4.13-9.55,3.32-13.55-1.06-2.78-3.04-6.41-5.04-9.23-8-.61-.64-1.48-.97-2.42-.97-2.58,0-5.16.04-7.73,0-3.95-.05-6.8,1.48-8.62,5.17-1.21,2.44-2.96,4.62-4.48,6.9-3.36,5.04-6.24,6.04-12.08,3.94-3.83-1.37-7.65-2.82-11.34-4.53-1.91-.88-3.51-.74-5.32,0-5.67,2.31-11.2,4.91-16.63,7.75-1.57.82-2.65,1.92-3.47,3.5-2.61,5.04-5.25,10.06-8.04,15-3.66,6.47-3.91,6.49-12.58,5.78-.53-.04-1.04-.23-1.56-.29-.92-.11-1.69.13-2.45.75-4.02,3.26-7.19,7.35-10.78,11.02-.66.67-1.67,1.45-1.36,2.73-1.15.7-2.06,1.63-2.83,2.74-10.47,15.02-15.44,31.6-14.2,49.94ZM62.66,253.9c-.66-7.2-3.21-13.72-7.17-19.72-1.11-1.88-2.84-1.22-4.27-.82-8.25,2.31-13.58,13.59-10.26,21.49.37,1.59,1.24,2.89,2.38,4.02.34.34.7.98,1.28.6.27-.18.37-.76.39-1.17.11-2.04.46-4.02,1.14-5.94.26-.73.55-1.58,1.59-1.49,1.1.1,1.06,1,1.14,1.79.19,2.02.38,4.04.56,6.06-.26,1.71.35,3.04,1.98,3.61,4.95,1.75,11.31-3.06,11.24-8.42ZM263.34,234.69c-1.03-.79-2.07-1.45-3.44-1.68-11.7-1.92-21.99,10.95-17.84,22.37,1.26,4.41,6.12,7.86,10.57,7.51,1.78-.14,2.99-.91,3.31-2.8.3-1.82.6-3.65,1.03-5.44.45-1.82.52-3.98,3.02-4.44.94,3.24.49,6.62.85,10.01,5.63-2.79,8.43-10.91,6.27-17.62-.62-2.94-.88-6.06-3.78-7.92ZM217.22,26.56c-.17-.6-.75-.71-1.19-.95-7.61-4.2-15.57-7.59-23.84-10.29-4.44-1.45-8.93-2.47-13.6-2.62-2.63-.85-5.3-1.45-8.07-1.57-6.98-.3-13.83.59-20.51,2.53-14.31,4.16-26.68,11.91-37.89,21.48-28.71,24.51-49.59,54.54-62.55,90.01-3.16,8.64-5.4,17.55-6.5,26.72-1.3,6.01-1.58,12.08-1.74,18.9.97-1.03,1.35-1.39,1.68-1.79,8.12-10.11,16.28-20.18,24.29-30.37,1.87-2.38,3.61-3.16,6.67-2.25,7.13,2.14,14.4,3.8,21.58,5.75,1.86.51,3.01.05,3.89-1.65,3.02-5.83,6.11-11.63,9.15-17.44,3.59-6.84,7.21-13.66,10.71-20.55,1.04-2.04,2.29-2.28,4.25-1.37,2.73,1.28,5.55,2.35,8.33,3.52,6.79,2.86,13.56,5.75,20.35,8.6,3.69,1.55,4.01,1.46,6.26-1.9,1.54-2.28,3-4.61,4.52-6.91,3.53-5.33,7.04-10.67,10.61-15.97,2.24-3.32,3.26-3.42,6.29-.77.53.47,1.05.96,1.57,1.44,6.53,6.02,13.05,12.06,19.6,18.05,3.65,3.34,3.63,3.26,7.19-.13,7.45-7.12,14.99-14.14,22.41-21.3,1.77-1.71,3.22-1.81,5.02-.16,2.35,2.15,4.76,4.24,7.24,6.24,3.21,2.6,6.09,5.57,10.36,6.77,11.8,3.31,23.32,7.48,34.62,12.22,2.49,1.04,4.96,2.22,8,2.8-1.2-4.12-2.75-7.75-4.54-11.28-.37-.9-.66-1.84-1.11-2.69-7.65-14.42-17.12-27.5-28.74-38.99-2.36-2.38-4.7-4.78-7.08-7.14-7.77-7.72-16.51-14.23-25.56-20.32-3.7-2.5-7.4-5.1-11.67-6.65Z"/>
    <path class="cls-11" d="M262.87,372.86c2.95-1.95,5.89-3.91,8.84-5.86,13.74,2.2,27.47,4.48,40.65,9.18,3.51,1.25,7.02,2.53,10.11,4.7,4.96,3.49,4.95,7.77,0,11.32-5.75,4.12-12.46,5.91-19.08,7.9-11.74,3.53-23.82,5.5-35.9,7.28-9.1,1.34-18.31,1.91-27.47,2.89-31.42,3.36-62.94,2.99-94.45,2.48-11.31-.19-22.66-.85-33.93-2.34-8.95-1.18-17.99-1.7-26.94-2.91-9.29-1.26-18.55-2.83-27.7-4.94-8.34-1.93-16.66-3.92-24.39-7.76-2.08-1.03-3.99-2.31-5.61-3.99-3.18-3.31-2.95-5.97.64-8.95,1.95-1.62,4.21-2.61,6.49-3.6,9.75-4.23,20.09-6.36,30.42-8.53,2.86-.6,5.73-1.13,8.6-1.69,2.56,1.65,5.11,3.3,7.67,4.95-1.79.94-3.68,1.73-5.13,3.22-1.71,1.74-1.77,3.35-.05,5.07,1.45,1.45,3.21,2.49,5.05,3.37,6.65,3.17,13.63,5.43,20.74,7.3,3.68.96,7.32,2.31,11.06,2.71,6.87.72,13.59,2.25,20.44,3.05,8.08.94,16.15,2.18,24.27,2.33,17.12.32,34.25.53,51.3-1.55,6.31-.77,12.62-1.6,18.87-2.74,6.52-1.18,13.02-2.56,19.43-4.22,7.37-1.91,14.61-4.3,21.14-8.39,3.01-1.88,3.88-4.62,1.84-6.57-1.9-1.81-4.08-3.42-6.88-3.7Z"/>
    <path class="cls-12" d="M33.33,247.51c-.63,5.5-.14,10.74,3.07,15.52,1.99,2.96,4.98,4.73,7.6,6.94,2,3.96,8.98,7.15,13.22,6.17,3.42-.79,6.21-2.7,9-4.66,2.79.39,5.04,2.08,7.45,3.3,8.89,4.49,17.06,10.11,24.6,16.6,6.74,5.79,13.09,12.02,18.72,18.89,4.06,4.96,5.71,5.22,10.06.63.24-.26.52-.49.74-.77,6.55-8.17,13.89-15.61,21.03-23.25,2.96-3.17,6.3-4.11,10.34-4.19,15.63-.34,31.14.89,46.68,2.49,9.61.99,19.09,2.57,28.61,4.03,4.07.62,4.27.59,6-3.26,1.74-3.88,4.23-7.3,6.51-10.85,1.24.64,2.47,1.31,3.74,1.9,4,1.89,8.19,2.36,12.53,1.53-2.62,5.01-6.06,9.5-8.96,14.32-.21.16-.49.27-.63.48-6.12,8.88-13.42,16.69-21.33,24-6.54,6.04-13.57,11.4-21.04,16.2-12.14,7.8-25.28,13.35-39.06,17.54-11.1,3.38-22.47,5.07-34.02,5.13-8.93.05-17.81-.95-26.6-2.93-14.2-3.2-27.32-8.8-39.41-16.78-8.21-5.41-15.6-11.92-22.81-18.6-1.62-2.38-3.74-4.35-5.5-6.63-1.07-1.38-1.67-3.33-3.57-4.02h0c.02-.47-.14-.87-.54-1.15-1.15-2.95-3.12-5.45-4.87-8.02-1-1.47-1.82-3.39-3.71-4.18-.33-.52-.73-1.01-.99-1.57-5.66-12.29-9.52-25.12-11.99-38.42-.45-2.4.44-3.19,2.21-3.57,4.31-.93,8.47-2.58,12.92-2.84ZM58.59,305.66c2.04.04,3.96-1.93,4.05-4.16.11-2.82-3.48-6.7-6.37-6.9-1.69-.11-4.1,2.06-4.2,3.78-.21,3.82,2.82,7.21,6.52,7.28Z"/>
    <path class="cls-3" d="M49.36,317.91c7.21,6.68,14.6,13.19,22.81,18.6,12.09,7.97,25.21,13.57,39.41,16.78,8.79,1.98,17.66,2.98,26.6,2.93,11.55-.06,22.92-1.75,34.02-5.13,13.77-4.19,26.92-9.74,39.06-17.54,7.47-4.8,14.5-10.16,21.04-16.2,7.91-7.31,15.2-15.13,21.33-24,.14-.21.42-.32.63-.48,1.43-.05,2.38.55,2.65,2.01.17.93-.36,2.46,1.42,2.16,1.98-.33.64-1.79.73-2.76.03-.34-.01-.72-.13-1.04-.28-.77-.62-1.54.2-2.16.83-.63,1.46-.1,2.09.45,1.48,1.31,2.05.45,2.1-1.02.05-1.61-.08-3.17,1.65-4.14.82-.46.49-1.27-.07-1.79-1.34-1.24-.8-1.92.64-2.33,1.69-.48,1.89-1.35.84-2.7-.38-.48-.6-1.08-.89-1.62,2.49-1.25,4.97-2.5,7.46-3.76.11.5.2,1.18.9.78.8-.45.97-1.15.16-1.84,1.42-1.96,2.84-3.91,4.26-5.87.93-.01,1.78.08,2.11,1.18.77,2.53,4.1,2.4,5.03,4.79.04.1.56.16.69.04,1.49-1.27,3.25-.58,4.86-.62,1.94-.05,3.34-.46,3.35-2.75,0-.65.24-1.33,1-1.33.93,0,1.09.78,1.09,1.52.03,2.04.07,4.08,0,6.12-.14,4.01,1.26,7.18,4.84,9.22-.9,1.42-.76,3.49-2.68,4.26-.91-.97-1.61-.44-2.05.42-.66,1.29-1.2,2.41-2.64,3.28-1.03.63-1.57,2.72.44,3.78-2.18,4.58-5.39,8.48-8.2,12.65-4.36,6.48-9.55,12.32-14.76,18.04-4.39,4.82-9.11,9.44-14.18,13.64-5.04,4.17-10.31,8.03-15.73,11.66-5.17,3.47-10.73,6.21-16.38,8.84-3.11,1.45-6.33,2.63-9.5,3.84-6.71,2.57-13.64,4.49-20.83,5.35-7.16.86-14.19,2.82-21.52,2.3-3.35-.23-6.7-1.09-10.05-.54-3.94.64-7.67-.25-11.46-1.02-2.91-.59-5.08,1.85-4.39,4.78.26,1.12.85,1.65,2.05,1.55,1.36-.12,2.64-.12,3.21,1.62.15.45,1.16.78,1.82.88,2.01.3,4.05.73,6.05.63,6.63-.35,13.22.62,19.87.14,6.89-.5,13.75-1.26,20.5-2.55,11-2.12,21.87-4.86,32.21-9.35,3.38-1.47,7.05-2.43,10.14-4.35,9.57-5.93,19.44-11.4,28.04-18.86,4.69-4.07,9.31-8.17,13.42-12.78,4.05-4.54,7.63-9.49,11.56-14.15,3.52-4.17,6.18-8.93,9.31-13.36,1.73-2.45,3.29-5.02,4.74-7.65,2.58-4.68,5.01-9.43,7.5-14.15,1.44.33,1.78,1.33,1.38,2.57-.31.96-.28,1.89-.22,2.84,0,0,.04-.03.04-.03-.57.19-.62.63-.52,1.13,0,0,.04-.02.04-.02-.62.14-.66.58-.57,1.09,0,0,.04.03.04.03-.26.01-.65-.08-.76.05-2.47,2.93-3.29,6.73-5.21,9.96-.22.36.13.84.54,1.09-.06.67-.41,1.19-.87,1.65-.38,0-.83-.12-1.05.33-.19.39.16.55.41.73-.2.34-.4.69-.61,1.03-.16.21-.32.42-.48.63,0,0,.08.08.08.07-.14,0-.29.01-.43.02.09.11.18.21.27.32-5.25,9.44-11.78,17.97-18.88,26.04-11.1,12.63-23.86,23.31-38.49,31.67-15.18,8.67-31.47,14.26-48.61,17.46-19.37,3.62-38.8,3.86-58.28,1.01-.25-.04-.48-.22-.71-.33-1.42-.75-2.42-2.51-4.28-2.19-4.54.8-8.21-1.78-12.28-2.89.61-.29,1.18-.34,1.76-.4.64-.07.92-.47.89-1.09-.03-.65-.43-.86-1.02-.98-6.36-1.29-12.43-3.44-18.47-5.81-6.06-2.38-11.84-5.28-17.67-8.11-2.53-1.23-4.76-3.09-7.57-3.71-2.88-2.83-6.46-4.75-9.7-7.08-2.11-1.52-3.77-3.67-6.27-4.65-3.43-3.5-6.87-6.99-10.29-10.5-.47-.48-.97-.75-1.64-.54-2.09-2.72-4.18-5.44-6.26-8.17.68-1.04.25-1.79-.29-2.84-1.09-2.13-3.05-4.04-2.37-6.81ZM281.77,276.85c-.52-2.47-3.28-1.23-4.97-1.94-1.2-.5-1.64.55-1.72,1.67-.15,2.06,1.47,4.36,3.22,4.53,1.97.19,3.21-1.13,3.47-4.26ZM138.16,378.78c-1.16-.7-2.32-1.53-3.91-.59,1.3,1.32,2.56,1.27,3.91.59ZM285.66,274.81c-1.23.34-2.03.67-2.41,1.9,1.48.13,2.04-.49,2.41-1.9ZM270.02,278.51c-.25.34-.55.58-.61.87-.1.49.31.6.63.42.25-.14.41-.49.52-.78.03-.08-.3-.28-.55-.51Z"/>
    <path class="cls-5" d="M79.33,166.53c-.3-1.28.7-2.05,1.36-2.73,3.59-3.67,6.76-7.76,10.78-11.02.76-.62,1.53-.86,2.45-.75.53.06,1.04.25,1.56.29,8.67.71,8.92.69,12.58-5.78,2.79-4.94,5.43-9.96,8.04-15,.82-1.58,1.9-2.68,3.47-3.5,5.43-2.84,10.96-5.44,16.63-7.75,1.81-.74,3.41-.88,5.32,0,3.69,1.7,7.51,3.15,11.34,4.53,5.85,2.1,8.72,1.1,12.08-3.94,1.52-2.29,3.28-4.46,4.48-6.9,1.82-3.69,4.67-5.22,8.62-5.17,2.58.03,5.15,0,7.73,0,.94,0,1.81.32,2.42.97,2.82,2.96,6.45,4.96,9.23,8,4,4.38,9.34,5.2,13.55,1.06,1.51-1.48,3.33-2.64,4.95-4.02,1.42-1.22,2.84-1.55,4.64-.76,17.1,7.55,33.06,16.79,45.96,30.65,11.92,12.8,20.5,27.38,25.35,44.34,2,7.02,3.19,14.08,4.48,21.19.88,4.88-1.84,8.47-4.01,12.28-.3.54-.9.83-1.55.95-7.85,1.42-15.45,3.81-23.14,5.86-.15-1.11.17-2.09.76-3.01,2.45-3.88,4.52-7.93,5.62-12.42,1.94-4.98,3.17-10.17,3.56-15.45.51-6.9.74-13.87-.63-20.7-2.35-11.76-7.55-22.14-15.41-31.25-7.69-8.91-16.81-15.91-27.33-21.05-2.17-1.06-4.52-1.34-7.1-.34-3.96,1.53-6.75,4.51-9.83,7.11-3.76,3.17-5.34,3.5-9.41.88-4.82-3.1-9.54-6.32-14.59-9.09-4.56-2.5-8.8-1.91-13.24-.52-5.33,1.66-9.84,4.91-14.03,8.35-4.14,3.4-8.51,4.14-13.33,2.89-8.67-2.25-16.39-.08-23.86,4.28-9.08,5.29-15.69,13.12-22.29,20.99-1.05,1.38-2.45,1.83-4.14,1.64-1.91-.22-3.83-.31-5.73-.54-2.01-.24-2.97.64-3.04,2.61-1.23.01-2.51-.18-3.69.07-2.23.47-4.79.09-6.46,2.22-1.45-.41-2.73.49-4.12.55Z"/>
    <path class="cls-2" d="M291.38,102.34c1.79,3.53,3.34,7.15,4.54,11.28-3.04-.58-5.51-1.75-8-2.8-11.31-4.74-22.82-8.91-34.62-12.22-4.27-1.2-7.15-4.17-10.36-6.77-2.48-2-4.89-4.1-7.24-6.24-1.8-1.64-3.25-1.54-5.02.16-7.42,7.15-14.96,14.18-22.41,21.3-3.55,3.39-3.54,3.47-7.19.13-6.55-6-13.07-12.03-19.6-18.05-.52-.48-1.04-.97-1.57-1.44-3.03-2.65-4.05-2.56-6.29.77-3.57,5.3-7.08,10.64-10.61,15.97-1.52,2.3-2.99,4.63-4.52,6.91-2.25,3.35-2.57,3.45-6.26,1.9-6.79-2.85-13.57-5.74-20.35-8.6-2.78-1.17-5.6-2.24-8.33-3.52-1.96-.92-3.21-.68-4.25,1.37-3.51,6.88-7.13,13.7-10.71,20.55-3.05,5.82-6.13,11.61-9.15,17.44-.88,1.69-2.02,2.15-3.89,1.65-7.19-1.95-14.45-3.61-21.58-5.75-3.06-.92-4.8-.13-6.67,2.25-8.01,10.19-16.18,20.26-24.29,30.37-.33.41-.72.77-1.68,1.79.16-6.82.44-12.9,1.74-18.9,1.34-1.44,2.86-2.73,3.74-4.54.98-.11,1.51-.89,2.12-1.52,4.66-4.75,9.3-9.51,13.94-14.28,1.45-1.49,2.96-2.18,5.22-1.68,6.57,1.45,13.2,2.69,19.83,3.89,5.89,1.06,7.24.29,10.45-4.91,6.15-9.97,12.34-19.9,18.57-29.82,2.06-3.29,2.37-3.25,6.03-1.98,8.71,3.02,17.29,6.45,26.21,8.88,4.24,1.15,5.78.59,8.48-2.87,4.36-5.59,8.72-11.18,13.1-16.75q4.04-5.13,9.85-1.95c.34.63.91.93,1.56,1.13.69.86,1.55,1.48,2.63,1.78.48.93,1.5,1.22,2.22,1.88,1.06.77,2.04,1.67,3.18,2.29,3.37,1.82,5.87,4.95,9.56,6.27l.05-.04c2.6,3.59,5.4,4.14,6.53,1.03,1.36-1.11,2.81-2.13,4.07-3.35,6.35-6.13,12.67-12.3,18.95-18.5,1.05-1.03,2.11-1.85,3.6-1.96,2.91.87,5.05,2.97,7.42,4.7,1.26,1.1,2.43,2.32,3.79,3.29,3.43,2.45,6.39,5.83,10.51,7.02,7.38,2.12,14.68,4.5,22.03,6.7,4.9,1.93,9.8,3.86,14.7,5.78Z"/>
    <path class="cls-6" d="M274.01,213.9c-1.09,4.49-3.16,8.54-5.62,12.42-.58.92-.91,1.91-.76,3.01-1.57-.07-2.75-1.16-4.18-1.61-8.67-2.73-15.6.5-21.82,6.25-2.42,2.23-3.92,5.2-5.96,7.74-.48-.2-1.11.24-1.38-.78-.55-2.08.32-3.31,1.85-4.48.7-.53,1.78-1.05,1.26-2.33-.49-1.2-1.48-1.12-2.46-.89-.62.14-1.08.39-1.54-.4-.82-1.4-2.67-1.16-3.24-.53-1.68,1.85-5.23.46-6,3.64-.05.19-.6.34-.93.38-5.92.6-11.42,3.43-17.49,3.22-1.65-.06-3.18.14-3.89,2.04-.29.8-1.1,1.2-1.96.96-.79-.22-.5-1.01-.6-1.59-.12-.72.33-1.59-.41-2.14-.58.01-.46.49-.66.72-1.56,1.85-.25,4.88-2.62,6.38-.25-1.35.41-2.55.63-3.82.44-2.47.81-4.92-.07-7.37.28-5.2-.37-10.19-2.91-14.88-1.39-2.58-3.28-4.8-4.7-7.34.04-.51.03-1-.58-1.2l-.17.12c.6-.76,1.29-1.46,1.79-2.29.69-1.15,1.66-1.21,2.4-.41,1.56,1.68,3.56,2.25,5.64,2.45,1.2.12,1.39,2.32,2.98,1.31.06-.94-1.91-1.15-.68-2.44,1.02-1.06,2.12-1.23,3.34-.63.45.22.76.73,1.34.76.2,1.23-1.65,3.25,1.47,3.36.98.04.59,1.05.13,1.66-.61.81-1.49.85-2.4.86-.62.01-1.41.04-.94,1.03.55,1.14,3.39,1.45,4.89.6,1.28-.73,2.38-1.42.47-2.75-.34-.23-.22-1.03-.49-1.45-.84-1.28-1.18-3.06-3.12-3.32-.45-2.67-1.08-5.33-1.3-8.02-.29-3.65-.15-7.31,1.92-10.57-.14.87-.26,1.75-.41,2.62-1.96,11.34,3.26,22.01,13.54,26.95,8.66,4.16,19.15,2.56,26.13-3.73,7.38-6.65,10.05-16.97,6.94-26.24-1.15-3.45-3.35-6.22-5.31-9.16.96-.21,1.58.1,2.27.9,1.3,1.53,1.95,3.35,2.86,5.08,2.32,4.42,2.75,9.01,2.15,13.85-.21,1.67-.03,3.39-.03,5.12,1.11-.35.62-2.67,2.09-1.93,3.06,1.54,6.11-.3,9.11.35,1.27.27,3.52-.83,3.65.74.14,1.71-2.09,1.32-3.46,1.4-.52.03-1.18-.03-1.25.68-.1.94.69.8,1.27.92.94.2,2.2-.58,2.76.87.21.55-.3,1.73.9,1.47.93-.2,1.21-1.13,1.3-2.1.28-3.05.31-3.05,3.11-1.62,1.68.86,1.94,2.97.4,3.94-.56.36-1.54.25-1.23,1.29.28.96,1.16.97,1.98.96ZM258.02,209.93c.61-.09.69-.66.84-1.11.12-.36-.13-.68-.55-.57-.43.11-.7.46-.75.92-.04.35,0,.67.46.76Z"/>
    <path class="cls-15" d="M195.61,245.89c2.37-1.51,1.06-4.53,2.62-6.38.19-.23.07-.71.66-.72.75.55.29,1.42.41,2.14.1.58-.19,1.37.6,1.59.86.24,1.66-.16,1.96-.96.71-1.91,2.24-2.1,3.89-2.04,6.07.21,11.57-2.61,17.49-3.22.33-.03.89-.18.93-.38.77-3.17,4.32-1.78,6-3.64.56-.62,2.42-.86,3.24.53.46.79.92.54,1.54.4.98-.22,1.97-.31,2.46.89.52,1.28-.56,1.8-1.26,2.33-1.53,1.16-2.4,2.4-1.85,4.48.27,1.01.9.57,1.38.78-.26,2.9-1.5,5.59-1.73,8.52-.3,3.89.73,7.51,1.71,11.17-.48.23-1.05.36-1.42.71-3.01,2.89-6.53,5.1-9.78,7.66-1.24.98-3.41.82-3.81,2.87-7-.92-14.02-1.76-21.01-2.78-7.18-1.05-14.42-1.45-21.64-2.13.81-.65,1.76-1.1,2.62-1.68,4.92-3.32,8.53-7.8,11.74-12.67,1.62-.23,2.12-1.24,1.59-3.21.03-.42.07-.83.49-1.06,1.21-.19,1.48-.7.56-1.62.2-.53.4-1.06.61-1.58Z"/>
    <path class="cls-5" d="M195.61,245.89c-.2.53-.4,1.06-.61,1.58-.59.4-.45,1.05-.56,1.62-.42.24-.47.64-.49,1.06-.82.93-1.38,1.98-1.59,3.21-3.22,4.87-6.82,9.36-11.74,12.67-.86.58-1.81,1.03-2.62,1.68-5.77.02-11.55-.02-17.32.08-3.1.05-6.19.26-9.28.56-2.21.21-3.9,1.63-5.54,2.99-7.88,6.51-15.28,13.51-21.58,21.59-1.39,1.79-2.34,1.46-3.67-.09-11.13-13-24.05-23.83-39.54-31.21-5.11-2.43-8.47-5.74-10.36-10.9-1.82-4.98-4.15-9.79-5.27-15.02.32.05.64.1.96.14,1.67,2.72,2.38,6.09,5.34,7.95.2-.2.4-.4.6-.59.43,1.24.77,2.52,1.3,3.71,4.11,9.16,12.08,13.5,21.09,15.99,13.22,3.64,26.71,5,40.47,3.93,12.73-.99,25.03-3.43,36.68-8.79,8.09-3.72,15.22-8.64,20.71-15.78,1.76-2.29,2.07-5.19,3.56-7.56.87,2.45.5,4.9.06,7.37-.22,1.27-.88,2.48-.63,3.82Z"/>
    <path class="cls-7" d="M262.87,372.86c2.8.28,4.98,1.89,6.88,3.7,2.04,1.94,1.17,4.68-1.84,6.57-6.53,4.09-13.77,6.47-21.14,8.39-6.41,1.66-12.91,3.04-19.43,4.22-6.25,1.13-12.56,1.97-18.87,2.74-17.05,2.08-34.19,1.87-51.3,1.55-8.11-.15-16.19-1.39-24.27-2.33-6.85-.8-13.58-2.33-20.44-3.05-3.74-.39-7.39-1.74-11.06-2.71-7.11-1.87-14.09-4.13-20.74-7.3-1.84-.88-3.6-1.92-5.05-3.37-1.72-1.72-1.66-3.33.05-5.07,1.46-1.48,3.34-2.27,5.13-3.22,7.62,4.36,15.27,8.63,23.47,11.86,15.62,6.14,31.77,9.86,48.46,11.63,14.84,1.57,29.62,1.22,44.34-.74,23.2-3.09,45.14-9.98,65.06-22.59.22-.14.49-.19.73-.29Z"/>
    <path class="cls-6" d="M72.35,243.22c-.2.2-.4.4-.6.59-.91-3.9-.64-7.67,1.03-11.35.39-.85.77-1.69-.63-2.31-.86-.38-1.13-1.55-.72-2.58.22-.54.66-.85,1.27-.63.98.34,1.88.56,2.47-.65.59-1.2-.53-1.78-.95-2.55-.45-.81-1.1-1.84-2.18-1.68-1.28.19-.72,1.42-.76,2.2-.06,1.11-.52,1.89-1.49,2.3-.93.39-1.68-.07-2.37-.73-.47-.46-.92-1.39-1.69-.94-.87.51-.62,1.41-.46,2.36.5,2.86.79,5.75,1.16,8.63-.32-.05-.64-.1-.96-.14-1.14-3.54-2.4-7.05-2.22-10.85.04-2.97.08-5.94.11-8.91.1-.51.19-1.03.29-1.54.02-.35.05-.71.07-1.06,1.65-12.29,4.51-24.23,10.92-35.01,1.64-2.75,2.96-5.82,5.62-7.87.52,3.12-3.19,5.2-1.94,8.73.41,1.16.53,1.97,1.68,2.39-5.22,4.97-6.9,11.12-6.19,18.14.64,6.29,5.29,12.3,11.06,14.02,5.98,1.78,13-.45,16.98-5.37,4.74-5.87,5.63-12.42,3.49-19.51,2.04,1.12,2.63,3.12,2.94,5.2.86-.71-.45-2.58,1.37-2.41,1.43.14,1.04,1.6,1.08,2.6.05,1.14-.32,2.43.09,3.4.77,1.83-.29,4.94,3.19,5.08-.72,1.05-1.62,1.93-2.65,2.67-.22-.49.23-1.37-.76-1.39-.16,0-.43.35-.47.57-.22,1.18.82.54,1.23.82-3.52,4.09-7.08,8.1-12.34,10.09-3.64,1.38-7.27,2.8-10.84,4.37-11.3,4.96-16,11.96-15.8,23.32ZM75.18,180.66c-.03.08-.07.15-.07.23,0,.03.12.05.19.07.03-.08.07-.15.07-.23,0-.03-.12-.05-.19-.07Z"/>
    <path class="cls-3" d="M333.78,235.24l-.06,1.07c-.99.07-.97.83-1.1,1.53-.41,2.33-.65,4.71-1.31,6.97-1.76,6.09-3.7,12.12-5.57,18.18-.86-.37-3.11.62-2.37-1.19,1.27-3.11-.77-3.05-2.54-3.78-1.27-.53-3.08.19-3.91-1.54.74-.67,2.3-.27,2.29-1.53-.01-2.12-1.28-3.91-2-5.84.54-3.41,2.29-6.57,2.14-10.13.43-.23.52-.63.53-1.06.37-.66.62-1.36.53-2.14.62-.38.51-1,.52-1.58-.07-.78.18-1.48.54-2.15.72-.74.76-1.75,1.07-2.66,2.21-6.65,2.46-13.69,4.1-20.47.96-3.97.78-8.22,1.11-12.34,2.37-3.12,4.78-6.19,8.51-7.84.57,10.19.52,20.38-.37,30.55-.37,4.24-.98,8.45-1.53,12.67-.1.76-.44,1.49-.67,2.24-.51.39-.45.74.08,1.05Z"/>
    <path class="cls-10" d="M217.22,26.56c4.27,1.54,7.96,4.15,11.67,6.65,9.05,6.09,17.79,12.6,25.56,20.32,2.38,2.36,4.72,4.76,7.08,7.14-1.06.12-1.97.5-1.89,1.74.18,2.66-1.89,2.22-3.38,2.46-.65.1-1.36-.21-2.04-.33,0,0,.03,0,.03,0-.07-.69-.16-1.36-1.04-.57-1.04-.9-2.08-1.79-3.12-2.69-1.75-1.85-3.25-3.96-5.39-5.42-.16-.15-.31-.3-.47-.45-.39-.62-.86-1.11-1.67-1.07,0,0,0,.01,0,.01l-.54-.54h0c-.18-.17-.36-.35-.54-.53h.02c-.03-1.03-.73-1.45-1.59-1.72-.53-1.25-2.14-1.34-2.73-2.53-.2-.45-.59-.56-1.04-.56h.03c-.04-.61-.48-.88-.89-1.24-7.42-6.46-15.66-11.8-23.7-17.41.34-2.56,1.23-4.35,4.34-3.21.38.14.87,0,1.31-.02Z"/>
    <path class="cls-7" d="M254.22,64.53c.68.12,1.39.44,2.04.33,1.49-.24,3.56.21,3.38-2.46-.08-1.24.83-1.62,1.89-1.74,11.62,11.49,21.09,24.57,28.74,38.99.45.85.74,1.79,1.11,2.69-4.9-1.93-9.8-3.86-14.7-5.78-.19-.58-.26-1.23-.57-1.72-5.08-8.06-10.46-15.9-16.48-23.31-1.85-2.27-4.61-3.9-5.4-7Z"/>
    <path class="cls-6" d="M259.99,250.23c-2.5.46-2.57,2.61-3.02,4.44-.44,1.79-.73,3.62-1.03,5.44-.32,1.89-1.53,2.66-3.31,2.8-4.45.35-9.31-3.1-10.57-7.51.43-2.97.91-5.91,2.22-8.68,3.37-7.11,8.44-13.45,19.05-12.02,2.9,1.86,3.15,4.98,3.78,7.92-.12.26-.18.93-.46.6-.47-.56-.62-1.4-.85-1.97-1.47,2.71-3.07,5.48-4.46,8.34-.39.79-.71.83-1.35.64Z"/>
    <path class="cls-2" d="M274.83,242.42c.46-1.1,1.43-1.05,2.37-1.05.23,1.88,1.75,3.15,2.2,5.01,1.73,7.1,1.32,14.02-1.15,20.86-1.42,1.96-2.84,3.91-4.26,5.87-.36.35-.71.71-1.07,1.06-2.49,1.25-4.97,2.5-7.46,3.76-.75.2-1.5.4-2.25.6-4.34.83-8.53.36-12.53-1.53-1.26-.6-2.49-1.27-3.74-1.9-.51-.51-.97-.92-.18-1.7.66-.65,1.06-1.58,1.57-2.38,16.05,3.7,28.48-8.28,27.09-23.89-.14-1.58-.4-3.15-.6-4.72Z"/>
    <path class="cls-6" d="M55.49,234.18c3.96,6,6.51,12.52,7.17,19.72-1.43-1.63-.78.78-1.49.71-.92-.94-1.95-1.74-1.27-3.51.48-1.25-.47-2.14-1.75-2.48-.67-.18-1.42-.17-2.04-.45-1.17-.54-2-.81-1.99,1,0,.89-.44,1.59-1.51,1.27-2.83-.83-2.82.42-2.43,2.73.3,1.78,1.29,3.94-.74,5.53-.19-2.02-.37-4.04-.56-6.06-.08-.78-.03-1.69-1.14-1.79-1.04-.09-1.32.76-1.59,1.49-.69,1.92-1.03,3.91-1.14,5.94-.02.41-.12.98-.39,1.17-.58.39-.94-.26-1.28-.6-1.14-1.13-2.01-2.43-2.38-4.02.37-2.08.2-4.24.92-6.28,2.4-6.82,6.21-12.3,13.61-14.39Z"/>
    <path class="cls-7" d="M86.19,358.49c2.82.63,5.05,2.49,7.57,3.71,5.83,2.83,11.61,5.73,17.67,8.11,6.05,2.37,12.11,4.52,18.47,5.81.59.12,1,.34,1.02.98.03.62-.25,1.02-.89,1.09-.57.06-1.15.11-1.76.4,4.07,1.12,7.73,3.69,12.28,2.89,1.86-.33,2.86,1.43,4.28,2.19-9.11-.95-17.88-3.37-26.57-6.09-10.52-3.3-20.42-7.98-29.92-13.55-.75-.44-1.42-1.02-2.13-1.54-.34-1.33-.65-2.66-.02-4Z"/>
    <path class="cls-11" d="M217.22,26.56c-.44.02-.93.16-1.31.02-3.11-1.14-4,.65-4.34,3.21-6.7-3.64-13.4-7.31-20.48-10.17-5.36-2.16-10.89-3.91-16.34-5.85.33-.02.66-.04.99-.06.74.1,1.12-.23,1.16-.96.56-.02,1.13-.03,1.69-.05,4.67.15,9.17,1.17,13.6,2.62,8.27,2.7,16.23,6.09,23.84,10.29.44.24,1.02.35,1.19.95Z"/>
    <path class="cls-15" d="M49.44,258.71c2.03-1.58,1.04-3.74.74-5.53-.39-2.31-.39-3.57,2.43-2.73,1.07.32,1.52-.38,1.51-1.27-.01-1.81.82-1.54,1.99-1,.62.29,1.36.27,2.04.45,1.27.33,2.23,1.22,1.75,2.48-.68,1.77.35,2.57,1.27,3.51.71.06.06-2.34,1.49-.71.07,5.36-6.29,10.16-11.24,8.42-1.63-.57-2.24-1.9-1.98-3.61Z"/>
    <path class="cls-7" d="M325.76,262.99c1.87-6.06,3.81-12.09,5.57-18.18.65-2.26.89-4.64,1.31-6.97.12-.7.11-1.46,1.1-1.53-.85,8.2-2.74,16.21-4.72,24.19-2.49,10.05-5.58,19.89-10.12,29.23-.06-.96-.09-1.89.22-2.84.4-1.24.06-2.24-1.38-2.57.09-.34.16-.68.27-1.01,2.21-6.91,5.7-13.34,7.76-20.31Z"/>
    <path class="cls-2" d="M68.07,267.39c.32,1.79-1.49,2.61-1.85,4.09-2.79,1.96-5.58,3.87-9,4.66-4.23.98-11.22-2.21-13.22-6.17,4.37.99,8.72,1.97,13.25.69,2.51-.71,4.88-1.68,6.83-3.34,1.52-1.3,2.68-1.35,3.99.06Z"/>
    <path class="cls-15" d="M259.99,250.23c.64.19.97.15,1.35-.64,1.4-2.87,2.99-5.63,4.46-8.34.23.57.38,1.41.85,1.97.28.33.34-.34.46-.6,2.16,6.71-.64,14.84-6.27,17.62-.36-3.39.09-6.78-.85-10.01Z"/>
    <path class="cls-10" d="M86.19,358.49c-.63,1.34-.32,2.67.02,4-5.75-3.27-11.13-7.06-16.09-11.43.26-.19.56-.41.3-.75-.31-.4-.68-.24-1.01.02-.11-.01-.19-.06-.24-.16.45-.4.88-.71.33-1.43-.69-.91-.65-1.74.72-1.98,2.5.98,4.16,3.13,6.27,4.65,3.24,2.33,6.82,4.25,9.7,7.08Z"/>
    <path class="cls-5" d="M220.65,272.64c.39-2.06,2.56-1.89,3.81-2.87,3.24-2.57,6.77-4.77,9.78-7.66.36-.35.94-.48,1.42-.71,1.14,1.33.31,2.5-.36,3.61-1.6,2.64-3.3,5.21-4.89,7.85-.5.83-1.07,1.53-2.07,1.29-2.54-.61-5.25-.34-7.68-1.51Z"/>
    <path class="cls-11" d="M70.23,346.76c-1.37.25-1.41,1.08-.72,1.98.55.73.12,1.04-.33,1.43-2.41-1.56-4.47-3.53-6.47-5.56.71-.33,1.25-.82.76-1.62-1.35-2.2-2.64-4.44-4.9-5.89-.09-.46-.18-.93-.27-1.39.67-.21,1.18.06,1.64.54,3.43,3.5,6.86,7,10.29,10.5Z"/>
    <path class="cls-8" d="M58.56,337.11c2.26,1.44,3.55,3.69,4.9,5.89.49.8-.05,1.29-.76,1.62-1.74-1.45-3.43-2.95-4.81-4.77.98-.73.34-1.85.66-2.74Z"/>
    <path class="cls-7" d="M312.48,303.03c-.41-.26-.76-.73-.54-1.09,1.92-3.23,2.74-7.03,5.21-9.96.11-.14.5-.04.76-.05-1.35,3.92-3.39,7.52-5.43,11.1Z"/>
    <path class="cls-8" d="M62.29,219.2c.99-.87-.17-2.45,1.06-3.24-.04,2.97-.08,5.94-.11,8.91-.87-1.8-.8-3.75-.94-5.66Z"/>
    <path class="cls-11" d="M69.41,350.33c.33-.26.71-.42,1.01-.02.26.34-.05.56-.3.75-.24-.24-.47-.48-.71-.73Z"/>
    <path class="cls-7" d="M310.97,305.74c-.25-.18-.6-.34-.41-.73.22-.45.67-.32,1.05-.33-.21.36-.42.71-.64,1.07Z"/>
    <path class="cls-7" d="M318.41,290.83c-.1-.5-.05-.93.52-1.13-.04.44-.06.88-.52,1.13Z"/>
    <path class="cls-7" d="M317.88,291.9c-.09-.51-.05-.95.57-1.09-.03.45-.1.87-.57,1.09Z"/>
    <path class="cls-7" d="M333.78,235.24c-.53-.31-.6-.66-.08-1.05.03.35.06.7.08,1.05Z"/>
    <path class="cls-7" d="M309.82,307.82c-.09-.11-.18-.21-.27-.32.14,0,.28-.01.43-.02.03.15-.03.26-.16.34Z"/>
    <path class="cls-7" d="M309.89,307.41c.16-.21.32-.42.48-.63-.16.21-.32.42-.48.63Z"/>
    <path class="cls-7" d="M263.22,278.54c.75-.2,1.5-.4,2.25-.6.29.54.51,1.14.89,1.62,1.06,1.35.86,2.22-.84,2.7-1.45.41-1.99,1.09-.64,2.33.56.52.9,1.32.07,1.79-1.73.97-1.6,2.53-1.65,4.14-.05,1.47-.61,2.33-2.1,1.02-.63-.55-1.26-1.08-2.09-.45-.81.62-.48,1.39-.2,2.16.12.32.17.7.13,1.04-.09.97,1.25,2.43-.73,2.76-1.78.3-1.25-1.23-1.42-2.16-.27-1.46-1.22-2.06-2.65-2.01,2.9-4.83,6.35-9.32,8.96-14.32Z"/>
    <path class="cls-7" d="M58.59,305.66c-3.7-.08-6.74-3.46-6.52-7.28.1-1.72,2.51-3.89,4.2-3.78,2.89.2,6.48,4.08,6.37,6.9-.09,2.23-2.01,4.2-4.05,4.16Z"/>
    <path class="cls-10" d="M52.03,327.55c-4.26-4.72-7.48-10.18-10.92-15.47.56-.11,1.45.02.82-1.02-.72-1.19-1.37-2.41-1.63-3.81,1.9.69,2.5,2.64,3.57,4.02,1.76,2.28,3.88,4.25,5.5,6.63-.67,2.76,1.28,4.68,2.37,6.81.54,1.05.97,1.8.29,2.84Z"/>
    <path class="cls-11" d="M40.3,307.26c.26,1.39.91,2.61,1.63,3.81.63,1.04-.26.9-.82,1.02-2.43-2.81-3.96-6.19-5.75-9.39-1.58-2.83-3.18-5.67-4.18-8.78,1.89.8,2.72,2.72,3.71,4.18,1.74,2.57,3.71,5.07,4.87,8.02,0,.47.02.93.54,1.16h0Z"/>
    <path class="cls-10" d="M40.3,307.27c-.52-.23-.54-.69-.54-1.16.4.28.56.68.54,1.16Z"/>
    <path class="cls-2" d="M325.76,262.99c-2.06,6.97-5.55,13.4-7.76,20.31-.11.33-.18.68-.27,1.01-2.49,4.72-4.92,9.48-7.5,14.15-1.45,2.62-3.01,5.2-4.74,7.65-3.13,4.43-5.79,9.19-9.31,13.36-3.93,4.65-7.5,9.61-11.56,14.15-4.12,4.61-8.74,8.72-13.42,12.78-8.59,7.46-18.47,12.92-28.04,18.86-3.09,1.92-6.76,2.88-10.14,4.35-10.34,4.49-21.21,7.24-32.21,9.35-6.74,1.3-13.61,2.06-20.5,2.55-6.65.48-13.24-.49-19.87-.14-2,.1-4.04-.33-6.05-.63-.66-.1-1.68-.43-1.82-.88-.57-1.73-1.85-1.74-3.21-1.62-1.21.11-1.79-.43-2.05-1.55-.69-2.93,1.48-5.37,4.39-4.78,3.79.76,7.51,1.66,11.46,1.02,3.35-.55,6.71.31,10.05.54,7.33.51,14.36-1.44,21.52-2.3,7.2-.86,14.13-2.78,20.83-5.35,3.17-1.21,6.39-2.39,9.5-3.84,5.65-2.63,11.21-5.38,16.38-8.84,5.42-3.64,10.69-7.49,15.73-11.66,5.07-4.2,9.79-8.82,14.18-13.64,5.21-5.73,10.4-11.57,14.76-18.04,2.81-4.17,6.02-8.07,8.2-12.65,1.56-2.41,3.59-4.56,4.25-7.48,1.93-.77,1.79-2.84,2.68-4.26,4.02-6.25,6.75-13.12,9.57-19.94,1.81-4.38,3.57-8.78,5.35-13.17.28-.13.75-.22.8-.4.14-.57-.39-.58-.78-.68.35-.71.7-1.41,1.05-2.12.73,1.93,1.99,3.72,2,5.84,0,1.26-1.55.86-2.29,1.53.83,1.73,2.64,1.01,3.91,1.54,1.77.74,3.8.68,2.54,3.78-.74,1.82,1.51.82,2.37,1.19Z"/>
    <path class="cls-7" d="M316.16,252.3c-1.78,4.39-3.54,8.79-5.35,13.17-2.82,6.83-5.55,13.69-9.57,19.94-3.58-2.04-4.98-5.21-4.84-9.22.07-2.04.02-4.08,0-6.12,0-.74-.16-1.52-1.09-1.52-.76,0-1,.68-1,1.33-.01,2.29-1.41,2.69-3.35,2.75-1.62.05-3.38-.65-4.86.62-.13.11-.66.05-.69-.04-.93-2.39-4.26-2.26-5.03-4.79-.33-1.1-1.18-1.19-2.11-1.18,2.47-6.84,2.88-13.76,1.15-20.86-.45-1.86-1.97-3.13-2.2-5.01,2.88-1.08,5.8-2.06,8.85-2.57.9.32,2.08,1.63,2.24-.64,3.39-.83,6.78-1.67,10.17-2.49,1.53-.37,2.99-.91,4.29-1.82.07.42.03.94.52,1.09.51.16.89-.21.96-.64.13-.76.11-1.55.16-2.33.35-.53.69-1.06,1.04-1.58,1.49-.33,2.9.83,4.38.24,4.15-1.65,7.96-.51,11.68,1.38-.37.67-.61,1.37-.54,2.15-1.15.2-1.38.71-.52,1.58.08.78-.16,1.47-.53,2.14-.67.11-1.34.21-.53,1.06.15,3.56-1.6,6.72-2.14,10.13-.35.71-.7,1.41-1.05,2.12,0,.36-.01.72-.02,1.08ZM308.49,233.09c-.6.16-1.65-.32-1.64.72,0,.82.93.9,1.66.88.71-.03,1.58-.09,1.5-1.01-.07-.86-.97-.44-1.51-.58Z"/>
    <path class="cls-7" d="M281.77,276.85c-.26,3.13-1.49,4.45-3.47,4.26-1.76-.17-3.37-2.47-3.22-4.53.08-1.12.52-2.17,1.72-1.67,1.69.71,4.45-.53,4.97,1.94Z"/>
    <path class="cls-7" d="M298.56,289.67c-.66,2.92-2.69,5.07-4.25,7.48-2.01-1.06-1.46-3.15-.44-3.78,1.43-.88,1.97-2,2.64-3.28.44-.86,1.15-1.39,2.05-.42Z"/>
    <path class="cls-7" d="M138.16,378.78c-1.35.68-2.61.73-3.91-.59,1.59-.94,2.75-.1,3.91.59Z"/>
    <path class="cls-7" d="M285.66,274.81c-.37,1.41-.94,2.04-2.41,1.9.38-1.23,1.18-1.56,2.41-1.9Z"/>
    <path class="cls-7" d="M272.93,274.18c.36-.35.71-.71,1.07-1.06.81.69.64,1.39-.16,1.84-.71.4-.8-.28-.9-.78Z"/>
    <path class="cls-7" d="M270.02,278.51c.25.23.57.43.55.51-.11.29-.27.63-.52.78-.32.18-.73.07-.63-.42.06-.29.36-.53.61-.87Z"/>
    <path class="cls-14" d="M80.23,170.48c.17-2.15,2.03-3.08,3.21-4.5,1.67-2.12,4.23-1.75,6.46-2.22,1.18-.25,2.46-.06,3.69-.07,3.14.49,6.24,1.24,9.45,1.11,1.61-.07,4.6-2.52,4.78-4.03.12-1.01-.79-.68-1.32-.8,6.6-7.88,13.22-15.7,22.29-20.99,7.47-4.36,15.19-6.53,23.86-4.28,4.82,1.25,9.19.51,13.33-2.89,4.2-3.45,8.71-6.7,14.03-8.35,4.44-1.38,8.68-1.98,13.24.52,5.05,2.77,9.77,6,14.59,9.09,4.07,2.61,5.65,2.28,9.41-.88,3.08-2.59,5.87-5.57,9.83-7.11,2.58-1,4.93-.72,7.1.34,10.53,5.15,19.65,12.14,27.33,21.05,7.86,9.11,13.07,19.49,15.41,31.25,1.37,6.83,1.14,13.81.63,20.7-.39,5.28-1.63,10.48-3.56,15.45-.82,0-1.7,0-1.98-.96-.3-1.04.67-.94,1.23-1.29,1.54-.97,1.28-3.08-.4-3.94-2.8-1.42-2.83-1.43-3.11,1.62-.09.97-.36,1.9-1.3,2.1-1.2.26-.69-.92-.9-1.47-.56-1.45-1.82-.67-2.76-.87-.59-.13-1.37.02-1.27-.92.08-.7.74-.64,1.25-.68,1.37-.08,3.6.31,3.46-1.4-.13-1.57-2.37-.46-3.65-.74-3-.64-6.05,1.2-9.11-.35-1.47-.74-.98,1.58-2.09,1.93,0-1.72-.18-3.45.03-5.12.61-4.84.18-9.43-2.15-13.85-.91-1.73-1.56-3.54-2.86-5.08-.68-.8-1.3-1.12-2.27-.9l.02-.06c.37-1.89-1.04-2.95-2.27-3.54-3.62-1.71-6.9-4.28-11.15-4.48-3.85-.18-7.73-.95-11.47.56-1.06.43-2.55.49-2.72,2.13v-.02c-.86.07-2.02-.47-2.13,1.08h0c-3.3.1-6.51,2.95-7.32,6.48l-.05.05c-2.7,1.17-3.94,3.56-3.82,7.34l.03.03c-2.07,3.26-2.21,6.92-1.92,10.57.22,2.69.85,5.35,1.3,8.02h0c-.58-.02-.89-.53-1.34-.75-1.22-.6-2.32-.43-3.34.63-1.23,1.28.74,1.5.68,2.44-1.59,1.01-1.78-1.2-2.98-1.31-2.08-.2-4.09-.78-5.64-2.45-.74-.8-1.71-.74-2.4.41-.5.82-1.19,1.53-1.79,2.28-2.42-2.31-4.75-4.73-7.28-6.91-12.46-10.76-26.97-14.82-43.19-12.76-6.87.87-13.09,3.68-18.93,7.32-1.76.08-4.16-.64-3.32,2.67h-.02c-.78-.09-1.13.27-1.1,1.04l.02.02c-3.48-.14-2.42-3.25-3.19-5.08-.41-.98-.05-2.26-.09-3.4-.04-1,.35-2.46-1.08-2.6-1.82-.17-.51,1.7-1.37,2.41-.31-2.09-.9-4.09-2.94-5.2,0,0,.02-.03.02-.03.68-3.29-1.37-4.92-3.85-6.28h0c-.2-1.86-1.37-3.35-2.87-3.83-4.48-1.43-9.11-2.22-13.82-.93-.69.19-1.29.6-1.29,1.46-.07.1-.15.11-.25.05-1.34.36-3.32-.25-3.32,2.16l.03.12c-1.15-.42-1.27-1.24-1.68-2.39-1.25-3.53,2.45-5.62,1.94-8.73ZM131.76,150.86c-3.8.08-6.47,1.44-8.5,4.05-.87,1.13-1.19,2.48-.52,3.74.65,1.22,1.82,1.9,3.29,1.91,3.18.03,5.9-1.04,8.13-3.32,1.25-1.28,1.53-2.84.85-4.41-.67-1.56-2.05-2.13-3.25-1.97Z"/>
    <path class="cls-15" d="M106.51,159.98c.53.12,1.44-.22,1.32.8-.18,1.51-3.17,3.96-4.78,4.03-3.21.13-6.31-.62-9.45-1.11.06-1.97,1.03-2.85,3.04-2.61,1.91.23,3.83.32,5.73.54,1.69.19,3.09-.25,4.14-1.64Z"/>
    <path class="cls-8" d="M174.76,13.78c5.45,1.93,10.98,3.68,16.34,5.85,7.07,2.86,13.78,6.52,20.48,10.17,8.04,5.61,16.28,10.95,23.7,17.41.41.36.85.63.89,1.23-1.63.57-2.82.19-4.26-.98-1.85-1.5-3.19-3.62-5.47-4.58-1.03-.43-2.08-.47-2.96.41-.38.38-.81.84-.52,1.39.54,1.04,1.58.45,2.39.6.49.09,1.13-.17,1.39.47.21.52-.29.74-.59,1.05-2.11,2.19-1.21,5.61,1.67,6.65,1.14.41,2.28.44,3.41.34,1.5-.13,1.94.9,1.99,1.93.05.96,0,2.26-1.51,2.34-1.95.1-2.61,1.22-2.52,3,.09,1.67-.7,2.41-2.32,2.99-1.95.69-3.07,2.91-5.43,3.22-.75.1-.81,1.26-.8,2.09.02.77-.16,1.29-1.09,1.51-2.92.7-6,1.09-7.98,3.83-.24.33-1,.49-1.46.41-3.2-.55-6.17.46-8.89,1.77-1.93.93-3.5,2.62-5.61,3.4-.32.12-.53.92-.54,1.4-.02,1.5-.8,1.94-2.18,2.05-1.3.1-2.49.48-1.77,2.36.67,1.76,3.39,2.71,2.12,5.25.32.13.63.29.96.38,3.02.89,4.11,3.56,5.53,5.94-3.69-1.32-6.19-4.45-9.56-6.27-1.14-.61-2.13-1.52-3.18-2.29.31-.79.63-1.58,1.12-2.82-1.28.7-2.74-1.59-3.34.95-1.08-.29-1.93-.92-2.63-1.78.02-1.13.23-2.52-1.56-1.13q-5.79-3.17-9.85,1.95c-4.38,5.57-8.74,11.16-13.1,16.75-2.69,3.46-4.24,4.02-8.48,2.87-8.92-2.42-17.49-5.86-26.21-8.88-3.66-1.27-3.97-1.31-6.03,1.98-6.22,9.92-12.42,19.86-18.57,29.82-3.21,5.21-4.56,5.97-10.45,4.91-6.63-1.19-13.25-2.44-19.83-3.89-2.26-.5-3.77.19-5.22,1.68-4.64,4.77-9.29,9.53-13.94,14.28-.61.62-1.13,1.4-2.12,1.52.52-4.77,2.04-9.3,3.51-13.82,3.22-9.94,6.95-19.69,11.85-28.92,5.86-11.06,12.14-21.86,19.72-31.89,6.13-8.11,12.41-16.08,19.65-23.21,5.03-4.95,10.15-9.83,15.75-14.14,7.84-6.04,16.23-11.24,25.27-15.3,10.23-4.6,20.94-6.93,32.21-6.27ZM95.2,71.47c0,1.08.22,3.99,2.29,5.71,1.78,1.49,4.05,1.31,5.78,1.18,3.03-.24,5.2-1.54,7.43-2.88,2.47-1.48,4.04-2.98,4.45-3.39,1.67-1.62,2.57-2.99,4.3-5.62,1.68-2.55,2.52-3.83,2.95-5.3.19-.64.34-2.36.63-5.81.07-.84.14-1.71-.2-2.75-.15-.48-.55-1.67-1.67-2.43-.32-.22-.69-.35-1.43-.6-.95-.33-1.66-.58-2.62-.66-1.31-.11-2.33.16-2.83.3-.64.18-1.28.44-2.63,1.21-.77.45-1.75,1.05-3.84,2.53-1.8,1.28-2.73,1.94-3.77,2.85-.98.86-1.73,1.62-2.16,2.07-.8.82-1.87,1.93-3.05,3.52-1.04,1.41-1.57,2.39-1.84,2.91-.23.46-.39.82-.46.98-.81,1.87-1.34,3.35-1.34,6.17ZM86.95,95.43c-5.55.09-14.17,4.79-15.61,12.95-.29,1.65-.52,3.33-.56,5-.04,1.79.07,3.21.92,4.73.27.47.89,1.59,2.1,2.3,2.04,1.19,4.47.48,5.63.07,7.04-2.52,13.2-8.68,13.58-17.07.2-4.4-1.92-8.54-6.05-7.97ZM136.09,54.9c1.69.02,4.02-2,3.93-3.72-.1-1.75-1.43-2.42-2.88-2.59-1.6-.19-3.51,1.95-3.48,3.67.03,1.45.37,2.67,2.43,2.64Z"/>
    <path class="cls-12" d="M199.72,97.67c-1.42-2.38-2.51-5.05-5.53-5.94-.33-.1-.64-.25-.96-.38,1.28-2.54-1.44-3.48-2.12-5.25-.72-1.88.47-2.25,1.77-2.36,1.38-.11,2.16-.54,2.18-2.05,0-.49.22-1.29.54-1.4,2.11-.78,3.68-2.47,5.61-3.4,2.72-1.31,5.69-2.32,8.89-1.77.46.08,1.22-.08,1.46-.41,1.98-2.74,5.07-3.13,7.98-3.83.93-.22,1.11-.75,1.09-1.51-.02-.83.05-1.99.8-2.09,2.35-.31,3.48-2.53,5.43-3.22,1.62-.58,2.41-1.32,2.32-2.99-.09-1.78.58-2.9,2.52-3,1.51-.08,1.56-1.38,1.51-2.34-.06-1.03-.49-2.06-1.99-1.93-1.13.09-2.27.07-3.41-.34-2.88-1.04-3.78-4.47-1.67-6.65.3-.31.8-.52.59-1.05-.26-.64-.9-.38-1.39-.47-.82-.15-1.85.44-2.39-.6-.29-.55.14-1.01.52-1.39.88-.88,1.93-.85,2.96-.41,2.27.96,3.62,3.08,5.47,4.58,1.44,1.17,2.63,1.55,4.26.98,0,0-.03.01-.03.01.2.46.6.55,1.04.56.59,1.19,2.2,1.28,2.73,2.53-.05,1.11.46,1.7,1.59,1.71,0,0-.02,0-.02,0,.18.18.36.36.54.54,0,0,0,0,0,0,.18.18.36.36.54.54,0,0,0-.01,0-.01.02,1.19.87,1.1,1.67,1.07.16.15.31.3.47.45.27,2.06.07,4.37,1,6.07.45.82,2.77-.95,4.39-.65,1.04.9,2.08,1.79,3.12,2.69.22.43.59.57,1.04.57,0,0-.03,0-.03,0,.79,3.1,3.55,4.73,5.4,7,6.02,7.41,11.4,15.25,16.48,23.31.31.5.39,1.15.57,1.72-7.35-2.2-14.65-4.57-22.03-6.7-4.12-1.18-7.08-4.56-10.51-7.02-1.35-.97-2.53-2.19-3.79-3.29-.48-.87,1.84-1.38.31-2.39-.83-.54-.8-.98-.48-2.05.71-2.39-1.86-4.43-4.29-3.7-.67.2-1.34.42-2.03.52-.93.13-2.04-.17-2.41,1.08-.37,1.27,1.43.86,1.48,1.84-1.5.11-2.56.93-3.6,1.96-6.28,6.2-12.6,12.37-18.95,18.5-1.26,1.22-2.71,2.24-4.07,3.35-2.25.11-4.44-.16-6.53-1.03l-.05.04Z"/>
    <path class="cls-8" d="M232.92,74.85c-.04-.98-1.85-.58-1.48-1.84.37-1.26,1.48-.96,2.41-1.08.69-.1,1.36-.32,2.03-.52,2.43-.73,5,1.31,4.29,3.7-.32,1.07-.35,1.51.48,2.05,1.54,1.01-.79,1.52-.31,2.39-2.37-1.73-4.51-3.83-7.42-4.7Z"/>
    <path class="cls-8" d="M199.77,97.63c2.09.87,4.28,1.14,6.53,1.03-1.12,3.11-3.92,2.56-6.53-1.03Z"/>
    <path class="cls-12" d="M184.77,87.24c.6-2.54,2.06-.25,3.34-.95-.49,1.24-.81,2.03-1.12,2.82-.71-.65-1.74-.95-2.22-1.88Z"/>
    <path class="cls-12" d="M180.58,84.34c1.8-1.39,1.59,0,1.56,1.13-.65-.19-1.22-.5-1.56-1.13Z"/>
    <path class="cls-9" d="M118.42,199.04c5.85-3.64,12.07-6.45,18.93-7.32,16.22-2.05,30.73,2,43.19,12.76,2.53,2.19,4.86,4.6,7.28,6.91,0,0,.17-.11.17-.11-.18.58.15.91.58,1.2,1.42,2.54,3.31,4.76,4.7,7.34,2.54,4.69,3.18,9.68,2.91,14.88-1.5,2.37-1.8,5.27-3.56,7.56-5.49,7.14-12.62,12.05-20.71,15.78-11.66,5.36-23.95,7.8-36.68,8.79-13.76,1.07-27.25-.28-40.47-3.93-9.01-2.48-16.98-6.82-21.09-15.99-.53-1.19-.87-2.47-1.3-3.71-.2-11.36,4.51-18.36,15.8-23.32,3.57-1.57,7.2-2.99,10.84-4.37,5.26-1.99,8.82-6.01,12.34-10.09h0c1.03-.75,1.93-1.63,2.65-2.68,0,0-.02-.02-.02-.02.37-.34.74-.69,1.1-1.03,0,0,.02,0,.02,0,1.11-.89,2.21-1.78,3.32-2.67ZM143.22,196.92c-11.36-.18-20.85,4.06-28.1,12.71-4.84,5.78-10.7,9.72-17.7,12.24-3,1.07-5.97,2.28-8.8,3.73-4.32,2.21-8.2,4.97-9.41,10.14-.61.4-.48,1.06-.54,1.64l.04-.02c-.35.08-.48.29-.39.64-.87,6.37,1.86,10.99,7.02,14.42,5.22,3.47,11.19,4.98,17.18,6.19,17.81,3.61,35.63,3.7,53.24-1.18,9.99-2.77,19.38-6.9,27.43-13.68,7.08-5.96,9.14-13.63,5.2-20.8-4.66-8.5-11.93-14.45-19.93-19.6-5.75-3.63-12.08-5.45-18.81-5.98-2.11-.58-4.27-.57-6.43-.43Z"/>
    <path class="cls-9" d="M246.15,182c1.96,2.94,4.16,5.71,5.31,9.16,3.11,9.27.44,19.59-6.94,26.24-6.98,6.29-17.47,7.89-26.13,3.73-10.28-4.94-15.5-15.6-13.54-26.95.15-.87.27-1.75.41-2.62,0,0-.03-.03-.03-.03,1.27-2.45,2.55-4.89,3.82-7.34,0,0,.05-.05.04-.05,2.44-2.16,4.88-4.33,7.32-6.49,0,0,0,0,0,0,.81-.17,1.55-.46,2.14-1.08,0,0,0,.02,0,.02,5.28-1.88,10.66-2.48,16.16-1.12,4.41,1.09,7.98,3.69,11.45,6.46l-.02.06ZM230.78,192.91c.04-5.27-2.51-7.86-7.77-7.88-4.87-.02-8.48,3.78-8.48,8.93,0,3.9,3.49,7.15,7.69,7.16,4.89,0,8.53-3.48,8.56-8.2Z"/>
    <path class="cls-14" d="M204.64,210.15c1.93.26,2.28,2.03,3.12,3.32.27.42.16,1.22.49,1.45,1.91,1.33.81,2.01-.47,2.75-1.49.85-4.34.55-4.89-.6-.47-.99.31-1.02.94-1.03.91-.02,1.79-.05,2.4-.86.46-.61.85-1.62-.13-1.66-3.12-.11-1.27-2.14-1.47-3.36,0,0,0,0,0,0Z"/>
    <path class="cls-14" d="M258.02,209.93c-.47-.09-.5-.42-.46-.76.05-.46.32-.8.75-.92.41-.11.67.21.55.57-.15.44-.23,1.01-.84,1.11Z"/>
    <path class="cls-14" d="M188.57,212.48c-.43-.29-.76-.62-.58-1.2.61.2.62.69.58,1.2Z"/>
    <path class="cls-6" d="M192.36,253.38c.21-1.23.76-2.29,1.59-3.21.54,1.97.04,2.98-1.59,3.21Z"/>
    <path class="cls-6" d="M194.44,249.1c.11-.57-.03-1.22.56-1.62.92.92.65,1.43-.56,1.62Z"/>
    <path class="cls-15" d="M66.41,235.86c-.37-2.88-.66-5.77-1.16-8.63-.17-.95-.41-1.85.46-2.36.77-.45,1.21.49,1.69.94.69.66,1.44,1.12,2.37.73.97-.41,1.43-1.2,1.49-2.3.04-.78-.52-2.01.76-2.2,1.08-.16,1.73.87,2.18,1.68.43.77,1.55,1.35.95,2.55-.59,1.21-1.49.99-2.47.65-.61-.21-1.05.09-1.27.63-.41,1.03-.14,2.2.72,2.58,1.4.62,1.02,1.46.63,2.31-1.67,3.67-1.93,7.45-1.03,11.35-2.96-1.86-3.66-5.23-5.34-7.95Z"/>
    <path class="cls-9" d="M83.27,179.32c.1.07.18.05.25-.05,4.49-1.6,8.94-1.86,13.28.48,1.61.87,3.14,1.87,4.71,2.8,0,0,0,.01,0,.01,1.28,2.09,2.57,4.19,3.85,6.28,0,0-.02.03-.02.03,2.14,7.09,1.25,13.64-3.49,19.51-3.98,4.93-11,7.16-16.98,5.37-5.77-1.72-10.43-7.73-11.06-14.02-.71-7.02.96-13.17,6.19-18.14,0,0-.03-.12-.03-.12,1.34-.37,2.43-1.11,3.32-2.16ZM88.21,196.94c3.48,0,6.4-2.82,6.39-6.15-.02-3.35-2.6-5.9-5.95-5.86-3.34.04-6.2,2.99-6.2,6.38,0,3.23,2.45,5.63,5.76,5.63Z"/>
    <path class="cls-14" d="M111.34,205.44c-.41-.28-1.45.36-1.23-.82.04-.22.31-.58.47-.57.99.02.54.9.76,1.39,0,0,0,0,0,0Z"/>
    <path class="cls-8" d="M63.63,214.42c-.44-.38-.36-.73.07-1.06-.02.35-.05.71-.07,1.06Z"/>
    <path class="cls-14" d="M75.18,180.66c.07.02.19.05.19.07,0,.08-.04.15-.07.23-.07-.02-.19-.05-.19-.07,0-.08.04-.15.07-.23Z"/>
    <path class="cls-10" d="M321.5,232.03c-3.72-1.89-7.53-3.03-11.68-1.38-1.48.59-2.9-.58-4.38-.24,6.47-11.41,12.37-23.19,21.33-32.99.29-.32.67-.56,1-.84-.33,4.12-.15,8.37-1.11,12.34-1.64,6.78-1.89,13.82-4.1,20.47-.3.91-.34,1.92-1.07,2.66Z"/>
    <path class="cls-10" d="M320.43,235.77c-.86-.87-.62-1.38.52-1.58-.01.58.1,1.2-.52,1.58Z"/>
    <path class="cls-10" d="M319.36,238.97c-.81-.85-.14-.96.53-1.06-.02.44-.11.84-.53,1.06Z"/>
    <path class="cls-8" d="M176.9,12.76c-.04.74-.42,1.06-1.16.96.12-.65.45-1.02,1.16-.96Z"/>
    <path class="cls-10" d="M304.4,231.99c-.04.78-.03,1.57-.16,2.33-.07.43-.46.8-.96.64-.49-.16-.45-.67-.52-1.09.55-.63,1.09-1.25,1.64-1.87Z"/>
    <path class="cls-10" d="M288.3,238.17c-.16,2.27-1.34.95-2.24.64.65-.57,1.48-.47,2.24-.64Z"/>
    <path class="cls-8" d="M250.08,61.26c-1.62-.3-3.94,1.48-4.39.65-.93-1.7-.74-4.01-1-6.07,2.15,1.46,3.64,3.57,5.39,5.42Z"/>
    <path class="cls-8" d="M241.49,53.25c-1.13-.01-1.64-.61-1.59-1.71.86.26,1.56.68,1.59,1.71Z"/>
    <path class="cls-8" d="M244.22,55.39c-.8.03-1.65.12-1.67-1.07.81-.04,1.28.45,1.67,1.07Z"/>
    <path class="cls-7" d="M254.24,64.52c-.45,0-.83-.14-1.04-.57.89-.79.97-.12,1.04.57Z"/>
    <path class="cls-8" d="M237.17,49c-.44,0-.84-.1-1.04-.56.45,0,.83.11,1.04.56Z"/>
    <path class="cls-8" d="M242.02,53.79c-.18-.18-.36-.36-.54-.54.18.18.36.36.54.54Z"/>
    <path class="cls-8" d="M242.55,54.33c-.18-.18-.36-.36-.54-.54.18.18.36.36.54.54Z"/>
    <path class="cls-3" d="M316.16,252.3c0-.36.01-.72.02-1.08.38.1.91.11.78.68-.04.19-.52.27-.8.4Z"/>
    <path class="cls-10" d="M308.49,233.09c.54.14,1.44-.27,1.51.58.08.93-.79.98-1.5,1.01-.72.03-1.65-.06-1.66-.88-.01-1.04,1.04-.56,1.64-.72Z"/>
    <path class="cls-8" d="M131.76,150.86c1.2-.16,2.58.41,3.25,1.97.67,1.57.4,3.13-.85,4.41-2.23,2.28-4.95,3.35-8.13,3.32-1.47-.01-2.64-.69-3.29-1.91-.67-1.26-.35-2.62.52-3.74,2.02-2.61,4.69-3.97,8.5-4.05Z"/>
    <path class="cls-6" d="M246.17,181.94c-3.47-2.77-7.04-5.37-11.45-6.46-5.5-1.36-10.88-.76-16.16,1.12.17-1.64,1.66-1.7,2.72-2.13,3.74-1.51,7.62-.74,11.47-.56,4.25.2,7.53,2.78,11.15,4.48,1.24.58,2.64,1.64,2.27,3.54Z"/>
    <path class="cls-6" d="M101.5,182.56c-1.57-.94-3.1-1.94-4.71-2.8-4.33-2.34-8.79-2.08-13.28-.48,0-.86.6-1.27,1.29-1.46,4.71-1.29,9.34-.5,13.82.93,1.5.48,2.67,1.97,2.87,3.81Z"/>
    <path class="cls-6" d="M216.42,177.66c-2.44,2.16-4.88,4.33-7.32,6.49.81-3.53,4.02-6.38,7.32-6.49Z"/>
    <path class="cls-6" d="M209.05,184.2c-1.28,2.45-2.55,4.89-3.82,7.34-.12-3.78,1.13-6.17,3.82-7.34Z"/>
    <path class="cls-6" d="M105.35,188.85c-1.28-2.09-2.56-4.19-3.85-6.28,2.48,1.36,4.52,2.99,3.85,6.28Z"/>
    <path class="cls-6" d="M118.42,199.04c-1.11.89-2.22,1.78-3.32,2.67-.83-3.31,1.56-2.59,3.32-2.67Z"/>
    <path class="cls-6" d="M83.27,179.32c-.89,1.06-1.98,1.8-3.32,2.16,0-2.41,1.98-1.8,3.32-2.16Z"/>
    <path class="cls-6" d="M218.56,176.59c-.58.62-1.33.91-2.14,1.08.11-1.55,1.28-1.01,2.14-1.08Z"/>
    <path class="cls-6" d="M115.08,201.71c-.37.34-.74.69-1.1,1.03-.03-.77.32-1.13,1.1-1.03Z"/>
    <path class="cls-1" d="M149.65,197.34c6.73.53,13.06,2.35,18.81,5.98-.28,1.18.51,1.72,1.27,2.39,1.97,1.76,4.12,3.42,5.74,5.47,3.96,5.03,6.3,10.65,3.48,17.01-1.78,4.01-4.9,7.1-8.42,9.73-12.1,9.03-26.12,12.34-40.8,13.23-7.68.47-15.4.16-23.08-.93-9.91-1.41-19.28-3.75-25.86-12.13-.6-.77-1.14-1.26-2.11-.73.06-.59-.07-1.24.54-1.64.98.27,1.83.41,2.36-.85.67-1.59,2.04-2.58,3.34-3.7,3.89-3.32,8.69-4.74,13.25-6.63,6.25-2.59,12.53-5.09,16.83-10.71.75.06,1.09-.29,1.02-1.04.36-.37.72-.74,1.07-1.12.51-.11.63-.49.65-.94h0c.45-.03.83-.15.89-.68.23-.32.45-.63.68-.95.71,0,1.07-.35,1.06-1.07.16-.06.31-.12.46-.19.32.05.47-.11.49-.42.21-.16.42-.33.63-.49.16-.19.32-.37.48-.56,0,0,.02-.04.02-.04,1.05.22,2.02-.14,2.7-.82,1.3-1.31,2.87-1.86,4.58-2.44,1.72-.59,3.3-1.48,5.2-1.67,1.21-.12,2.29-.95,2.6-2.35.51-.04,1.01-.08,1.52-.12,3.57-.38,7.26.08,10.64-1.6ZM99.78,240.57c2.83.02,4.72-.33,5.88-1,2.26-1.3,2.38-4.01.03-5.05-2.95-1.31-6.01-1.23-8.93.42-1.26.71-1.78,1.74-1.46,3.1.31,1.31,1.21,2.17,2.54,2.42.78.15,1.59.1,1.94.12ZM151.87,216.6c.03-2-1.39-3.5-3.43-3.6-2.38-.11-4.63,2.23-4.59,4.82.03,2.01.87,3.42,3.05,3.56,2.54.16,4.93-2.18,4.97-4.78ZM130.21,219.3c2.6.08,4.44-1.77,4.53-4.41.08-2.24-1.12-3.3-3.15-3.44-2.2-.14-4.28,1.91-4.39,4.12-.12,2.31.98,3.66,3.02,3.73Z"/>
    <path class="cls-4" d="M78.67,237.36c.98-.54,1.51-.04,2.11.73,6.58,8.38,15.95,10.73,25.86,12.13,7.68,1.09,15.39,1.39,23.08.93,14.69-.89,28.7-4.2,40.8-13.23,3.53-2.63,6.65-5.72,8.42-9.73,2.82-6.36.47-11.98-3.48-17.01-1.62-2.06-3.76-3.71-5.74-5.47-.76-.68-1.55-1.22-1.27-2.39,8,5.15,15.27,11.11,19.93,19.6,3.94,7.18,1.88,14.84-5.2,20.8-8.05,6.78-17.44,10.92-27.43,13.68-17.62,4.88-35.43,4.79-53.24,1.18-5.99-1.21-11.96-2.72-17.18-6.19-5.16-3.43-7.89-8.05-7.02-14.42.13-.22.26-.43.39-.64l-.04.02Z"/>
    <path class="cls-8" d="M139.01,198.94c1.03-1.45,3.11-.71,4.21-2.02,2.16-.14,4.32-.16,6.43.43-3.37,1.68-7.07,1.21-10.64,1.6Z"/>
    <path class="cls-1" d="M78.7,237.34c-.13.21-.26.43-.39.64-.1-.35.04-.56.39-.64Z"/>
    <path class="cls-9" d="M151.87,216.6c-.04,2.6-2.43,4.94-4.97,4.78-2.18-.14-3.02-1.55-3.05-3.56-.04-2.59,2.21-4.93,4.59-4.82,2.04.1,3.46,1.59,3.43,3.6Z"/>
    <path class="cls-9" d="M130.21,219.3c-2.04-.06-3.14-1.42-3.02-3.73.12-2.21,2.2-4.26,4.39-4.12,2.04.13,3.23,1.2,3.15,3.44-.09,2.64-1.93,4.48-4.53,4.41Z"/>
    <path class="cls-8" d="M122.41,206.34c2.51-3.02,6.05-4.42,9.55-5.72,1.77-.65,3.45-1.88,5.53-1.56-.31,1.4-1.39,2.23-2.6,2.35-1.91.19-3.48,1.08-5.2,1.67-1.71.58-3.28,1.13-4.58,2.44-.68.68-1.65,1.04-2.7.82Z"/>
    <path class="cls-8" d="M114.98,213.84c.02-.66.37-1,1.02-1.04.07.75-.27,1.09-1.02,1.04Z"/>
    <path class="cls-8" d="M119.28,209.11c.15-.55.51-.91,1.06-1.07,0,.71-.35,1.06-1.06,1.07Z"/>
    <path class="cls-8" d="M117.72,210.74c.1-.48.47-.61.89-.68-.06.54-.44.66-.89.68Z"/>
    <path class="cls-8" d="M117.07,211.68c.03-.44.15-.82.64-.94-.01.45-.14.83-.64.94Z"/>
    <path class="cls-8" d="M120.8,207.85c.16-.14.33-.28.49-.42-.03.3-.17.46-.49.42Z"/>
    <path class="cls-8" d="M121.92,206.94c.16-.19.32-.37.48-.56-.16.19-.32.37-.48.56Z"/>
  </g>
  <path class="cls-13" d="M97.64,63.17c.61-1.12,1.8-3.13,3.7-5.35.68-.8,1.99-2.26,3.89-3.84,1.44-1.2,3.18-2.64,5.82-3.84,1.44-.66,2.67-1.22,4.45-1.42,1.34-.14,4.38-.47,6.37,1.47,1.15,1.12,1.45,2.5,1.67,3.54.33,1.52.42,3.64-.76,6.98-.71,2.01-2.13,5.18-5.51,9-3.25,3.67-6.7,7.58-12.24,8.6-1.77.33-5.92,1.09-8.29-1.31-2.94-2.97-1.23-8.81-.93-9.82.42-1.44,1.04-2.54,1.84-4Z"/>
  <path class="cls-13" d="M86.95,95.43c.86-.05,2.26.02,3.51.88,1.86,1.28,2.22,3.51,2.45,4.92.25,1.51.09,2.7-.05,3.78-.08.6-.32,2.18-1.09,4.1-.18.44-.66,1.59-1.51,2.93-2.3,3.63-5.31,5.58-6.59,6.39-1.6,1.01-2.95,1.59-3.98,1.94-.26.09-1.39.47-2.92.67-1.51.19-2.04.03-2.23-.04-.82-.29-1.3-.86-1.82-1.47-.68-.8-1.02-1.56-1.25-2.11,0,0-.38-.87-.6-1.83-.33-1.47-.75-5.93,1.63-10.78.46-.94,1.27-2.56,2.89-4.24.31-.32,1.73-1.77,4.1-3.03,2.85-1.52,5.58-1.98,7.46-2.1Z"/>
  <path class="cls-13" d="M135.27,49.33c.51-.37.88-.65,1.47-.76.95-.18,1.71.21,1.91.32.22.12.84.46,1.22,1.2.1.2.47.93.25,1.77-.1.39-.29.67-.46.91-.29.43-.59.68-.89.92-.29.24-.7.58-1.33.85-.3.13-.75.32-1.36.36-.46.03-1.15.08-1.76-.33-1.09-.73-.98-2.28-.98-2.35.06-.73.41-1.24.71-1.67.44-.64.93-1.01,1.21-1.21Z"/>
  <path class="cls-13" d="M42.38,151.08c-.6-1.53,2.95-49.01,50.51-99.67,0,0,17.15-18.27,39.1-30.21,8.32-4.53,16.32-7.01,18.01-7.53,2.34-.71,5.65-1.31,12.28-2.52,5.39-.98,9.04-1.48,11.94.61.25.18,1.76,1.27,1.52,1.97-.43,1.27-5.91-.9-13.26.66-1.05.22-2.68.69-5.93,1.62-1.77.51-3.73,1.07-5.87,1.75-2.04.66-5.26,1.76-9.1,3.37-4.96,2.08-8.79,4.1-11,5.32-2.63,1.45-4.39,2.58-4.82,2.85-2.13,1.36-3.72,2.52-5.26,3.64-.61.44-2.1,1.54-4.02,3.03-1.52,1.18-3.61,2.82-5.99,4.92-1.22,1.07-2.43,2.24-4.86,4.59-5.42,5.23-7.79,7.78-8.58,8.64-1.07,1.17-2.14,2.37-2.14,2.37-.32.36-1.51,1.7-3.04,3.53-.77.91-1.34,1.61-1.68,2.03-1.06,1.29-1.85,2.29-2.33,2.89-2.77,3.49-4.16,5.24-5.23,6.63-1.27,1.65-2.52,3.29-4.11,5.53-2.44,3.42-4.25,6.26-5.26,7.89-1.21,1.94-2.23,3.71-4.26,7.25-1.26,2.19-2.17,3.81-3.99,7.06-3.92,6.98-4.41,7.99-4.9,9.03-.41.87-1.1,2.54-2.5,5.87-1.22,2.91-1.82,4.36-2.63,6.41-1.16,2.95-1.99,5.24-2.7,7.22-.67,1.87-1.33,3.74-1.99,5.7-.82,2.45-1.24,3.7-1.66,5.22-.1.36-.74,2.73-1.15,4.86-.31,1.62-.46,2.43-.47,2.5-.08.59-.09.84-.24,1.25-.21.6-.51.98-1.1,1.71-.75.93-.77.76-1.45,1.6-.66.82-.86,1.26-1.19,1.23,0,0-.37-.03-.68-.8Z"/>
  <path class="cls-13" d="M85.74,196.39c3.21,1.58,6.27-.65,6.47-.81,1.58-1.19,2.98-3.4,2.56-5.8-.53-3.1-3.92-5.5-7.28-4.86-3.02.57-5.19,3.42-5.05,6.38.1,2.03,1.28,4.09,3.3,5.08Z"/>
  <path class="cls-13" d="M228.57,198.42c.64-.67,1.92-2.23,2.29-4.59.1-.67.61-3.9-1.62-6.42-2.15-2.43-5.27-2.4-6.23-2.39-.82,0-4.73.17-7.12,3.41-2.06,2.79-2.34,7.02-.13,9.85,1.88,2.41,4.73,2.75,5.39,2.83,4.25.52,7.14-2.41,7.42-2.7Z"/>
  <path class="cls-13" d="M82.03,234.16c.11-.25.17-.42.34-.64.08-.11.13-.15.47-.47.48-.45.43-.41.67-.64,0,0,.31-.29.61-.54,1.04-.9,2.56-1.62,2.56-1.62,3.8-2.2,10.65-5.26,10.65-5.26,4.92-2.2,5.13-2.19,7.04-3.18.78-.41,3.4-1.79,6.04-3.56,5.14-3.44,6.41-5.69,10.65-9.31,1.56-1.33,5.62-4.75,10.79-7.15,9.61-4.47,18.49-3.31,18.48-4.05,0-.53-4.53-1.03-8.5-.94-6.42.14-11.11,1.82-12.68,2.43-.9.35-4.27,1.69-8.77,4.86-7.48,5.27-6.67,7.57-12.27,11.6-.86.62-6.55,3.07-17.94,7.96,0,0-6.42,2.76-9.71,7.15-1.38,1.83-1.71,3.65-1.89,4.59-.12.62-.31,1.74.11,1.97.55.3,1.87-1.05,1.98-1.16.37-.38.64-.78.75-.95.41-.61.61-1.08.61-1.08Z"/>
  <path class="cls-13" d="M99.66,233.82c.59-.14,1.25-.29,2.12-.33.9-.04,1.94-.09,3.11.39.57.23,1.69.69,2.23,1.82.29.62.3,1.2.3,1.35,0,.29,0,.84-.34,1.38-.25.41-.58.62-1.08.95-.16.1-.44.28-.86.47-.67.3-1.3.47-1.87.58-.3.06-.99.17-3.78.12-1.41-.02-1.69-.06-2.05-.19-.41-.14-1.28-.47-1.82-1.38-.12-.21-.57-1.01-.37-2.02.12-.6.41-1,.54-1.18.43-.58.93-.84,1.52-1.15.89-.46,1.65-.64,2.35-.8Z"/>
  <path class="cls-13" d="M68.41,267.17c-.68.55-.3,1.84-1.55,3-.6.55-1.1.64-1.08.94.03.52,1.53.54,3.51,1.28.98.37,2.23,1.15,4.72,2.7,1.04.65,1.54.99,2.6,1.58,1.18.67,2.08,1.08,2.43,1.26,5.67,2.97,12.8,8.75,12.8,8.75,10.58,8.46,13.73,11.17,19.42,17.6,4.19,4.74,7.65,10.34,10.64,10.05,1.67-.16,2.97-1.01,2.97-1.01,1.36-.88,2-2.09,2.19-2.41.07-.13,4.14-4.61,12.28-13.55,10.77-11.85,11.85-12.77,14.11-13.66,2.54-1,4.73-1.23,11.13-1.16,6.03.06,14.35.38,24.43,1.47,2.75.07,5,.25,6.52.4,10.64,1.05,39.11,5.76,41.32,5.41.9-.14,1.55-.6,1.55-.6.34-.24.58-.51.71-.66.29-.34.5-.68.82-1.36.56-1.18.54-1.41.96-2.17.29-.54.55-.88.76-1.16.75-1.02.72-1.15,2.84-4.51,1.9-3.02,2.07-3.16,2.31-3.97.25-.87.23-1.34.67-2.3.68-1.47,1.35-1.7,1.26-2.33-.15-1.13-2.55-2.26-4.05-1.57-.5.23-.95.92-1.85,2.29-.22.33-.35.54-1.29,2.14-1.2,2.02-1.27,2.15-1.55,2.6-.6.93-.58.82-1.32,1.98-.56.88-1.14,1.82-1.26,2.02-.32.52-.48.8-.83,1.34-.27.42-.31.49-.47.74-.2.33-.27.49-.48.79-.23.34-.36.47-.46.56-.17.15-.32.24-.47.31-.64.33-1.5.6-1.75.67-.49-.03-1.17-.07-1.98-.13-.59-.04-3.34-.25-6.23-.59-.94-.11-2.44-.3-7.85-1.23-2.06-.35-4.76-.82-7.94-1.41-2.01-.28-4.82-.66-8.19-1.09-3.62-.46-6.07-.78-9.14-1.1-4.46-.47-8.19-.85-13.15-1.06-5.37-.22-4.41.09-10.37-.15-2.34-.09-4.53-.22-7.64.05-2.31.2-3.99.53-5.51.96-1.21.34-2.55.72-4.15,1.57-1.65.87-2.72,1.78-4.1,2.93-1.33,1.12-2.23,2.03-3.25,3.08-1.34,1.37-1.43,1.57-4.44,4.86-1.08,1.18-1.61,1.77-2.43,2.63-1.38,1.47-1.67,1.72-3.03,3.19-1.11,1.19-1.21,1.33-1.97,2.12-1.21,1.26-1.58,1.53-2.34,2.31-3.38,3.42-5.5,6.44-5.5,6.44-.36.52-.69,1.01-1.26,1.11-1.1.19-2.18-1.24-3.31-2.7-1.41-1.81-3.07-3.43-4.36-5.33-1.11-1.65-1.66-2.07-9.98-9.78-8.35-7.74-7.68-7.2-8.43-7.82-4.83-4.01-8.88-6.53-12.77-8.96-5.9-3.69-3.74-1.76-8.74-4.86-2.38-1.47-5.34-3.44-6.47-2.53Z"/>
  <path class="cls-13" d="M244.35,238.61c-5.59,6.9-3.07,16.71-2.29,16.78.8.07.29-9.98,7.14-15.97.73-.64,2.46-2.12,5.13-3.1,5.23-1.92,9.84-.33,9.98-.94.12-.51-2.92-2.28-6.61-2.56-4.76-.37-10.07,1.75-13.35,5.8Z"/>
  <path class="cls-13" d="M336.27,188.73c.96-1.36.4-3.38.18-4.15-.33-1.17-.5-1.79-1.01-2.07-.52-.29-1.95-.54-7.21,4.52-3.52,3.39-5.85,6.38-7.11,8-4.62,5.97-6.94,8.95-7.78,10.22-2.09,3.15-2.08,3.62-9.29,16.53-3.03,5.42-4.2,7.45-6.82,8.81-.93.48-3.06,1.25-7.33,2.78-2.45.88-3.67,1.32-4.11,1.44-7.3,2.12-11.87-.43-13.11,1.67-.77,1.29.17,3.63,1.56,4.44.93.54,1.8.26,4.67-.33,4.46-.93,3.25-.44,6.44-1.2,2.37-.56,4.22-1.11,7.11-2.03,5.91-1.87,8.87-2.8,9.44-3.11,3.56-1.91,3.61-4.19,8.78-13.22.88-1.54-.1.23,11.22-17.11,0,0,2.03-3.1,6.11-8.11,3.82-4.68,4.96-5.39,6.11-5.78.62-.21,1.55-.44,2.15-1.29Z"/>
  <path class="cls-13" d="M39.99,250.55c-.31-5.22,1.72-8.96,2.12-9.67.45-.81,1.62-2.73,3.76-4.56,2.24-1.92,4.29-2.66,5.35-2.96,1.32-.38,2.72-.76,3.83,0,.65.45,1.28,1.35,1.04,1.93-.38.88-2.49.26-4.59.74-2.91.67-4.61,3.2-5.94,5.18-4.39,6.53-3.74,13.67-4.59,13.65-.54-.02-.88-2.85-.97-4.3Z"/>
  <path class="cls-13" d="M34.46,247.58c1.69-1.15,2.62-3.83,1.78-4.89-.91-1.14-3.42.22-11.08,2.28-7.4,2-9.29,1.87-10.48,3.79-1.25,2.02-.47,4.28.89,9.04,3.41,11.89,1.29,7.38,4.44,17.33,1.96,6.19,3.48,11,6.22,17.33,1.63,3.77,3.7,7.75,7.78,15.56,4.26,8.16,6.39,12.25,7.56,14.22,10.5,17.85,26.41,27.15,26.44,27.12.02-.02-5.77-3.54-7.77-9.12-.27-.75-.78-2.4-1.94-4.52-.65-1.2-1.35-2.24-2.74-4.06-2.3-3.02-3.27-3.93-5.77-6.97-1.27-1.55-2.71-3.3-4.28-5.52-2.11-2.98-3.46-5.38-4.4-7.09-5.77-10.38-8.65-15.57-9.32-16.95-3.11-6.42-4.74-10.87-8-19.78-1.3-3.54-3.34-9.29-3.34-16.44,0-3.26.42-5.85,2.23-7.78,1.87-2,4.66-2.7,5.56-2.89,3.21-.67,4.53.48,6.22-.67Z"/>
</svg>